<svg width="887" height="794" viewBox="0 0 887 794" fill="none" xmlns="http://www.w3.org/2000/svg">
<path d="M749.482 315.275L707.008 314.541L719.995 301.985L762.469 302.72L749.482 315.275Z" fill="#8DC540" fill-opacity="0.2"/>
<path d="M726.629 337.362L684.159 336.628L697.146 324.072L739.616 324.807L726.629 337.362Z" fill="#8DC540" fill-opacity="0.2"/>
<path d="M722.524 12.3495L681.57 11.6451L673.645 3.4408L714.599 4.14525L722.524 12.3495Z" fill="#8DC540" fill-opacity="0.2"/>
<path d="M744.605 35.2181L703.651 34.5137L691.101 21.5157L732.06 22.2245L744.605 35.2181Z" fill="#8DC540" fill-opacity="0.2"/>
<path d="M766.686 58.0829L725.727 57.3741L713.178 44.3805L754.136 45.0892L766.686 58.0829Z" fill="#8DC540" fill-opacity="0.2"/>
<path d="M772.34 293.18L729.862 292.449L845.133 181.03L735.258 67.2448L776.221 67.9535L788.77 80.9515L886.839 182.508H886.834L785.327 280.628L772.34 293.18Z" fill="#8DC540" fill-opacity="0.2"/>
<path d="M703.771 359.454L661.301 358.719L674.289 346.164L716.763 346.898L703.771 359.454Z" fill="#8DC540" fill-opacity="0.2"/>
<path d="M708.438 292.08L661.932 291.277L662.001 287.269L536.64 285.108L536.722 280.349L662.083 282.51L662.151 278.502L691.831 279.013L701.461 269.701L684.558 269.409L684.627 265.405L559.262 263.241L559.343 258.481L684.708 260.646L684.777 256.638L714.448 257.15L714.453 257.145L724.323 247.614L707.412 247.322L707.48 243.314L582.115 241.149L582.197 236.39L707.562 238.555L707.635 234.547L737.31 235.058L747.176 225.522L730.269 225.23L730.338 221.223L604.968 219.058L605.05 214.298L730.419 216.463L730.488 212.456L760.164 212.967L770.03 203.431L753.118 203.139L753.191 199.131L627.822 196.966L627.908 192.211L753.273 194.372L753.342 190.364L783.021 190.876L793.338 180.897L783.369 170.567L753.689 170.056L753.758 166.048L628.393 163.883L628.474 159.124L753.84 161.289L753.913 157.281L770.82 157.573L761.289 147.702L731.613 147.187L731.682 143.179L606.312 141.019L606.394 136.259L731.763 138.42L731.832 134.417L748.743 134.704L739.208 124.833L709.532 124.322L709.601 120.315L584.232 118.154L584.313 113.395L709.683 115.555L709.751 111.548L726.663 111.84L717.127 101.969H717.123L687.452 101.458L687.521 97.4502L562.155 95.2896L562.237 90.5303L687.602 92.6908L687.671 88.6832L704.578 88.9753L695.27 79.3364L665.595 78.8252L665.663 74.8176L540.298 72.6527L540.38 67.8977L665.745 70.0583L665.813 66.0507L713.834 66.8754L823.709 180.661L708.438 292.08Z" fill="#8DC540" fill-opacity="0.2"/>
<path d="M704.303 57.0044L643.518 55.9564L643.587 51.9487L518.218 49.7881L518.299 45.0288L643.669 47.1937L643.737 43.1818L691.754 44.0108L704.303 57.0044Z" fill="#8DC540" fill-opacity="0.2"/>
<path d="M639.878 358.35L593.377 357.546L593.445 353.543L468.076 351.378L468.158 346.619L593.527 348.784L593.596 344.772L652.865 345.794L639.878 358.35Z" fill="#8DC540" fill-opacity="0.2"/>
<path d="M599.357 10.2274L599.426 6.22406L474.061 4.05916L474.129 0L652.217 3.07122L660.146 11.2755L599.357 10.2274Z" fill="#8DC540" fill-opacity="0.2"/>
<path d="M682.227 34.1442L621.434 33.0961L621.507 29.0842L496.137 26.9236L496.219 22.1643L621.588 24.3249L621.657 20.3173L669.678 21.1463L682.227 34.1442Z" fill="#8DC540" fill-opacity="0.2"/>
<path d="M685.584 314.171L639.083 313.372L639.152 309.36L513.783 307.196L513.864 302.436L639.234 304.601L639.302 300.594L698.572 301.616L685.584 314.171Z" fill="#8DC540" fill-opacity="0.2"/>
<path d="M662.731 336.258L616.226 335.455L616.295 331.452L490.929 329.287L491.011 324.528L616.376 326.693L616.445 322.681L675.719 323.703L662.731 336.258Z" fill="#8DC540" fill-opacity="0.2"/>
<path d="M453.182 445.521L482.858 446.032L482.927 442.025L608.292 444.185L608.373 439.426L483.008 437.265L483.077 433.258L436.49 432.454L323.605 541.562C332.961 542.254 342.316 542.945 351.671 543.637L361.992 533.659L391.668 534.17L391.736 530.162L517.106 532.323L517.187 527.564L391.818 525.403L391.887 521.395L374.979 521.103L384.846 511.567L414.521 512.079L414.59 508.071L539.959 510.232L540.041 505.472L414.671 503.312L414.74 499.304L397.833 499.012L407.699 489.476L437.374 489.987L437.443 485.98L562.808 488.14L562.89 483.381L437.525 481.22L437.593 477.213L420.686 476.921L430.552 467.389L460.228 467.9L460.296 463.893L585.662 466.053L585.743 461.294L460.378 459.133L460.447 455.126L443.54 454.833L447.094 451.397L453.174 445.521H453.182Z" fill="#8DC540" fill-opacity="0.2"/>
<path d="M447.597 422.94L446.36 422.919L447.618 421.703L447.597 422.94Z" fill="#8DC540" fill-opacity="0.2"/>
<path d="M551.418 379.762L492.067 378.74L505.055 366.185L551.637 366.988L551.568 370.995L676.938 373.156L676.856 377.915L551.487 375.755L551.418 379.762Z" fill="#8DC540" fill-opacity="0.2"/>
<path d="M505.711 423.941L447.597 422.94L447.618 421.703L459.348 410.363L505.93 411.166L505.862 415.178L631.231 417.339L631.15 422.098L505.78 419.937L505.711 423.941Z" fill="#8DC540" fill-opacity="0.2"/>
<path d="M528.565 401.854L469.209 400.832L482.197 388.276L528.788 389.079L528.715 393.087L654.084 395.247L654.003 400.007L528.633 397.846L528.565 401.854Z" fill="#8DC540" fill-opacity="0.2"/>
<path d="M470.644 378.371L428.251 377.64L441.243 365.085L483.631 365.815L470.644 378.371Z" fill="#8DC540" fill-opacity="0.2"/>
<path d="M424.932 422.549L382.544 421.819L395.532 409.263L437.924 409.994L424.932 422.549Z" fill="#8DC540" fill-opacity="0.2"/>
<path d="M447.786 400.462L405.398 399.727L418.385 387.176L460.773 387.906L447.786 400.462Z" fill="#8DC540" fill-opacity="0.2"/>
<path d="M331.071 597.334L390.422 598.36L377.435 610.912L330.853 610.108L330.921 606.101L205.552 603.94L205.633 599.181L331.003 601.346L331.071 597.334Z" fill="#8DC540" fill-opacity="0.2"/>
<path d="M376.778 553.156L434.897 554.156L434.876 555.398L423.142 566.733L376.559 565.93L376.628 561.922L251.259 559.758L251.344 554.998L376.71 557.163L376.778 553.156Z" fill="#8DC540" fill-opacity="0.2"/>
<path d="M353.925 575.243L413.28 576.269L400.293 588.82L353.706 588.017L353.775 584.014L228.405 581.849L228.487 577.09L353.856 579.254L353.925 575.243Z" fill="#8DC540" fill-opacity="0.2"/>
<path d="M411.85 598.73L454.238 599.46L441.251 612.011L398.863 611.281L411.85 598.73Z" fill="#8DC540" fill-opacity="0.2"/>
<path d="M457.557 554.547L499.945 555.277L486.958 567.837L444.57 567.103L457.557 554.547Z" fill="#8DC540" fill-opacity="0.2"/>
<path d="M434.704 576.639L477.092 577.369L464.105 589.924L421.717 589.19L434.704 576.639Z" fill="#8DC540" fill-opacity="0.2"/>
<path d="M302.186 541.197L415.066 432.089L372.674 431.359L258.175 542.031C272.845 541.756 287.516 541.477 302.186 541.197Z" fill="#8DC540" fill-opacity="0.2"/>
<path d="M195.007 695.884L224.683 696.395L224.752 692.388L350.117 694.548L350.198 689.789L224.833 687.628L224.902 683.621L178.315 682.817L65.4305 791.925C74.7857 792.617 84.1409 793.309 93.496 794L103.817 784.022L133.493 784.533L133.561 780.525L258.931 782.686L259.012 777.927L133.643 775.766L133.712 771.758L116.805 771.466L126.671 761.93L156.346 762.442L156.415 758.434L281.784 760.595L281.866 755.835L156.496 753.675L156.565 749.667L139.658 749.375L149.524 739.839L179.199 740.35L179.268 736.343L304.633 738.503L304.715 733.744L179.35 731.583L179.418 727.576L162.511 727.284L172.377 717.752L202.053 718.263L202.122 714.256L327.487 716.416L327.568 711.657L202.203 709.496L202.272 705.489L185.365 705.197L188.92 701.76L194.999 695.884H195.007Z" fill="#8DC540" fill-opacity="0.2"/>
<path d="M293.243 630.125L233.892 629.103L246.879 616.547L293.462 617.351L293.393 621.358L418.763 623.519L418.681 628.278L293.312 626.118L293.243 630.125Z" fill="#8DC540" fill-opacity="0.2"/>
<path d="M247.536 674.304L189.417 673.303L189.439 672.066L201.172 660.726L247.755 661.529L247.686 665.541L373.052 667.702L372.97 672.461L247.605 670.3L247.536 674.304Z" fill="#8DC540" fill-opacity="0.2"/>
<path d="M270.39 652.217L211.035 651.194L224.022 638.639L270.609 639.442L270.54 643.45L395.91 645.61L395.828 650.37L270.458 648.209L270.39 652.217Z" fill="#8DC540" fill-opacity="0.2"/>
<path d="M212.464 628.734L170.076 627.999L183.063 615.448L225.452 616.178L212.464 628.734Z" fill="#8DC540" fill-opacity="0.2"/>
<path d="M166.757 672.912L124.369 672.182L137.357 659.626L179.745 660.356L166.757 672.912Z" fill="#8DC540" fill-opacity="0.2"/>
<path d="M189.611 650.825L147.223 650.09L160.21 637.539L202.598 638.269L189.611 650.825Z" fill="#8DC540" fill-opacity="0.2"/>
<path d="M44.0109 791.556L156.891 682.448L114.499 681.718L0 792.389C14.6703 792.114 29.3406 791.835 44.0109 791.556Z" fill="#8DC540" fill-opacity="0.2"/>
</svg>
