<svg width="6" height="10" viewBox="0 0 6 10" fill="none" xmlns="http://www.w3.org/2000/svg">
<path opacity="0.8" d="M0.253122 0.246261C0.332673 0.168229 0.427317 0.106294 0.531595 0.0640274C0.635873 0.021761 0.747721 0 0.860687 0C0.973653 0 1.0855 0.021761 1.18978 0.0640274C1.29406 0.106294 1.3887 0.168229 1.46825 0.246261L5.74688 4.4089C5.82708 4.4863 5.89074 4.57838 5.93419 4.67983C5.97763 4.78128 6 4.8901 6 5C6 5.1099 5.97763 5.21872 5.93419 5.32017C5.89074 5.42162 5.82708 5.5137 5.74688 5.5911L1.46825 9.75374C1.3887 9.83177 1.29406 9.89371 1.18978 9.93597C1.0855 9.97824 0.973653 10 0.860687 10C0.747721 10 0.635873 9.97824 0.531595 9.93597C0.427317 9.89371 0.332673 9.83177 0.253122 9.75374C0.172916 9.67634 0.109255 9.58427 0.0658112 9.48281C0.022367 9.38136 0 9.27255 0 9.16264C0 9.05274 0.022367 8.94392 0.0658112 8.84247C0.109255 8.74102 0.172916 8.64894 0.253122 8.57155L3.93274 5L0.253122 1.42845C0.172916 1.35106 0.109255 1.25898 0.0658112 1.15753C0.022367 1.05608 0 0.94726 0 0.837356C0 0.727452 0.022367 0.618636 0.0658112 0.517185C0.109255 0.415733 0.172916 0.323655 0.253122 0.246261Z" fill="#3C3C3C"/>
</svg>
