<svg width="86" height="84" viewBox="0 0 86 84" fill="none" xmlns="http://www.w3.org/2000/svg">
<path d="M24.207 19.5156H5.44141C2.85041 19.5156 0.75 21.616 0.75 24.207V71.1211C0.75 73.7121 2.85041 75.8125 5.44141 75.8125H24.207C26.798 75.8125 28.8984 73.7121 28.8984 71.1211V24.207C28.8984 21.616 26.798 19.5156 24.207 19.5156Z" stroke="#0D6A37" stroke-width="1.5"/>
<path d="M61.7383 0.75H38.2812C35.6903 0.75 33.5898 2.85041 33.5898 5.44141V71.1211C33.5898 73.7121 35.6903 75.8125 38.2812 75.8125H61.7383C64.3293 75.8125 66.4297 73.7121 66.4297 71.1211V5.44141C66.4297 2.85041 64.3293 0.75 61.7383 0.75Z" stroke="#0D6A37" stroke-width="1.5"/>
<path d="M66.4297 19.5156H85.1953V57.0469H75.8125" stroke="#0D6A37" stroke-width="1.5" stroke-linecap="round" stroke-linejoin="round"/>
<path d="M78.25 63.75C78.25 63.75 84.75 64.9375 84.75 70.875C84.75 79.1875 78.25 82.75 78.25 82.75C78.25 82.75 71.75 79.1875 71.75 70.875C71.75 64.9375 78.25 63.75 78.25 63.75Z" stroke="#0D6A37" stroke-width="1.5" stroke-linecap="round" stroke-linejoin="round"/>
</svg>
