<svg width="53" height="40" viewBox="0 0 53 40" fill="none" xmlns="http://www.w3.org/2000/svg">
<path d="M13.125 15.75C17.4742 15.75 21 12.2242 21 7.875C21 3.52576 17.4742 0 13.125 0C8.77576 0 5.25 3.52576 5.25 7.875C5.25 12.2242 8.77576 15.75 13.125 15.75Z" fill="#A8D05A"/>
<path d="M39.375 15.75C43.7242 15.75 47.25 12.2242 47.25 7.875C47.25 3.52576 43.7242 0 39.375 0C35.0258 0 31.5 3.52576 31.5 7.875C31.5 12.2242 35.0258 15.75 39.375 15.75Z" fill="#A8D05A"/>
<path d="M0 39.375C2.1 27.5625 9.1875 21 13.125 21C17.0625 21 24.15 27.5625 26.25 39.375" fill="#A8D05A"/>
<path d="M26.25 39.375C28.35 27.5625 35.4375 21 39.375 21C43.3125 21 50.4 27.5625 52.5 39.375" fill="#A8D05A"/>
</svg>
