<svg width="815" height="742" viewBox="0 0 815 742" fill="none" xmlns="http://www.w3.org/2000/svg">
<path d="M686.489 294.628L646.797 293.941L658.934 282.208L698.626 282.894L686.489 294.628Z" fill="#8DC540" fill-opacity="0.1"/>
<path d="M665.13 315.268L625.441 314.582L637.578 302.849L677.266 303.535L665.13 315.268Z" fill="#8DC540" fill-opacity="0.1"/>
<path d="M661.296 11.5411L623.024 10.8828L615.617 3.21582L653.889 3.87414L661.296 11.5411Z" fill="#8DC540" fill-opacity="0.1"/>
<path d="M681.929 32.9114L643.657 32.2531L631.93 20.1064L670.206 20.7688L681.929 32.9114Z" fill="#8DC540" fill-opacity="0.1"/>
<path d="M702.562 54.2786L664.286 53.6163L652.559 41.4736L690.835 42.1359L702.562 54.2786Z" fill="#8DC540" fill-opacity="0.1"/>
<path d="M707.845 273.979L668.148 273.297L775.871 169.175L673.192 62.8408L711.472 63.5032L723.199 75.6499L814.845 170.555H814.841L719.981 262.25L707.845 273.979Z" fill="#8DC540" fill-opacity="0.1"/>
<path d="M643.77 335.913L604.082 335.226L616.219 323.493L655.911 324.18L643.77 335.913Z" fill="#8DC540" fill-opacity="0.1"/>
<path d="M648.126 272.951L604.667 272.2L604.731 268.455L487.58 266.436L487.656 261.988L604.807 264.008L604.871 260.262L632.607 260.74L641.607 252.037L625.811 251.765L625.875 248.023L508.72 246L508.796 241.553L625.951 243.576L626.015 239.831L653.743 240.308L653.747 240.304L662.971 231.397L647.167 231.124L647.232 227.379L530.077 225.356L530.153 220.908L647.308 222.931L647.376 219.186L675.108 219.664L684.328 210.752L668.528 210.479L668.592 206.734L551.433 204.711L551.51 200.264L668.669 202.287L668.733 198.541L696.465 199.019L705.685 190.108L689.881 189.835L689.949 186.09L572.79 184.067L572.87 179.623L690.025 181.642L690.089 177.897L717.825 178.375L727.467 169.05L718.15 159.396L690.414 158.918L690.479 155.173L573.324 153.15L573.4 148.702L690.555 150.725L690.623 146.98L706.423 147.253L697.516 138.029L669.784 137.547L669.848 133.802L552.689 131.783L552.766 127.335L669.924 129.354L669.989 125.613L685.792 125.882L676.881 116.658L649.149 116.18L649.214 112.435L532.055 110.416L532.131 105.968L649.29 107.987L649.354 104.242L665.158 104.515L656.247 95.2906H656.243L628.515 94.8129L628.579 91.0677L511.424 89.0486L511.501 84.601L628.655 86.6201L628.72 82.875L644.519 83.1479L635.821 74.1402L608.089 73.6626L608.153 69.9174L490.998 67.8943L491.075 63.4507L608.23 65.4698L608.294 61.7246L653.17 62.4953L755.849 168.829L648.126 272.951Z" fill="#8DC540" fill-opacity="0.1"/>
<path d="M644.266 53.2709L587.462 52.2915L587.526 48.5463L470.367 46.5272L470.443 42.0796L587.602 44.1027L587.666 40.3535L632.538 41.1283L644.266 53.2709Z" fill="#8DC540" fill-opacity="0.1"/>
<path d="M584.058 334.881L540.602 334.13L540.667 330.389L423.508 328.366L423.584 323.918L540.743 325.942L540.807 322.192L596.195 323.148L584.058 334.881Z" fill="#8DC540" fill-opacity="0.1"/>
<path d="M546.192 9.55759L546.256 5.81644L429.102 3.79332L429.166 0L595.59 2.87009L603 10.537L546.192 9.55759Z" fill="#8DC540" fill-opacity="0.1"/>
<path d="M623.637 31.9077L566.825 30.9283L566.893 27.1791L449.734 25.16L449.811 20.7124L566.97 22.7315L567.034 18.9863L611.91 19.761L623.637 31.9077Z" fill="#8DC540" fill-opacity="0.1"/>
<path d="M626.771 293.596L583.315 292.849L583.38 289.1L466.221 287.077L466.297 282.629L583.456 284.652L583.52 280.907L638.908 281.863L626.771 293.596Z" fill="#8DC540" fill-opacity="0.1"/>
<path d="M605.418 314.236L561.958 313.486L562.022 309.745L444.867 307.722L444.943 303.274L562.098 305.297L562.163 301.548L617.554 302.503L605.418 314.236Z" fill="#8DC540" fill-opacity="0.1"/>
<path d="M409.591 416.344L437.323 416.821L437.387 413.076L554.542 415.095L554.618 410.648L437.463 408.629L437.527 404.883L393.992 404.133L288.5 506.095C297.242 506.741 305.985 507.388 314.727 508.034L324.373 498.709L352.105 499.187L352.169 495.442L469.328 497.461L469.404 493.013L352.245 490.994L352.309 487.249L336.509 486.976L345.729 478.065L373.461 478.542L373.526 474.797L490.684 476.816L490.761 472.369L373.602 470.35L373.666 466.604L357.866 466.331L367.086 457.42L394.818 457.898L394.882 454.153L512.037 456.172L512.113 451.724L394.958 449.705L395.023 445.96L379.223 445.687L388.443 436.78L416.175 437.257L416.239 433.512L533.394 435.531L533.47 431.084L416.315 429.064L416.379 425.319L400.579 425.046L403.902 421.835L409.583 416.344H409.591Z" fill="#8DC540" fill-opacity="0.1"/>
<path d="M404.37 395.241L403.215 395.221L404.39 394.085L404.37 395.241Z" fill="#8DC540" fill-opacity="0.1"/>
<path d="M501.396 354.891L445.932 353.935L458.068 342.202L501.6 342.953L501.536 346.698L618.695 348.717L618.619 353.165L501.46 351.146L501.396 354.891Z" fill="#8DC540" fill-opacity="0.1"/>
<path d="M458.683 396.176L404.375 395.241L404.395 394.085L415.356 383.487L458.888 384.238L458.824 387.987L575.983 390.006L575.907 394.454L458.748 392.435L458.683 396.176Z" fill="#8DC540" fill-opacity="0.1"/>
<path d="M480.04 375.535L424.572 374.58L436.709 362.847L480.249 363.597L480.181 367.342L597.34 369.362L597.263 373.809L480.104 371.79L480.04 375.535Z" fill="#8DC540" fill-opacity="0.1"/>
<path d="M425.915 353.59L386.299 352.908L398.44 341.175L438.052 341.857L425.915 353.59Z" fill="#8DC540" fill-opacity="0.1"/>
<path d="M383.194 394.876L343.582 394.193L355.719 382.46L395.335 383.142L383.194 394.876Z" fill="#8DC540" fill-opacity="0.1"/>
<path d="M404.549 374.235L364.938 373.549L377.074 361.819L416.686 362.502L404.549 374.235Z" fill="#8DC540" fill-opacity="0.1"/>
<path d="M295.479 558.214L350.943 559.173L338.806 570.903L295.274 570.152L295.339 566.407L178.18 564.388L178.256 559.94L295.415 561.963L295.479 558.214Z" fill="#8DC540" fill-opacity="0.1"/>
<path d="M338.198 516.929L392.51 517.864L392.49 519.024L381.525 529.617L337.993 528.867L338.057 525.122L220.898 523.098L220.979 518.651L338.134 520.674L338.198 516.929Z" fill="#8DC540" fill-opacity="0.1"/>
<path d="M316.834 537.569L372.302 538.529L360.166 550.258L316.63 549.507L316.694 545.766L199.535 543.743L199.611 539.295L316.77 541.318L316.834 537.569Z" fill="#8DC540" fill-opacity="0.1"/>
<path d="M370.973 559.519L410.585 560.201L398.448 571.93L358.836 571.248L370.973 559.519Z" fill="#8DC540" fill-opacity="0.1"/>
<path d="M413.682 518.229L453.294 518.912L441.157 530.649L401.545 529.963L413.682 518.229Z" fill="#8DC540" fill-opacity="0.1"/>
<path d="M392.328 538.874L431.94 539.556L419.803 551.29L380.191 550.603L392.328 538.874Z" fill="#8DC540" fill-opacity="0.1"/>
<path d="M268.48 505.754L373.968 403.792L334.352 403.109L227.352 506.533C241.061 506.276 254.771 506.015 268.48 505.754Z" fill="#8DC540" fill-opacity="0.1"/>
<path d="M168.331 650.31L196.063 650.787L196.127 647.042L313.282 649.061L313.358 644.614L196.203 642.594L196.268 638.849L152.732 638.099L47.2402 740.061C55.9827 740.707 64.7252 741.354 73.4677 742L83.1129 732.675L110.845 733.153L110.909 729.408L228.068 731.427L228.144 726.979L110.985 724.96L111.05 721.215L95.2497 720.942L104.47 712.03L132.202 712.508L132.266 708.763L249.425 710.782L249.501 706.334L132.342 704.315L132.406 700.57L116.606 700.297L125.826 691.386L153.558 691.864L153.622 688.118L270.777 690.138L270.854 685.69L153.699 683.671L153.763 679.926L137.963 679.653L147.183 670.745L174.915 671.223L174.979 667.478L292.134 669.497L292.21 665.049L175.055 663.03L175.12 659.285L159.32 659.012L162.642 655.801L168.323 650.31H168.331Z" fill="#8DC540" fill-opacity="0.1"/>
<path d="M260.126 588.858L204.662 587.902L216.799 576.169L260.331 576.92L260.267 580.665L377.425 582.684L377.349 587.131L260.19 585.112L260.126 588.858Z" fill="#8DC540" fill-opacity="0.1"/>
<path d="M217.414 630.143L163.102 629.207L163.122 628.051L174.087 617.454L217.619 618.205L217.555 621.954L334.709 623.973L334.633 628.421L217.478 626.402L217.414 630.143Z" fill="#8DC540" fill-opacity="0.1"/>
<path d="M238.767 609.502L183.299 608.547L195.436 596.813L238.971 597.564L238.907 601.309L356.066 603.328L355.99 607.776L238.831 605.757L238.767 609.502Z" fill="#8DC540" fill-opacity="0.1"/>
<path d="M184.633 587.557L145.021 586.871L157.158 575.142L196.77 575.824L184.633 587.557Z" fill="#8DC540" fill-opacity="0.1"/>
<path d="M141.924 628.842L102.312 628.16L114.449 616.427L154.061 617.109L141.924 628.842Z" fill="#8DC540" fill-opacity="0.1"/>
<path d="M163.28 608.202L123.668 607.515L135.805 595.786L175.417 596.469L163.28 608.202Z" fill="#8DC540" fill-opacity="0.1"/>
<path d="M27.2165 739.716L132.704 637.754L93.088 637.071L-13.9121 740.495C-0.202581 740.238 13.5069 739.977 27.2165 739.716Z" fill="#8DC540" fill-opacity="0.1"/>
</svg>
