<svg width="160" height="192" viewBox="0 0 160 192" fill="none" xmlns="http://www.w3.org/2000/svg">
<path d="M141.849 31.1936V32.807H159.059V107.16H141.849V108.773V109.983L141.714 111.193L141.58 112.403L141.311 113.614L141.042 114.824L140.639 116.034L140.235 117.109L139.697 118.185L139.16 119.261L138.622 120.336L137.815 121.412L137.143 122.353L136.336 123.294L135.529 124.101L134.588 125.042L133.781 125.714L132.706 126.521L131.765 127.193L130.689 127.731L129.613 128.403L128.538 128.807L127.328 129.345L126.252 129.614L125.042 129.882L123.832 130.151L122.622 130.286L121.412 130.42L120.202 130.555L118.992 130.42L117.781 130.286L116.571 130.151L115.361 129.882L114.151 129.614L113.076 129.345L111.865 128.807L110.79 128.403L109.714 127.731L108.639 127.193L107.697 126.521L106.756 125.714L105.815 125.042L104.874 124.101L104.067 123.294L103.26 122.353L102.588 121.412L101.916 120.336L101.244 119.261L100.706 118.185L100.168 117.109L99.7647 116.034L99.3613 114.824L99.0924 113.614L98.8235 112.403L98.689 111.193L98.5546 109.983V108.773V31.1936V29.849L98.689 28.639L98.8235 27.5633L99.0924 26.3532L99.3613 25.1432L99.7647 23.9331L100.168 22.8575L100.706 21.7818L101.244 20.7062L101.916 19.6306L102.588 18.5549L103.26 17.6138L104.067 16.6726L104.874 15.8659L105.815 14.9247L106.756 14.2524L107.697 13.4457L108.639 12.7734L109.714 12.2356L110.79 11.5634L111.865 11.16L113.076 10.6222L114.151 10.3533L115.361 9.94992L116.571 9.81547L117.781 9.54656H118.992L120.202 9.41211L121.412 9.54656H122.622L123.832 9.81547L125.042 9.94992L126.252 10.3533L127.328 10.6222L128.538 11.16L129.613 11.5634L130.689 12.2356L131.765 12.7734L132.706 13.4457L133.781 14.2524L134.588 14.9247L135.529 15.8659L136.336 16.6726L137.143 17.6138L137.815 18.5549L138.622 19.6306L139.16 20.7062L139.697 21.7818L140.235 22.8575L140.639 23.9331L141.042 25.1432L141.311 26.3532L141.58 27.5633L141.714 28.639L141.849 29.849V31.1936Z" fill="#A8D05A"/>
<path d="M60.6386 31.1936V32.807H77.8487V94.7901L17.6134 27.8322L17.8823 26.6222L18.1512 25.4121L18.4201 24.202L18.9579 23.1264L19.3613 21.9163L19.8991 20.8407L20.5714 19.765L21.2436 18.8239L21.9159 17.8827L22.7226 16.9415L23.5294 16.0003L24.4705 15.1936L25.2773 14.3869L26.3529 13.5802L27.2941 12.9079L28.3697 12.2356L29.4453 11.6978L30.521 11.16L31.731 10.7566L32.8067 10.3533L34.0168 10.0844L35.2268 9.81547L36.4369 9.68102L37.647 9.54656L38.8571 9.41211L40.0672 9.54656H41.2773L42.4873 9.81547L43.6974 9.94992L44.9075 10.2188L46.1176 10.6222L47.1932 11.0256L48.2688 11.5634L49.4789 12.1012L50.4201 12.7734L51.4957 13.4457L52.4369 14.118L53.3781 14.9247L54.3193 15.7314L55.126 16.6726L55.9327 17.6138L56.605 18.5549L57.2772 19.4961L57.9495 20.5718L58.4873 21.6474L59.0251 22.8575L59.4285 23.9331L59.8319 25.1432L60.1008 26.3532L60.3697 27.4289L60.5041 28.639L60.6386 29.849V31.1936Z" fill="#A8D05A"/>
<path d="M17.3445 108.773V109.983L17.4789 111.193L17.6134 112.404L17.8823 113.614L18.2857 114.824L18.5546 116.034L19.0924 117.109L19.4957 118.319L20.0335 119.395L20.7058 120.471L21.3781 121.412L22.1848 122.353L22.8571 123.294L23.7983 124.235L24.605 125.042L25.5461 125.849L26.6218 126.521L27.563 127.193L28.6386 127.866L29.7142 128.403L30.7898 128.941L31.9999 129.345L33.21 129.614L34.2856 130.017L35.4957 130.151L36.7058 130.42H37.9159L39.2604 130.555L40.4705 130.42L41.6806 130.286L42.8907 130.151L43.9663 129.882L45.1764 129.614L46.3865 129.21L47.4621 128.807L48.6722 128.269L49.7478 127.731L50.689 127.059L51.7646 126.387L52.7058 125.58L53.647 124.773L54.5882 123.966L55.3949 123.025L56.0671 122.084L56.8739 121.143L57.5461 120.067L58.0839 119.126L58.6218 117.916L59.1596 116.84L59.5629 115.765L59.9663 114.555L60.2352 113.345L60.5041 112.135L0.134399 45.1768V107.16H17.3445" fill="#A8D05A"/>
<path d="M81.3446 31.1932H89.1429V29.7142L89.2774 28.2352L89.4118 26.8907L89.6807 25.4117L89.9496 24.0672L90.353 22.5882L90.7564 21.2437L91.2942 19.8991L91.832 18.5546L92.3698 17.3445L93.0421 16L93.8488 14.7899L94.5211 13.5798L95.4622 12.3697L96.269 11.2941L97.2101 10.2185L98.2858 9.14284L99.2269 8.20166L100.303 7.26049L101.513 6.31932L102.588 5.51259L103.798 4.70587L105.143 4.03361L106.353 3.36134L107.698 2.68907L109.042 2.15126L110.387 1.61344L111.731 1.21008L113.076 0.941176L114.555 0.537813L115.899 0.403362L117.378 0.134454H118.723L120.202 0L121.681 0.134454H123.025L124.504 0.403362L125.983 0.537813L127.328 0.941176L128.672 1.21008L130.151 1.61344L131.496 2.15126L132.706 2.68907L134.05 3.36134L135.395 4.03361L136.605 4.70587L137.815 5.51259L138.891 6.31932L140.101 7.26049L141.177 8.20166L142.252 9.14284L143.193 10.2185L144.134 11.2941L145.076 12.3697L145.882 13.5798L146.689 14.7899L147.361 16L148.034 17.3445L148.571 18.5546L149.244 19.8991L149.647 21.2437L150.05 22.5882L150.454 24.0672L150.723 25.4117L150.992 26.8907L151.126 28.2352L151.261 29.7142V31.1932H143.462V29.8487L143.328 28.6386L143.193 27.4285L142.924 26.084L142.655 24.8739L142.252 23.6638L141.849 22.4537L141.311 21.3781L140.773 20.168L140.235 19.0924L139.563 18.0168L138.756 17.0756L137.95 16L137.143 15.0588L136.202 14.2521L135.261 13.3109L134.319 12.6386L133.244 11.8319L132.168 11.1596L131.092 10.4874L130.017 9.94956L128.807 9.5462L127.597 9.00839L126.387 8.73948L125.177 8.33612L123.966 8.06721L122.756 7.93276H121.546L120.202 7.7983L118.992 7.93276H117.647L116.437 8.06721L115.227 8.33612L114.017 8.73948L112.807 9.00839L111.597 9.5462L110.387 9.94956L109.311 10.4874L108.235 11.1596L107.16 11.8319L106.084 12.6386L105.143 13.3109L104.202 14.2521L103.261 15.0588L102.454 16L101.647 17.0756L100.975 18.0168L100.303 19.0924L99.6303 20.168L99.0925 21.3781L98.5547 22.4537L98.1513 23.6638L97.748 24.8739L97.4791 26.084L97.2101 27.4285L97.0757 28.6386L96.9412 29.8487V31.1932V108.773V110.117L97.0757 111.327L97.2101 112.538L97.4791 113.882L97.748 115.092L98.1513 116.302L98.5547 117.512L99.0925 118.588L99.6303 119.798L100.303 120.874L100.975 121.949L101.647 122.891L102.454 123.966L103.261 124.907L104.202 125.714L105.143 126.521L106.084 127.327L107.16 128.134L108.235 128.806L109.311 129.479L110.387 130.017L111.597 130.42L112.807 130.958L114.017 131.227L115.227 131.63L116.437 131.764L117.647 132.033H118.992L120.202 132.168L121.546 132.033H122.756L123.966 131.764L125.177 131.63L126.387 131.227L127.597 130.958L128.807 130.42L130.017 130.017L131.092 129.479L132.168 128.806L133.244 128.134L134.319 127.327L135.261 126.521L136.202 125.714L137.143 124.907L137.95 123.966L138.756 122.891L139.563 121.949L140.235 120.874L140.773 119.798L141.311 118.588L141.849 117.512L142.252 116.302L142.655 115.092L142.924 113.882L143.193 112.538L143.328 111.327L143.462 110.117V108.773H151.261V110.252L151.126 111.731L150.992 113.075L150.723 114.554L150.454 115.899L150.05 117.378L149.647 118.722L149.244 120.067L148.571 121.412L148.034 122.622L147.361 123.966L146.689 125.176L145.882 126.386L145.076 127.596L144.134 128.672L143.193 129.748L142.252 130.823L141.177 131.764L140.101 132.706L138.891 133.647L137.815 134.454L136.605 135.26L135.395 135.932L134.05 136.605L132.706 137.277L131.496 137.815L130.151 138.353L128.672 138.756L127.328 139.025L125.983 139.428L124.504 139.563L123.025 139.832H121.681H120.202H118.723H117.378L115.899 139.563L114.555 139.428L113.076 139.025L111.731 138.756L110.387 138.353L109.042 137.815L107.698 137.277L106.353 136.605L105.143 135.932L103.798 135.26L102.588 134.454L101.513 133.647L100.303 132.706L99.2269 131.764L98.2858 130.823L97.2101 129.748L96.269 128.672L95.4622 127.596L94.5211 126.386L93.8488 125.176L93.0421 123.966L92.3698 122.622L91.832 121.412L91.2942 120.067L90.7564 118.722L90.353 117.378L89.9496 115.899L89.6807 114.554L89.4118 113.075L89.2774 111.731L89.1429 110.252V108.773H81.3446V31.1932Z" fill="white"/>
<path d="M0.134399 42.6219L62.1176 111.597L61.9831 112.807L61.7142 114.151L61.4453 115.361L61.0419 116.571L60.6386 117.647L60.1008 118.857L59.5629 119.933L58.8907 121.008L58.2184 122.084L57.4117 123.16L56.605 124.101L55.7982 125.042L54.8571 125.849L53.9159 126.655L52.9747 127.462L51.8991 128.269L50.8234 128.941L49.7478 129.479L48.6722 130.017L47.4621 130.554L46.252 130.958L45.0419 131.361L43.8319 131.63L42.6218 131.899L41.4117 132.033L40.2016 132.168H38.8571L37.647 132.033H36.4369L35.0924 131.765L33.8823 131.496L32.6722 131.227L31.4621 130.823L30.252 130.42L29.1764 129.882L27.9663 129.344L26.8907 128.807L25.8151 128L24.8739 127.328L23.9327 126.521L22.9915 125.714L22.0504 124.773L21.2436 123.832L20.4369 122.891L19.7646 121.815L19.0924 120.739L18.4201 119.664L17.8823 118.588L17.3445 117.378L16.9411 116.302L16.5378 115.092L16.2688 113.748L15.9999 112.538L15.8655 111.328L15.731 110.118V108.773H7.93272V110.252L8.06717 111.731L8.20162 113.076L8.47053 114.555L8.73944 115.899L9.1428 117.378L9.54616 118.723L10.084 120.067L10.6218 121.412L11.1596 122.622L11.8319 123.966L12.6386 125.176L13.4453 126.386L14.252 127.597L15.0588 128.672L15.9999 129.748L17.0756 130.823L18.1512 131.765L19.2268 132.706L20.3025 133.647L21.5125 134.454L22.7226 135.26L23.9327 135.933L25.1428 136.605L26.4873 137.277L27.8319 137.815L29.1764 138.353L30.5209 138.756L31.8655 139.025L33.3445 139.428L34.689 139.563L36.168 139.697L37.647 139.832H38.9915H40.4705L41.9495 139.697L43.294 139.563L44.773 139.428L46.1176 139.025L47.5966 138.756L48.9411 138.353L50.2856 137.815L51.6302 137.277L52.8403 136.605L54.1848 135.933L55.3949 135.26L56.605 134.454L57.815 133.647L58.8907 132.706L59.9663 131.765L61.0419 130.823L61.9831 129.748L62.9243 128.672L63.8655 127.597L64.6722 126.386L65.4789 125.176L66.1512 123.966L66.8234 122.622L67.4957 121.412L68.0335 120.067L68.4369 118.723L68.9747 117.378L69.2436 115.899L69.5125 114.555L69.7814 113.076L69.9159 111.731L70.0503 110.252V108.773L0.134399 31.1934V42.6219Z" fill="white"/>
<path d="M77.8489 108.773L7.93298 31.1932V29.7142L8.06744 28.2352L8.20189 26.8907L8.4708 25.4117L8.7397 24.0672L9.14307 22.5882L9.54643 21.2437L10.0842 19.8991L10.6221 18.5546L11.1599 17.3445L11.8321 16L12.6389 14.7899L13.4456 13.5798L14.2523 12.3697L15.059 11.2941L16.0002 10.2185L17.0758 9.14284L18.1515 8.20166L19.2271 7.26049L20.3027 6.31931L21.5128 5.51259L22.7229 4.70587L23.933 4.0336L25.1431 3.36134L26.4876 2.68907L27.8321 2.15126L29.1767 1.61344L30.5212 1.21008L31.8657 0.941175L33.3447 0.537813L34.6893 0.403362L36.1683 0.134454H37.6473L38.9918 0L40.4708 0.134454H41.9498L43.2943 0.403362L44.7733 0.537813L46.1178 0.941175L47.5968 1.21008L48.9414 1.61344L50.2859 2.15126L51.6304 2.68907L52.8405 3.36134L54.1851 4.0336L55.3951 4.70587L56.6052 5.51259L57.8153 6.31931L58.8909 7.26049L59.9666 8.20166L61.0422 9.14284L61.9834 10.2185L62.9246 11.2941L63.8657 12.3697L64.6725 13.5798L65.4792 14.7899L66.1514 16L66.8237 17.3445L67.496 18.5546L68.0338 19.8991L68.4372 21.2437L68.975 22.5882L69.2439 24.0672L69.5128 25.4117L69.7817 26.8907L69.9162 28.2352L70.0506 29.7142V31.1932H62.3867L62.2523 29.8487V28.6386L61.9834 27.4285L61.8489 26.084L61.4456 24.8739L61.1767 23.6638L60.6388 22.5882L60.2355 21.3781L59.6977 20.3025L59.0254 19.2268L58.3531 18.1512L57.6809 17.0756L56.8741 16.1344L55.933 15.1932L55.1262 14.2521L54.1851 13.4453L53.2439 12.6386L52.1683 11.8319L51.0926 11.1596L50.017 10.6218L48.9414 10.084L47.7313 9.5462L46.5212 9.14284L45.3111 8.73948L44.101 8.33612L42.891 8.20166L41.6809 7.93275H40.4708L39.1262 7.7983H37.9162L36.7061 7.93275L35.3615 8.06721L34.1515 8.33612L32.9414 8.60502L31.7313 9.00838L30.5212 9.41174L29.4456 9.94956L28.2355 10.4874L27.1599 11.0252L26.0842 11.6975L25.1431 12.5042L24.0674 13.1764L23.1263 14.1176L22.3195 14.9243L21.3784 15.8655L20.5716 16.8067L19.8994 17.8823L19.2271 18.9579L18.5548 20.0336L18.017 21.1092L17.4792 22.3193L17.0758 23.3949L16.6725 24.605L16.2691 25.8151L16.1347 27.1596L15.8658 28.3697L77.8489 97.2099V108.773Z" fill="white"/>
<path d="M123.294 172.1L123.966 172.235L124.639 172.369L125.311 172.235L125.983 172.1L126.521 171.697L127.059 171.294L127.462 170.756L127.865 170.218L128 169.546L128.134 168.874H142.924H157.714C157.714 168.874 157.983 168.874 158.117 168.739C158.252 168.605 158.521 168.47 158.521 168.47C158.655 168.336 158.655 168.201 158.79 168.067C158.924 167.932 158.924 167.529 158.924 167.529V164.571V161.613H157.849H156.907V163.495V165.378H155.428H153.949V163.495V161.613H152.874H151.798V163.495V165.378H150.185H148.706V163.495V161.613H147.63H146.554V163.495V165.378H142.655H138.756C138.756 165.378 138.891 165.109 139.16 164.84C139.294 164.571 139.563 164.168 139.697 164.033C139.832 163.899 140.235 163.764 140.639 163.63C141.042 163.495 141.311 163.361 141.311 163.361L139.025 161.613L136.739 159.865L134.588 161.613L132.437 163.361C132.437 163.361 132.706 163.495 133.109 163.63C133.512 163.764 133.781 163.899 134.05 164.033C134.185 164.168 134.454 164.571 134.723 164.84C134.991 165.109 135.126 165.378 135.126 165.378H131.899H128.672V163.495V161.748V161.613V161.479H128.538H128.403H128.269H128.134C128.134 161.479 127.865 161.748 127.596 162.016C127.328 162.285 126.924 162.689 126.655 162.823C126.386 162.958 126.118 163.092 125.714 163.361C125.311 163.495 125.042 163.764 124.773 163.764C124.639 163.899 124.37 163.899 124.101 164.033C123.832 164.168 123.563 164.302 123.428 164.302C123.294 164.437 123.025 164.571 122.756 164.84C122.487 165.109 122.353 165.243 122.218 165.378C122.084 165.512 121.949 165.781 121.815 166.05C121.681 166.319 121.546 166.588 121.546 166.857C121.546 166.991 121.412 167.395 121.412 167.798C121.412 168.201 121.412 168.47 121.412 168.47H123.697H125.983L125.849 169.143L125.714 169.815L125.311 170.353L124.907 170.89L124.235 171.294L123.294 172.1Z" fill="white"/>
<path d="M91.2943 162.017C91.6976 162.286 92.5043 162.959 92.7733 163.228C93.0422 163.631 93.7144 164.975 93.7144 164.975V165.244L93.4455 165.379H63.3279V161.749L63.1934 161.48H62.9245L62.7901 161.614C62.7901 161.614 61.7144 162.69 61.3111 162.959C60.9077 163.228 59.9665 163.631 59.5632 163.9C59.1598 164.034 58.0842 164.572 58.0842 164.572C58.0842 164.572 57.143 165.379 57.0086 165.648C56.7396 165.917 56.3363 166.723 56.2018 167.127C56.0674 167.53 56.0674 168.74 56.0674 168.74H60.7733H60.9077V168.875C60.9077 168.875 60.6388 169.95 60.5044 170.219C60.3699 170.488 59.8321 171.16 59.5632 171.429C59.2943 171.698 58.3531 172.101 58.3531 172.101C58.3531 172.101 59.2943 172.37 59.6976 172.37C60.101 172.37 60.7733 172.236 61.0422 172.101C61.3111 171.967 61.9833 171.564 62.1178 171.295C62.3867 171.026 62.7901 170.488 62.9245 170.219C63.059 169.95 63.1934 169.009 63.1934 169.009V168.875H63.3279H97.3447V166.723C97.3447 166.723 97.0758 165.11 96.9413 164.706C96.8069 164.169 96.269 163.228 95.8657 162.824C95.5968 162.421 94.7901 161.614 94.3867 161.345C93.9833 161.076 93.0422 160.538 92.5043 160.404C91.9665 160.27 90.3531 160.001 90.3531 160.001H76.5043L95.1934 153.547H89.8153L70.185 160.404V161.883H89.5464C89.4119 161.345 90.8909 161.749 91.2943 162.017Z" fill="white"/>
<path d="M0.134399 166.318C0.134399 166.318 0.268854 167.259 0.403308 167.528C0.537762 167.797 1.07557 168.335 1.34448 168.469C1.61339 168.604 2.55457 168.738 2.55457 168.738H49.8823C49.8823 168.738 50.8235 168.604 51.0924 168.469C51.3613 168.335 51.7646 167.797 51.8991 167.528C52.0335 167.259 52.168 166.318 52.168 166.318V159.73H50.0167V165.377H47.3277V161.478H45.1764V165.377H42.4873V161.478H40.3361V165.377H37.647V161.478H35.4957V165.377H30.5209V153.142H28.2352V165.377H22.8571V161.478H20.5714V165.377H2.55457V161.612H0.134399V166.318Z" fill="white"/>
<path d="M9.0084 185.949C9.0084 185.949 9.81512 186.084 9.94958 186.218C10.2185 186.352 10.6218 186.756 10.7563 187.025C10.8908 187.294 11.0252 187.697 11.0252 187.966C11.0252 188.235 10.8908 188.773 10.7563 189.042C10.6218 189.31 10.2185 189.579 9.94958 189.714C9.68067 189.848 9.0084 189.983 9.0084 189.983H1.61345L0.268908 191.999H12.2353L13.4454 191.193L13.042 191.999H16.8067L21.6471 180.302L26.4874 191.999H30.1176L24.2017 177.747H18.958L14.6555 187.966C14.6555 187.966 14.521 186.756 14.2521 186.352C14.1176 185.949 13.5798 185.277 13.3109 185.008C13.042 184.739 12.2353 184.336 11.8319 184.201C11.6975 183.663 10.3529 183.663 10.3529 183.663H6.05042C6.05042 183.663 5.2437 183.529 5.10924 183.394C4.84034 183.26 4.57143 182.857 4.43697 182.588C4.30252 182.319 4.16807 181.915 4.16807 181.647C4.16807 181.378 4.30252 180.974 4.43697 180.705C4.57143 180.437 4.97479 180.168 5.10924 180.033C5.37815 179.899 6.05042 179.764 6.05042 179.764H13.4454L14.9244 177.479H3.76471C3.76471 177.479 2.55462 177.747 2.28571 178.016C2.01681 178.151 1.34454 178.689 1.07563 179.092C0.806724 179.361 0.403362 180.033 0.268908 180.437C0.134455 180.84 0 181.647 0 181.915C0 182.319 0.268909 182.991 0.403363 183.394C0.537816 183.798 1.07563 184.47 1.34454 184.739C1.61344 185.008 2.28572 185.411 2.55462 185.546C2.95798 185.68 4.03361 185.949 4.03361 185.949" fill="white"/>
<path d="M112.672 161.479H103.664V163.361H112.672C112.672 163.361 113.479 163.764 113.748 163.899C114.017 164.168 114.286 164.974 114.286 164.974V165.243H114.151H102.454V168.605H116.975V165.512C116.975 165.512 116.706 164.302 116.571 164.033C116.437 163.63 116.034 162.957 115.765 162.689C115.496 162.42 114.824 161.882 114.555 161.747C113.882 161.747 112.672 161.479 112.672 161.479Z" fill="white"/>
<path d="M134.991 186.487C134.991 186.487 134.319 188.235 134.05 188.773C133.647 189.31 132.84 190.252 132.302 190.655C131.764 191.058 130.151 191.865 130.151 191.865H125.311C125.311 191.865 123.563 191.058 123.025 190.655C122.487 190.252 121.68 189.31 121.412 188.773C121.008 188.235 120.336 186.487 120.336 186.487V177.479H123.832V187.428C123.832 187.428 124.504 188.369 124.773 188.638C125.042 188.907 125.714 189.31 126.117 189.445C126.521 189.579 127.328 189.714 127.596 189.714C128 189.714 128.807 189.579 129.21 189.445C129.613 189.31 130.286 188.907 130.554 188.638C130.823 188.369 131.496 187.428 131.496 187.428V177.479H134.991V186.487Z" fill="white"/>
<path d="M113.075 185.949C113.075 185.949 113.882 186.083 114.017 186.218C114.286 186.352 114.689 186.755 114.823 187.024C114.958 187.293 115.092 187.697 115.092 187.966C115.092 188.234 114.958 188.772 114.823 189.041C114.689 189.31 114.286 189.579 114.017 189.713C113.748 189.848 113.075 189.982 113.075 189.982H105.681L104.336 191.999H116.302C116.302 191.999 117.378 191.327 117.647 191.058C117.916 190.789 118.454 190.117 118.588 189.713C118.723 189.31 118.857 188.503 118.857 187.966C118.857 187.562 118.723 186.755 118.454 186.352C118.319 185.949 117.781 185.276 117.512 185.008C117.244 184.739 116.437 184.335 116.033 184.201C115.63 184.066 114.286 183.932 114.286 183.932H109.983C109.983 183.932 109.176 183.797 109.042 183.663C108.773 183.529 108.504 183.125 108.37 182.856C108.235 182.587 108.101 182.184 108.101 181.915C108.101 181.646 108.235 181.243 108.37 180.974C108.504 180.705 108.907 180.436 109.042 180.302C109.311 180.167 109.983 180.033 109.983 180.033H117.378L118.857 177.747H107.697C107.697 177.747 106.487 178.016 106.218 178.285C105.949 178.419 105.277 178.957 105.008 179.361C104.739 179.629 104.336 180.302 104.202 180.705C104.067 181.108 103.933 181.915 103.933 182.184C103.933 182.587 104.202 183.26 104.336 183.663C104.47 184.066 105.008 184.739 105.277 185.008C105.546 185.276 106.218 185.68 106.487 185.814C106.891 185.949 107.966 186.218 107.966 186.218H112.941" fill="white"/>
<path d="M60.7731 186.756V182.857C60.7731 182.857 60.9076 181.915 61.042 181.647C61.1765 181.378 61.5799 180.84 61.7143 180.705C61.9832 180.437 62.3866 180.168 62.6555 180.033C62.9244 179.899 63.8656 179.764 63.8656 179.764H70.1849L72.2017 177.479H61.1765C61.1765 177.479 59.9664 177.747 59.563 177.882C59.1597 178.016 58.4874 178.554 58.2185 178.823C57.9496 179.092 57.4118 180.168 57.4118 180.168L57.2773 180.302L57.1429 180.168C57.1429 180.168 56.6051 179.092 56.3362 178.823C56.0672 178.554 55.395 178.016 54.9916 177.882C54.5883 177.747 53.3782 177.479 53.3782 177.479H40.0673V187.428C40.0673 187.428 39.395 188.369 39.1261 188.638C38.8572 188.907 38.1849 189.31 37.7816 189.445C37.3782 189.579 36.5715 189.714 36.3026 189.714C35.8992 189.714 35.0925 189.579 34.6891 189.445C34.2858 189.31 33.6135 188.907 33.3446 188.638C33.0757 188.369 32.4034 187.428 32.4034 187.428V177.479H29.1765V186.487C29.1765 186.487 29.8488 188.235 30.1177 188.773C30.3866 189.31 31.3278 190.252 31.8656 190.655C32.4034 191.058 34.0168 191.865 34.0168 191.865H38.8572C38.8572 191.865 40.6051 191.058 41.0084 190.655C41.5463 190.252 42.353 189.31 42.7563 188.773C43.1597 188.235 43.832 186.487 43.832 186.487V179.764H51.0925C51.0925 179.764 52.0336 179.899 52.3026 180.033C52.5715 180.168 53.1093 180.437 53.3782 180.705C53.6471 180.974 53.916 181.378 54.0504 181.647C54.1849 181.915 54.3194 182.857 54.3194 182.857V186.756C54.3194 186.756 54.1849 187.697 54.0504 187.966C53.916 188.235 53.6471 188.773 53.3782 189.042C53.1093 189.31 52.7059 189.579 52.3026 189.714C52.0336 189.848 51.0925 189.983 51.0925 189.983H44.9076L43.6975 191.999H53.6471C53.6471 191.999 54.8572 191.731 55.2605 191.596C55.6639 191.462 56.3362 190.924 56.6051 190.655C56.874 190.386 57.4118 189.31 57.4118 189.31H57.5462H57.6807C57.6807 189.31 58.2185 190.386 58.4874 190.655C58.7563 190.924 59.4286 191.462 59.832 191.596C60.2353 191.731 61.4454 191.999 61.4454 191.999H70.5883L72.4706 189.983H64C64 189.983 63.0588 189.848 62.7899 189.714C62.521 189.579 61.9832 189.31 61.8488 189.042C61.5799 188.773 61.311 188.369 61.1765 187.966C60.9076 187.563 60.7731 186.756 60.7731 186.756Z" fill="white"/>
<path d="M10.0841 160.268C10.0841 160.94 9.54631 161.344 9.00849 161.344C8.33622 161.344 7.93286 160.806 7.93286 160.268C7.93286 159.596 8.47068 159.192 9.00849 159.192C9.54631 159.192 10.0841 159.596 10.0841 160.268Z" fill="white"/>
<path d="M14.7902 160.268C14.7902 160.94 14.2524 161.344 13.7145 161.344C13.0423 161.344 12.6389 160.806 12.6389 160.268C12.6389 159.596 13.1767 159.192 13.7145 159.192C14.3868 159.192 14.7902 159.596 14.7902 160.268Z" fill="white"/>
<path d="M52.1681 155.966C52.1681 156.639 51.6303 157.042 51.0925 157.042C50.4202 157.042 50.0168 156.504 50.0168 155.966C50.0168 155.294 50.5547 154.891 51.0925 154.891C51.6303 154.891 52.1681 155.294 52.1681 155.966Z" fill="white"/>
<path d="M147.899 189.714L146.958 191.731H136.471V177.479H140.504V189.714H147.899Z" fill="white"/>
<path d="M149.244 191.731V179.63H143.462L144.941 177.479H159.059L157.58 179.63H152.739V191.731H149.244Z" fill="white"/>
<path d="M98.2854 191.731L91.2938 181.915V191.731H87.6636V177.479H92.235L99.361 187.563V177.479H102.991V191.731H98.2854Z" fill="white"/>
<path d="M86.4539 182.454C86.3194 181.916 85.7816 180.706 85.3783 180.303C84.9749 179.765 84.1682 178.958 83.6304 178.555C83.0926 178.151 82.0169 177.614 81.4791 177.345C80.9413 177.076 79.7312 176.941 79.0589 176.941C78.5211 176.941 77.3111 177.076 76.6388 177.345C76.101 177.479 74.8909 178.151 74.4875 178.555C73.9497 178.958 73.143 179.765 72.8741 180.303C72.4707 180.841 71.9329 181.916 71.7984 182.454C71.664 182.992 71.5295 184.336 71.5295 184.874C71.5295 185.412 71.7985 186.622 72.0674 187.294C72.3363 187.832 72.8741 188.908 73.2774 189.446C73.6808 189.983 74.622 190.656 75.1598 191.059C75.6976 191.328 77.3111 192 77.3111 192H81.0758C81.0758 192 82.8237 191.328 83.3615 191.059C83.8993 190.79 84.8405 189.983 85.1094 189.446C85.5127 188.908 86.0505 187.832 86.3194 187.294C86.5884 186.757 86.8573 185.546 86.8573 184.874C86.8573 184.202 86.7228 182.992 86.4539 182.454ZM79.4623 190.387C76.9077 190.387 74.8909 187.698 74.8909 184.471C74.8909 181.244 76.9077 178.555 79.4623 178.555C82.0169 178.555 84.0337 181.244 84.0337 184.471C84.0337 187.832 82.0169 190.387 79.4623 190.387Z" fill="white"/>
</svg>
