<svg width="112" height="100" viewBox="0 0 112 100" fill="none" xmlns="http://www.w3.org/2000/svg">
<path d="M94.3923 39.707L89.043 39.6145L90.6786 38.0332L96.028 38.1257L94.3923 39.707Z" fill="#8DC540" fill-opacity="0.4"/>
<path d="M91.5129 42.4883L86.1641 42.3957L87.7997 40.8145L93.1485 40.907L91.5129 42.4883Z" fill="#8DC540" fill-opacity="0.4"/>
<path d="M90.9959 1.55462L85.838 1.4659L84.8398 0.432617L89.9978 0.521339L90.9959 1.55462Z" fill="#8DC540" fill-opacity="0.4"/>
<path d="M93.7775 4.4357L88.6196 4.34698L87.0391 2.70996L92.1975 2.79922L93.7775 4.4357Z" fill="#8DC540" fill-opacity="0.4"/>
<path d="M96.5593 7.31558L91.4008 7.22632L89.8203 5.58984L94.9788 5.6791L96.5593 7.31558Z" fill="#8DC540" fill-opacity="0.4"/>
<path d="M97.2698 36.9249L91.9199 36.8329L106.438 22.8004L92.5996 8.46973L97.7586 8.55899L99.3391 10.196L111.69 22.9865H111.69L98.9055 35.3441L97.2698 36.9249Z" fill="#8DC540" fill-opacity="0.4"/>
<path d="M88.6339 45.2715L83.2852 45.1789L84.9208 43.5977L90.2702 43.6902L88.6339 45.2715Z" fill="#8DC540" fill-opacity="0.4"/>
<path d="M89.2209 36.7854L83.3638 36.6843L83.3724 36.1795L67.584 35.9074L67.5943 35.308L83.3827 35.5801L83.3914 35.0754L87.1294 35.1398L88.3422 33.9669L86.2134 33.9301L86.222 33.4259L70.433 33.1533L70.4433 32.5539L86.2323 32.8265L86.241 32.3218L89.9779 32.3862L89.9784 32.3856L91.2215 31.1852L89.0916 31.1484L89.1003 30.6436L73.3113 30.371L73.3216 29.7716L89.1106 30.0442L89.1198 29.5395L92.8572 29.6039L94.0998 28.4029L91.9704 28.3661L91.9791 27.8614L76.1895 27.5887L76.1998 26.9893L91.9894 27.262L91.998 26.7572L95.7355 26.8216L96.978 25.6206L94.8481 25.5838L94.8573 25.0791L79.0678 24.8064L79.0786 24.2076L94.8676 24.4797L94.8763 23.9749L98.6142 24.0393L99.9136 22.7826L98.658 21.4816L94.92 21.4172L94.9287 20.9124L79.1397 20.6398L79.15 20.0404L94.939 20.313L94.9482 19.8083L97.0775 19.8451L95.8771 18.6019L92.1397 18.537L92.1483 18.0323L76.3588 17.7601L76.3691 17.1607L92.1586 17.4328L92.1672 16.9286L94.2971 16.9649L93.0962 15.7217L89.3588 15.6573L89.3674 15.1526L73.5779 14.8805L73.5881 14.2811L89.3777 14.5532L89.3863 14.0485L91.5162 14.0852L90.3153 12.8421H90.3147L86.5778 12.7777L86.5865 12.2729L70.7975 12.0008L70.8078 11.4014L86.5968 11.6735L86.6054 11.1688L88.7348 11.2056L87.5625 9.99162L83.825 9.92724L83.8337 9.4225L68.0447 9.14985L68.0549 8.55098L83.844 8.82309L83.8526 8.31836L89.9006 8.42223L103.739 22.7529L89.2209 36.7854Z" fill="#8DC540" fill-opacity="0.4"/>
<path d="M88.702 7.17936L81.0465 7.04736L81.0552 6.54262L65.2656 6.27051L65.2759 5.6711L81.0654 5.94376L81.0741 5.43848L87.1215 5.54289L88.702 7.17936Z" fill="#8DC540" fill-opacity="0.4"/>
<path d="M80.5847 45.1319L74.7282 45.0308L74.7368 44.5266L58.9473 44.2539L58.9575 43.6545L74.7471 43.9272L74.7557 43.4219L82.2204 43.5506L80.5847 45.1319Z" fill="#8DC540" fill-opacity="0.4"/>
<path d="M75.4835 1.28808L75.4921 0.783884L59.7031 0.511228L59.7118 0L82.1408 0.386802L83.1395 1.42008L75.4835 1.28808Z" fill="#8DC540" fill-opacity="0.4"/>
<path d="M85.9194 4.30002L78.2628 4.16802L78.272 3.66274L62.4824 3.39063L62.4927 2.79122L78.2822 3.06333L78.2909 2.55859L84.3388 2.663L85.9194 4.30002Z" fill="#8DC540" fill-opacity="0.4"/>
<path d="M86.3425 39.5684L80.486 39.4678L80.4946 38.9625L64.7051 38.6899L64.7153 38.0905L80.5049 38.3631L80.5135 37.8584L87.9782 37.9872L86.3425 39.5684Z" fill="#8DC540" fill-opacity="0.4"/>
<path d="M83.4636 42.3497L77.6065 42.2485L77.6152 41.7443L61.8262 41.4717L61.8364 40.8723L77.6255 41.1449L77.6341 40.6396L85.0993 40.7684L83.4636 42.3497Z" fill="#8DC540" fill-opacity="0.4"/>
<path d="M57.0734 56.1115L60.8108 56.1759L60.8195 55.6711L76.6085 55.9432L76.6187 55.3438L60.8297 55.0717L60.8384 54.567L54.971 54.4658L40.7539 68.2073C41.9321 68.2944 43.1104 68.3815 44.2886 68.4686L45.5885 67.2119L49.3259 67.2763L49.3346 66.7716L65.1241 67.0437L65.1344 66.4443L49.3449 66.1722L49.3535 65.6674L47.2242 65.6306L48.4667 64.4296L52.2042 64.494L52.2128 63.9893L68.0024 64.2614L68.0127 63.662L52.2231 63.3899L52.2318 62.8851L50.1024 62.8484L51.345 61.6474L55.0824 61.7118L55.0911 61.207L70.8801 61.4791L70.8904 60.8797L55.1014 60.6076L55.11 60.1029L52.9807 60.0661L54.2232 58.8656L57.9607 58.93L57.9693 58.4253L73.7583 58.6974L73.7686 58.098L57.9796 57.8259L57.9883 57.3211L55.8589 57.2843L56.3066 56.8516L57.0723 56.1115H57.0734Z" fill="#8DC540" fill-opacity="0.4"/>
<path d="M56.3686 53.2671L56.2129 53.2644L56.3713 53.1113L56.3686 53.2671Z" fill="#8DC540" fill-opacity="0.4"/>
<path d="M69.4456 47.8292L61.9707 47.7004L63.6064 46.1191L69.4732 46.2203L69.4645 46.725L85.2541 46.9972L85.2438 47.5966L69.4543 47.3245L69.4456 47.8292Z" fill="#8DC540" fill-opacity="0.4"/>
<path d="M63.6903 53.3936L56.3711 53.2676L56.3738 53.1118L57.851 51.6836L63.7178 51.7848L63.7092 52.29L79.4987 52.5621L79.4885 53.1616L63.6989 52.8894L63.6903 53.3936Z" fill="#8DC540" fill-opacity="0.4"/>
<path d="M66.5672 50.6114L59.0918 50.4827L60.7275 48.9014L66.5954 49.0025L66.5862 49.5073L82.3757 49.7794L82.3654 50.3788L66.5759 50.1067L66.5672 50.6114Z" fill="#8DC540" fill-opacity="0.4"/>
<path d="M59.2727 47.6537L53.9336 47.5618L55.5698 45.9805L60.9083 46.0724L59.2727 47.6537Z" fill="#8DC540" fill-opacity="0.4"/>
<path d="M53.5163 53.2182L48.1777 53.1262L49.8134 51.5449L55.1525 51.6369L53.5163 53.2182Z" fill="#8DC540" fill-opacity="0.4"/>
<path d="M56.3932 50.436L51.0547 50.3435L52.6904 48.7627L58.0289 48.8547L56.3932 50.436Z" fill="#8DC540" fill-opacity="0.4"/>
<path d="M41.6932 75.2305L49.1681 75.3598L47.5325 76.9405L41.6657 76.8394L41.6743 76.3346L25.8848 76.0625L25.895 75.4631L41.6846 75.7358L41.6932 75.2305Z" fill="#8DC540" fill-opacity="0.4"/>
<path d="M47.451 69.666L54.7708 69.7921L54.7681 69.9484L53.2903 71.3761L47.4235 71.2749L47.4321 70.7702L31.6426 70.4975L31.6534 69.8981L47.4424 70.1708L47.451 69.666Z" fill="#8DC540" fill-opacity="0.4"/>
<path d="M44.5721 72.4482L52.0476 72.5775L50.4119 74.1583L44.5446 74.0571L44.5532 73.5529L28.7637 73.2803L28.7739 72.6809L44.5635 72.9535L44.5721 72.4482Z" fill="#8DC540" fill-opacity="0.4"/>
<path d="M51.8661 75.4062L57.2047 75.4982L55.569 77.079L50.2305 76.987L51.8661 75.4062Z" fill="#8DC540" fill-opacity="0.4"/>
<path d="M57.624 69.8418L62.9625 69.9338L61.3268 71.5156L55.9883 71.4231L57.624 69.8418Z" fill="#8DC540" fill-opacity="0.4"/>
<path d="M54.7451 72.624L60.0836 72.716L58.4479 74.2973L53.1094 74.2048L54.7451 72.624Z" fill="#8DC540" fill-opacity="0.4"/>
<path d="M38.0546 68.1606L52.2712 54.4191L46.9322 54.3271L32.5117 68.2656C34.3594 68.2309 36.207 68.1958 38.0546 68.1606Z" fill="#8DC540" fill-opacity="0.4"/>
<path d="M24.5577 87.6427L28.2952 87.7071L28.3038 87.2024L44.0928 87.4745L44.1031 86.8751L28.3141 86.603L28.3228 86.0982L22.4554 85.9971L8.23828 99.7386C9.41651 99.8257 10.5947 99.9128 11.773 99.9999L13.0729 98.7432L16.8103 98.8076L16.819 98.3028L32.6085 98.5749L32.6188 97.9755L16.8292 97.7034L16.8379 97.1987L14.7085 97.1619L15.9511 95.9609L19.6886 96.0253L19.6972 95.5205L35.4868 95.7927L35.497 95.1932L19.7075 94.9211L19.7161 94.4164L17.5868 94.3796L18.8294 93.1786L22.5668 93.243L22.5755 92.7383L38.3645 93.0104L38.3747 92.411L22.5857 92.1389L22.5944 91.6341L20.465 91.5973L21.7076 90.3969L25.4451 90.4613L25.4537 89.9565L41.2427 90.2286L41.253 89.6292L25.464 89.3571L25.4726 88.8524L23.3433 88.8156L23.791 88.3828L24.5567 87.6427H24.5577Z" fill="#8DC540" fill-opacity="0.4"/>
<path d="M36.93 79.3604L29.4551 79.2317L31.0908 77.6504L36.9576 77.7516L36.9489 78.2563L52.7385 78.5284L52.7282 79.1278L36.9386 78.8557L36.93 79.3604Z" fill="#8DC540" fill-opacity="0.4"/>
<path d="M31.1752 84.9249L23.8555 84.7988L23.8582 84.643L25.336 83.2148L31.2028 83.316L31.1941 83.8213L46.9831 84.0934L46.9728 84.6928L31.1838 84.4207L31.1752 84.9249Z" fill="#8DC540" fill-opacity="0.4"/>
<path d="M34.0497 82.1436L26.5742 82.0149L28.2099 80.4336L34.0772 80.5348L34.0686 81.0395L49.8581 81.3116L49.8479 81.911L34.0583 81.6389L34.0497 82.1436Z" fill="#8DC540" fill-opacity="0.4"/>
<path d="M26.7565 79.186L21.418 79.0934L23.0536 77.5127L28.3922 77.6047L26.7565 79.186Z" fill="#8DC540" fill-opacity="0.4"/>
<path d="M20.9987 84.7494L15.6602 84.6575L17.2958 83.0762L22.6344 83.1681L20.9987 84.7494Z" fill="#8DC540" fill-opacity="0.4"/>
<path d="M23.8776 81.9672L18.5391 81.8747L20.1747 80.2939L25.5133 80.3859L23.8776 81.9672Z" fill="#8DC540" fill-opacity="0.4"/>
<path d="M5.54291 99.6919L19.7595 85.9504L14.4204 85.8584L0 99.7968C1.84764 99.7622 3.69528 99.727 5.54291 99.6919Z" fill="#8DC540" fill-opacity="0.4"/>
</svg>
