<svg width="25" height="25" viewBox="0 0 25 25" fill="none" xmlns="http://www.w3.org/2000/svg">
<path d="M19.7917 5.20825H5.20833C4.05774 5.20825 3.125 6.14099 3.125 7.29159V17.7083C3.125 18.8588 4.05774 19.7916 5.20833 19.7916H19.7917C20.9423 19.7916 21.875 18.8588 21.875 17.7083V7.29159C21.875 6.14099 20.9423 5.20825 19.7917 5.20825Z" stroke="#0D6A37" stroke-width="2"/>
<path d="M9.375 15.625C11.1009 15.625 12.5 14.2259 12.5 12.5C12.5 10.7741 11.1009 9.375 9.375 9.375C7.64911 9.375 6.25 10.7741 6.25 12.5C6.25 14.2259 7.64911 15.625 9.375 15.625Z" stroke="#0D6A37" stroke-width="2"/>
<path d="M14.582 10.4167H19.7904" stroke="#0D6A37" stroke-width="2" stroke-linecap="round"/>
<path d="M14.582 14.5833H18.7487" stroke="#0D6A37" stroke-width="2" stroke-linecap="round"/>
</svg>
