<svg width="754" height="675" viewBox="0 0 754 675" fill="none" xmlns="http://www.w3.org/2000/svg">
<path d="M637.154 268.024L601.046 267.399L612.087 256.725L648.195 257.35L637.154 268.024Z" fill="#8DC540" fill-opacity="0.1"/>
<path d="M617.726 286.8L581.621 286.176L592.662 275.502L628.766 276.127L617.726 286.8Z" fill="#8DC540" fill-opacity="0.1"/>
<path d="M614.236 10.4987L579.42 9.89982L572.683 2.92517L607.499 3.52405L614.236 10.4987Z" fill="#8DC540" fill-opacity="0.1"/>
<path d="M633.008 29.9398L598.192 29.3409L587.523 18.291L622.343 18.8935L633.008 29.9398Z" fill="#8DC540" fill-opacity="0.1"/>
<path d="M651.778 49.3777L616.959 48.7752L606.29 37.729L641.11 38.3315L651.778 49.3777Z" fill="#8DC540" fill-opacity="0.1"/>
<path d="M656.585 249.24L620.474 248.619L718.469 153.899L625.062 57.1665L659.885 57.769L670.554 68.8189L753.924 155.155H753.92L667.626 238.569L656.585 249.24Z" fill="#8DC540" fill-opacity="0.1"/>
<path d="M598.294 305.581L562.189 304.957L573.23 294.283L609.338 294.907L598.294 305.581Z" fill="#8DC540" fill-opacity="0.1"/>
<path d="M602.261 248.305L562.726 247.622L562.784 244.215L456.212 242.378L456.281 238.332L562.854 240.169L562.912 236.762L588.144 237.196L596.33 229.28L581.961 229.031L582.019 225.628L475.443 223.787L475.512 219.741L582.089 221.582L582.147 218.175L607.371 218.609L607.375 218.606L615.766 210.503L601.389 210.254L601.447 206.847L494.871 205.007L494.941 200.961L601.517 202.801L601.579 199.394L626.807 199.829L635.194 191.722L620.821 191.474L620.879 188.067L514.3 186.227L514.369 182.181L620.949 184.021L621.007 180.614L646.235 181.049L654.622 172.942L640.246 172.694L640.308 169.287L533.728 167.446L533.801 163.404L640.377 165.241L640.435 161.834L665.667 162.268L674.438 153.785L665.963 145.003L640.731 144.569L640.789 141.162L534.213 139.321L534.283 135.275L640.859 137.116L640.921 133.709L655.294 133.957L647.191 125.565L621.963 125.127L622.022 121.72L515.442 119.883L515.511 115.837L622.091 117.674L622.15 114.271L636.526 114.516L628.42 106.124L603.192 105.689L603.251 102.283L496.671 100.446L496.74 96.3997L603.32 98.2365L603.378 94.8295L617.755 95.0778L609.649 86.6863H609.645L584.421 86.2518L584.479 82.8448L477.903 81.008L477.972 76.962L584.549 78.7988L584.607 75.3918L598.98 75.6401L591.067 67.4458L565.839 67.0112L565.898 63.6042L459.322 61.7638L459.391 57.7214L565.967 59.5582L566.026 56.1512L606.849 56.8524L700.257 153.585L602.261 248.305Z" fill="#8DC540" fill-opacity="0.1"/>
<path d="M598.746 48.461L547.071 47.57L547.13 44.163L440.55 42.3262L440.619 38.2802L547.199 40.1206L547.257 36.71L588.077 37.4147L598.746 48.461Z" fill="#8DC540" fill-opacity="0.1"/>
<path d="M543.976 304.642L504.444 303.959L504.503 300.556L397.923 298.716L397.992 294.67L504.572 296.51L504.63 293.099L555.017 293.969L543.976 304.642Z" fill="#8DC540" fill-opacity="0.1"/>
<path d="M509.529 8.69457L509.587 5.29123L403.011 3.4508L403.069 0L554.466 2.61093L561.207 9.58558L509.529 8.69457Z" fill="#8DC540" fill-opacity="0.1"/>
<path d="M579.979 29.0268L528.297 28.1357L528.359 24.7251L421.779 22.8883L421.849 18.8423L528.428 20.6791L528.487 17.2721L569.311 17.9769L579.979 29.0268Z" fill="#8DC540" fill-opacity="0.1"/>
<path d="M582.832 267.085L543.301 266.406L543.359 262.995L436.779 261.155L436.849 257.109L543.428 258.949L543.487 255.542L593.873 256.411L582.832 267.085Z" fill="#8DC540" fill-opacity="0.1"/>
<path d="M563.405 285.862L523.869 285.179L523.928 281.776L417.352 279.935L417.421 275.889L523.997 277.73L524.056 274.319L574.446 275.188L563.405 285.862Z" fill="#8DC540" fill-opacity="0.1"/>
<path d="M385.262 378.749L410.49 379.183L410.548 375.777L517.125 377.613L517.194 373.567L410.618 371.73L410.676 368.323L371.072 367.641L275.105 460.396C283.059 460.984 291.012 461.572 298.965 462.16L307.739 453.677L332.967 454.112L333.025 450.705L439.605 452.541L439.674 448.495L333.095 446.659L333.153 443.252L318.78 443.003L327.167 434.897L352.395 435.331L352.454 431.924L459.033 433.761L459.103 429.715L352.523 427.878L352.581 424.471L338.208 424.223L346.595 416.116L371.823 416.551L371.882 413.144L478.458 414.981L478.527 410.935L371.951 409.098L372.009 405.691L357.636 405.442L366.024 397.34L391.252 397.774L391.31 394.367L497.886 396.204L497.956 392.158L391.379 390.321L391.438 386.914L377.065 386.666L380.087 383.744L385.255 378.749H385.262Z" fill="#8DC540" fill-opacity="0.1"/>
<path d="M380.513 359.553L379.462 359.534L380.531 358.501L380.513 359.553Z" fill="#8DC540" fill-opacity="0.1"/>
<path d="M468.774 322.846L418.318 321.977L429.359 311.303L468.96 311.986L468.902 315.393L575.482 317.23L575.412 321.276L468.833 319.439L468.774 322.846Z" fill="#8DC540" fill-opacity="0.1"/>
<path d="M429.917 360.403L380.513 359.552L380.531 358.501L390.502 348.86L430.103 349.543L430.045 352.954L536.625 354.791L536.556 358.837L429.976 357L429.917 360.403Z" fill="#8DC540" fill-opacity="0.1"/>
<path d="M449.345 341.626L398.886 340.757L409.927 330.084L449.535 330.766L449.473 334.173L556.053 336.01L555.983 340.056L449.404 338.22L449.345 341.626Z" fill="#8DC540" fill-opacity="0.1"/>
<path d="M400.105 321.663L364.066 321.042L375.111 310.368L411.146 310.989L400.105 321.663Z" fill="#8DC540" fill-opacity="0.1"/>
<path d="M361.245 359.22L325.21 358.599L336.251 347.925L372.29 348.546L361.245 359.22Z" fill="#8DC540" fill-opacity="0.1"/>
<path d="M380.673 340.443L344.638 339.819L355.679 329.148L391.714 329.769L380.673 340.443Z" fill="#8DC540" fill-opacity="0.1"/>
<path d="M281.452 507.809L331.908 508.682L320.867 519.352L281.266 518.669L281.324 515.262L174.744 513.425L174.813 509.379L281.393 511.22L281.452 507.809Z" fill="#8DC540" fill-opacity="0.1"/>
<path d="M320.309 470.252L369.717 471.103L369.699 472.158L359.724 481.795L320.123 481.112L320.181 477.705L213.602 475.864L213.675 471.818L320.251 473.659L320.309 470.252Z" fill="#8DC540" fill-opacity="0.1"/>
<path d="M300.88 489.029L351.34 489.901L340.299 500.571L300.694 499.889L300.753 496.485L194.173 494.645L194.242 490.599L300.822 492.439L300.88 489.029Z" fill="#8DC540" fill-opacity="0.1"/>
<path d="M350.125 508.996L386.16 509.617L375.119 520.287L339.084 519.666L350.125 508.996Z" fill="#8DC540" fill-opacity="0.1"/>
<path d="M388.98 471.435L425.015 472.055L413.975 482.733L377.939 482.108L388.98 471.435Z" fill="#8DC540" fill-opacity="0.1"/>
<path d="M369.553 490.215L405.588 490.836L394.547 501.51L358.512 500.885L369.553 490.215Z" fill="#8DC540" fill-opacity="0.1"/>
<path d="M256.895 460.086L352.858 367.331L316.819 366.71L219.48 460.795C231.952 460.561 244.424 460.323 256.895 460.086Z" fill="#8DC540" fill-opacity="0.1"/>
<path d="M165.781 591.589L191.009 592.024L191.067 588.617L297.643 590.453L297.713 586.407L191.136 584.571L191.195 581.164L151.59 580.481L55.624 673.236C63.5771 673.824 71.5302 674.412 79.4832 675L88.2575 666.517L113.485 666.952L113.544 663.545L220.124 665.382L220.193 661.335L113.613 659.499L113.672 656.092L99.2984 655.843L107.686 647.737L132.914 648.171L132.972 644.764L239.552 646.601L239.621 642.555L133.041 640.718L133.1 637.311L118.727 637.063L127.114 628.956L152.342 629.391L152.4 625.984L258.976 627.821L259.046 623.775L152.47 621.938L152.528 618.531L138.155 618.283L146.542 610.18L171.77 610.614L171.829 607.207L278.405 609.044L278.474 604.998L171.898 603.161L171.956 599.754L157.583 599.506L160.605 596.585L165.773 591.589H165.781Z" fill="#8DC540" fill-opacity="0.1"/>
<path d="M249.294 535.686L198.838 534.817L209.879 524.143L249.48 524.826L249.421 528.233L356.001 530.07L355.932 534.116L249.352 532.279L249.294 535.686Z" fill="#8DC540" fill-opacity="0.1"/>
<path d="M210.437 573.244L161.028 572.393L161.047 571.341L171.022 561.701L210.623 562.384L210.564 565.794L317.141 567.631L317.071 571.677L210.495 569.84L210.437 573.244Z" fill="#8DC540" fill-opacity="0.1"/>
<path d="M229.865 554.467L179.405 553.598L190.446 542.924L230.051 543.607L229.992 547.014L336.572 548.85L336.503 552.897L229.923 551.06L229.865 554.467Z" fill="#8DC540" fill-opacity="0.1"/>
<path d="M180.621 534.503L144.586 533.878L155.627 523.208L191.662 523.829L180.621 534.503Z" fill="#8DC540" fill-opacity="0.1"/>
<path d="M141.765 572.06L105.729 571.439L116.77 560.766L152.806 561.386L141.765 572.06Z" fill="#8DC540" fill-opacity="0.1"/>
<path d="M161.192 553.283L125.157 552.659L136.198 541.989L172.233 542.609L161.192 553.283Z" fill="#8DC540" fill-opacity="0.1"/>
<path d="M37.4148 672.922L133.377 580.166L97.3384 579.546L0 673.63C12.4716 673.397 24.9432 673.159 37.4148 672.922Z" fill="#8DC540" fill-opacity="0.1"/>
</svg>
