<svg width="457" height="409" viewBox="0 0 457 409" fill="none" xmlns="http://www.w3.org/2000/svg">
<path d="M386.068 162.403L364.189 162.024L370.879 155.557L392.758 155.935L386.068 162.403Z" fill="#A9D159" fill-opacity="0.45"/>
<path d="M374.296 173.78L352.419 173.401L359.109 166.934L380.986 167.312L374.296 173.78Z" fill="#A9D159" fill-opacity="0.45"/>
<path d="M372.182 6.36121L351.086 5.99834L347.003 1.77222L368.099 2.13509L372.182 6.36121Z" fill="#A9D159" fill-opacity="0.45"/>
<path d="M383.556 18.1413L362.46 17.7784L355.996 11.083L377.094 11.4481L383.556 18.1413Z" fill="#A9D159" fill-opacity="0.45"/>
<path d="M394.93 29.9191L373.832 29.554L367.367 22.8608L388.466 23.2259L394.93 29.9191Z" fill="#A9D159" fill-opacity="0.45"/>
<path d="M397.843 151.021L375.961 150.645L435.339 93.2512L378.741 34.6387L399.842 35.0038L406.306 41.6992L456.822 94.0123H456.82L404.533 144.555L397.843 151.021Z" fill="#A9D159" fill-opacity="0.45"/>
<path d="M362.522 185.159L340.645 184.781L347.335 178.313L369.214 178.692L362.522 185.159Z" fill="#A9D159" fill-opacity="0.45"/>
<path d="M364.926 150.454L340.97 150.041L341.006 147.976L276.431 146.863L276.473 144.412L341.048 145.525L341.083 143.46L356.371 143.724L361.332 138.927L352.625 138.776L352.66 136.714L288.083 135.599L288.125 133.147L352.702 134.262L352.738 132.198L368.022 132.461L368.024 132.459L373.108 127.549L364.397 127.399L364.433 125.334L299.855 124.219L299.897 121.768L364.475 122.883L364.512 120.818L379.798 121.082L384.881 116.17L376.171 116.019L376.207 113.955L311.627 112.84L311.669 110.388L376.249 111.503L376.284 109.439L391.571 109.702L396.653 104.79L387.941 104.64L387.979 102.575L323.399 101.46L323.444 99.0108L388.021 100.124L388.056 98.0594L403.345 98.3227L408.659 93.1827L403.524 87.8614L388.235 87.598L388.271 85.5337L323.694 84.4185L323.736 81.9669L388.313 83.0821L388.35 81.0177L397.06 81.1681L392.15 76.0835L376.864 75.818L376.899 73.7536L312.32 72.6407L312.362 70.1891L376.941 71.302L376.976 69.2399L385.688 69.3881L380.776 64.3035L365.49 64.0402L365.525 61.9758L300.946 60.8629L300.988 58.4113L365.567 59.5242L365.602 57.4598L374.314 57.6103L369.402 52.5257H369.4L354.116 52.2624L354.151 50.198L289.574 49.085L289.616 46.6335L354.193 47.7464L354.228 45.682L362.938 45.8325L358.143 40.8673L342.857 40.604L342.892 38.5397L278.315 37.4245L278.357 34.9751L342.934 36.0881L342.969 34.0237L367.706 34.4485L424.304 93.061L364.926 150.454Z" fill="#A9D159" fill-opacity="0.45"/>
<path d="M362.796 29.3637L331.485 28.8238L331.52 26.7594L266.941 25.6464L266.983 23.1948L331.562 24.31L331.598 22.2434L356.332 22.6705L362.796 29.3637Z" fill="#A9D159" fill-opacity="0.45"/>
<path d="M329.61 184.591L305.656 184.177L305.692 182.115L241.112 181L241.154 178.548L305.734 179.663L305.769 177.597L336.3 178.123L329.61 184.591Z" fill="#A9D159" fill-opacity="0.45"/>
<path d="M308.737 5.26827L308.772 3.2061L244.195 2.09093L244.23 0L335.966 1.58203L340.05 5.80815L308.737 5.26827Z" fill="#A9D159" fill-opacity="0.45"/>
<path d="M351.424 17.5883L320.109 17.0484L320.146 14.9818L255.567 13.8688L255.609 11.4173L320.188 12.5302L320.224 10.4658L344.96 10.8929L351.424 17.5883Z" fill="#A9D159" fill-opacity="0.45"/>
<path d="M353.154 161.834L329.2 161.422L329.236 159.356L264.656 158.24L264.698 155.789L329.278 156.904L329.313 154.84L359.844 155.366L353.154 161.834Z" fill="#A9D159" fill-opacity="0.45"/>
<path d="M341.382 173.211L317.426 172.798L317.461 170.735L252.884 169.62L252.926 167.169L317.503 168.284L317.539 166.217L348.072 166.744L341.382 173.211Z" fill="#A9D159" fill-opacity="0.45"/>
<path d="M233.44 229.494L248.727 229.757L248.762 227.693L313.339 228.806L313.381 226.354L248.804 225.241L248.839 223.177L224.842 222.763L166.694 278.966C171.513 279.322 176.332 279.679 181.151 280.035L186.467 274.895L201.753 275.158L201.789 273.094L266.368 274.207L266.41 271.755L201.831 270.642L201.866 268.578L193.157 268.427L198.239 263.515L213.525 263.779L213.561 261.714L278.14 262.827L278.182 260.376L213.603 259.263L213.638 257.198L204.929 257.048L210.011 252.136L225.297 252.399L225.333 250.335L289.91 251.448L289.952 248.996L225.375 247.883L225.41 245.819L216.701 245.668L221.783 240.759L237.07 241.022L237.105 238.957L301.682 240.07L301.724 237.619L237.147 236.506L237.182 234.441L228.473 234.291L230.304 232.521L233.436 229.494H233.44Z" fill="#A9D159" fill-opacity="0.45"/>
<path d="M230.563 217.862L229.926 217.851L230.574 217.225L230.563 217.862Z" fill="#A9D159" fill-opacity="0.45"/>
<path d="M284.043 195.621L253.47 195.094L260.16 188.626L284.156 189.04L284.12 191.105L348.7 192.218L348.658 194.669L284.078 193.556L284.043 195.621Z" fill="#A9D159" fill-opacity="0.45"/>
<path d="M260.499 218.377L230.563 217.862L230.574 217.225L236.616 211.383L260.611 211.797L260.576 213.864L325.155 214.977L325.113 217.428L260.534 216.315L260.499 218.377Z" fill="#A9D159" fill-opacity="0.45"/>
<path d="M272.271 207L241.696 206.474L248.386 200.006L272.386 200.42L272.348 202.484L336.927 203.597L336.885 206.049L272.306 204.936L272.271 207Z" fill="#A9D159" fill-opacity="0.45"/>
<path d="M242.435 194.904L220.598 194.528L227.29 188.06L249.125 188.436L242.435 194.904Z" fill="#A9D159" fill-opacity="0.45"/>
<path d="M218.888 217.661L197.053 217.285L203.743 210.817L225.58 211.193L218.888 217.661Z" fill="#A9D159" fill-opacity="0.45"/>
<path d="M230.66 206.283L208.826 205.905L215.516 199.44L237.35 199.816L230.66 206.283Z" fill="#A9D159" fill-opacity="0.45"/>
<path d="M170.539 307.695L201.112 308.224L194.422 314.689L170.426 314.276L170.462 312.211L105.882 311.098L105.924 308.647L170.504 309.762L170.539 307.695Z" fill="#A9D159" fill-opacity="0.45"/>
<path d="M194.083 284.938L224.021 285.454L224.01 286.093L217.966 291.932L193.971 291.519L194.006 289.454L129.427 288.339L129.471 285.887L194.048 287.003L194.083 284.938Z" fill="#A9D159" fill-opacity="0.45"/>
<path d="M182.311 296.316L212.886 296.844L206.196 303.31L182.199 302.896L182.234 300.834L117.655 299.719L117.697 297.267L182.276 298.382L182.311 296.316Z" fill="#A9D159" fill-opacity="0.45"/>
<path d="M212.15 308.414L233.984 308.79L227.294 315.256L205.46 314.88L212.15 308.414Z" fill="#A9D159" fill-opacity="0.45"/>
<path d="M235.694 285.655L257.528 286.031L250.838 292.501L229.004 292.123L235.694 285.655Z" fill="#A9D159" fill-opacity="0.45"/>
<path d="M223.922 297.035L245.756 297.411L239.067 303.878L217.232 303.5L223.922 297.035Z" fill="#A9D159" fill-opacity="0.45"/>
<path d="M155.66 278.778L213.806 222.575L191.969 222.199L132.99 279.207C140.546 279.066 148.103 278.922 155.66 278.778Z" fill="#A9D159" fill-opacity="0.45"/>
<path d="M100.451 358.459L115.737 358.722L115.772 356.658L180.35 357.771L180.392 355.319L115.814 354.206L115.85 352.142L91.8523 351.728L33.704 407.931C38.5229 408.287 43.3419 408.644 48.1609 409L53.4775 403.86L68.7637 404.123L68.7991 402.059L133.379 403.172L133.421 400.72L68.8411 399.607L68.8765 397.543L60.1674 397.393L65.2495 392.48L80.5358 392.744L80.5712 390.679L145.151 391.792L145.193 389.341L80.6132 388.228L80.6486 386.163L71.9395 386.013L77.0216 381.101L92.3079 381.364L92.3432 379.3L156.921 380.413L156.963 377.961L92.3853 376.848L92.4207 374.784L83.7116 374.633L88.7937 369.724L104.08 369.987L104.115 367.922L168.693 369.035L168.735 366.584L104.157 365.471L104.193 363.407L95.4836 363.256L97.3148 361.486L100.446 358.459H100.451Z" fill="#A9D159" fill-opacity="0.45"/>
<path d="M151.053 324.586L120.481 324.06L127.171 317.592L151.166 318.006L151.131 320.07L215.71 321.183L215.668 323.635L151.089 322.522L151.053 324.586Z" fill="#A9D159" fill-opacity="0.45"/>
<path d="M127.509 347.343L97.5714 346.827L97.5825 346.19L103.627 340.349L127.622 340.763L127.587 342.829L192.164 343.942L192.122 346.394L127.545 345.281L127.509 347.343Z" fill="#A9D159" fill-opacity="0.45"/>
<path d="M139.281 335.966L108.707 335.439L115.396 328.972L139.394 329.385L139.359 331.45L203.938 332.563L203.896 335.014L139.317 333.901L139.281 335.966Z" fill="#A9D159" fill-opacity="0.45"/>
<path d="M109.443 323.869L87.6085 323.491L94.2985 317.026L116.133 317.402L109.443 323.869Z" fill="#A9D159" fill-opacity="0.45"/>
<path d="M85.8989 346.626L64.0642 346.25L70.7541 339.783L92.5888 340.159L85.8989 346.626Z" fill="#A9D159" fill-opacity="0.45"/>
<path d="M97.6709 335.249L75.8363 334.87L82.5262 328.405L104.361 328.781L97.6709 335.249Z" fill="#A9D159" fill-opacity="0.45"/>
<path d="M22.6706 407.741L80.8167 351.538L58.9798 351.162L0 408.17C7.55687 408.029 15.1137 407.885 22.6706 407.741Z" fill="#A9D159" fill-opacity="0.45"/>
</svg>
