<svg width="295" height="264" viewBox="0 0 295 264" fill="none" xmlns="http://www.w3.org/2000/svg">
<path d="M248.935 104.827L234.828 104.583L239.142 100.408L253.249 100.652L248.935 104.827Z" fill="#E9F3F3"/>
<path d="M241.342 112.171L227.236 111.927L231.55 107.752L245.656 107.996L241.342 112.171Z" fill="#E9F3F3"/>
<path d="M239.981 4.10613L226.378 3.87191L223.746 1.14404L237.349 1.37827L239.981 4.10613Z" fill="#E9F3F3"/>
<path d="M247.314 11.7096L233.711 11.4754L229.543 7.15369L243.147 7.38934L247.314 11.7096Z" fill="#E9F3F3"/>
<path d="M254.647 19.3123L241.043 19.0767L236.875 14.7563L250.479 14.992L254.647 19.3123Z" fill="#E9F3F3"/>
<path d="M256.529 97.4804L242.42 97.2376L280.706 60.1916L244.212 22.3585L257.818 22.5942L261.986 26.9159L294.558 60.6828H294.557L260.842 93.3072L256.529 97.4804Z" fill="#E9F3F3"/>
<path d="M233.75 119.516L219.645 119.272L223.958 115.097L238.065 115.341L233.75 119.516Z" fill="#E9F3F3"/>
<path d="M235.303 97.1148L219.857 96.8478L219.88 95.5152L178.242 94.7968L178.269 93.2144L219.907 93.9328L219.93 92.6003L229.788 92.7702L232.986 89.6739L227.372 89.5768L227.395 88.2457L185.756 87.5259L185.783 85.9434L227.422 86.6632L227.445 85.3307L237.3 85.5007L237.301 85.4993L240.579 82.3301L234.962 82.233L234.985 80.9005L193.346 80.1806L193.373 78.5982L235.012 79.318L235.037 77.9855L244.893 78.1555L248.17 74.9848L242.554 74.8877L242.577 73.5552L200.937 72.8354L200.964 71.253L242.604 71.9728L242.627 70.6403L252.484 70.8102L255.761 67.6396L250.144 67.5425L250.168 66.21L208.527 65.4902L208.556 63.9092L250.195 64.6275L250.218 63.295L260.076 63.465L263.502 60.1473L260.191 56.7125L250.333 56.5425L250.356 55.21L208.717 54.4902L208.744 52.9077L250.383 53.6275L250.407 52.295L256.023 52.3921L252.857 49.1101L243.001 48.9388L243.024 47.6063L201.383 46.8879L201.41 45.3054L243.051 46.0238L243.073 44.6927L248.69 44.7884L245.523 41.5064L235.667 41.3365L235.69 40.0039L194.049 39.2856L194.076 37.7031L235.717 38.4215L235.74 37.089L241.357 37.1861L238.189 33.9041H238.188L228.333 33.7341L228.356 32.4016L186.717 31.6832L186.744 30.1008L228.383 30.8192L228.406 29.4867L234.021 29.5838L230.93 26.3789L221.073 26.209L221.096 24.8764L179.457 24.1566L179.484 22.5756L221.123 23.294L221.146 21.9615L237.096 22.2357L273.59 60.0687L235.303 97.1148Z" fill="#E9F3F3"/>
<path d="M233.928 18.9535L213.739 18.605L213.761 17.2725L172.121 16.5541L172.148 14.9717L213.789 15.6915L213.811 14.3575L229.76 14.6332L233.928 18.9535Z" fill="#E9F3F3"/>
<path d="M212.531 119.149L197.086 118.882L197.109 117.551L155.469 116.831L155.496 115.249L197.136 115.968L197.159 114.635L216.845 114.974L212.531 119.149Z" fill="#E9F3F3"/>
<path d="M199.073 3.40054L199.096 2.06946L157.457 1.34965L157.48 0L216.63 1.02116L219.264 3.74903L199.073 3.40054Z" fill="#E9F3F3"/>
<path d="M226.597 11.3528L206.405 11.0043L206.429 9.67039L164.789 8.95201L164.816 7.36956L206.457 8.08795L206.479 6.75543L222.429 7.03107L226.597 11.3528Z" fill="#E9F3F3"/>
<path d="M227.709 104.46L212.264 104.194L212.287 102.861L170.646 102.141L170.674 100.558L212.314 101.278L212.337 99.9456L232.023 100.285L227.709 104.46Z" fill="#E9F3F3"/>
<path d="M220.123 111.804L204.677 111.537L204.7 110.206L163.061 109.486L163.088 107.903L204.727 108.623L204.749 107.289L224.437 107.629L220.123 111.804Z" fill="#E9F3F3"/>
<path d="M150.52 148.133L160.377 148.303L160.4 146.971L202.039 147.689L202.066 146.107L160.427 145.388L160.449 144.056L144.976 143.789L107.482 180.066C110.59 180.296 113.697 180.526 116.804 180.756L120.232 177.438L130.089 177.608L130.111 176.276L171.752 176.994L171.779 175.412L130.139 174.693L130.161 173.361L124.546 173.264L127.823 170.093L137.679 170.263L137.702 168.931L179.342 169.649L179.37 168.067L137.729 167.348L137.752 166.016L132.136 165.919L135.413 162.748L145.27 162.918L145.293 161.585L186.932 162.304L186.959 160.721L145.32 160.003L145.343 158.67L139.727 158.573L143.004 155.404L152.86 155.574L152.883 154.242L194.522 154.96L194.549 153.378L152.91 152.659L152.933 151.327L147.318 151.229L148.498 150.087L150.517 148.133H150.52Z" fill="#E9F3F3"/>
<path d="M148.665 140.625L148.254 140.618L148.672 140.214L148.665 140.625Z" fill="#E9F3F3"/>
<path d="M183.148 126.269L163.436 125.929L167.749 121.754L183.221 122.021L183.198 123.354L224.839 124.072L224.812 125.655L183.171 124.936L183.148 126.269Z" fill="#E9F3F3"/>
<path d="M167.968 140.958L148.666 140.625L148.673 140.214L152.569 136.443L168.041 136.71L168.018 138.044L209.659 138.763L209.631 140.345L167.991 139.627L167.968 140.958Z" fill="#E9F3F3"/>
<path d="M175.556 133.614L155.842 133.274L160.155 129.099L175.63 129.366L175.606 130.699L217.246 131.417L217.219 133L175.579 132.281L175.556 133.614Z" fill="#E9F3F3"/>
<path d="M156.319 125.806L142.238 125.563L146.553 121.388L160.632 121.631L156.319 125.806Z" fill="#E9F3F3"/>
<path d="M141.135 140.495L127.057 140.252L131.37 136.077L145.451 136.32L141.135 140.495Z" fill="#E9F3F3"/>
<path d="M148.723 133.151L134.645 132.907L138.958 128.734L153.037 128.976L148.723 133.151Z" fill="#E9F3F3"/>
<path d="M109.962 198.61L129.675 198.951L125.361 203.124L109.889 202.857L109.912 201.525L68.2715 200.806L68.2986 199.224L109.939 199.944L109.962 198.61Z" fill="#E9F3F3"/>
<path d="M125.141 183.921L144.445 184.253L144.438 184.666L140.541 188.435L125.069 188.168L125.092 186.836L83.4512 186.116L83.4797 184.533L125.119 185.253L125.141 183.921Z" fill="#E9F3F3"/>
<path d="M117.552 191.265L137.266 191.606L132.952 195.779L117.479 195.512L117.502 194.181L75.8613 193.461L75.8884 191.879L117.529 192.599L117.552 191.265Z" fill="#E9F3F3"/>
<path d="M136.792 199.074L150.871 199.317L146.557 203.49L132.479 203.247L136.792 199.074Z" fill="#E9F3F3"/>
<path d="M151.972 184.383L166.051 184.626L161.737 188.802L147.658 188.558L151.972 184.383Z" fill="#E9F3F3"/>
<path d="M144.384 191.729L158.463 191.972L154.149 196.146L140.07 195.902L144.384 191.729Z" fill="#E9F3F3"/>
<path d="M100.368 179.945L137.86 143.667L123.78 143.424L85.75 180.222C90.6226 180.13 95.4952 180.038 100.368 179.945Z" fill="#E9F3F3"/>
<path d="M64.7703 231.377L74.6267 231.547L74.6496 230.215L116.289 230.933L116.316 229.35L74.6767 228.632L74.6995 227.3L59.226 227.032L21.7324 263.31C24.8397 263.54 27.9469 263.77 31.0541 264L34.4822 260.682L44.3387 260.852L44.3615 259.52L86.0019 260.238L86.029 258.656L44.3886 257.937L44.4114 256.605L38.7958 256.508L42.0728 253.337L51.9292 253.507L51.952 252.175L93.5924 252.893L93.6195 251.31L51.9791 250.592L52.002 249.26L46.3864 249.162L49.6633 245.992L59.5198 246.162L59.5426 244.829L101.182 245.548L101.209 243.965L59.5697 243.247L59.5925 241.914L53.977 241.817L57.2539 238.648L67.1103 238.818L67.1332 237.485L108.772 238.204L108.799 236.621L67.1603 235.903L67.1831 234.571L61.5675 234.473L62.7482 233.331L64.7674 231.377H64.7703Z" fill="#E9F3F3"/>
<path d="M97.3965 209.513L77.6836 209.173L81.9972 204.998L97.4692 205.265L97.4464 206.598L139.087 207.316L139.06 208.899L97.4193 208.18L97.3965 209.513Z" fill="#E9F3F3"/>
<path d="M82.2138 224.202L62.9102 223.869L62.9173 223.458L66.8145 219.687L82.2865 219.954L82.2637 221.288L123.903 222.007L123.876 223.589L82.2366 222.871L82.2138 224.202Z" fill="#E9F3F3"/>
<path d="M89.8061 216.858L70.0918 216.518L74.4054 212.344L89.8789 212.611L89.856 213.943L131.496 214.661L131.469 216.244L89.8289 215.526L89.8061 216.858Z" fill="#E9F3F3"/>
<path d="M70.5671 209.05L56.4883 208.806L60.8019 204.633L74.8807 204.875L70.5671 209.05Z" fill="#E9F3F3"/>
<path d="M55.3835 223.739L41.3047 223.496L45.6183 219.322L59.6971 219.564L55.3835 223.739Z" fill="#E9F3F3"/>
<path d="M62.9753 216.395L48.8965 216.151L53.2101 211.978L67.2889 212.221L62.9753 216.395Z" fill="#E9F3F3"/>
<path d="M14.6178 263.187L52.11 226.91L38.0298 226.667L0 263.464C4.87262 263.373 9.74523 263.28 14.6178 263.187Z" fill="#E9F3F3"/>
</svg>
