<svg width="233" height="49" viewBox="0 0 233 49" fill="none" xmlns="http://www.w3.org/2000/svg">
<path d="M49.4476 10.8103V11.3946H55.4369V37.3241H49.4476V37.9084V38.3467L49.3745 38.7849L49.3015 39.1501L49.2284 39.5884L49.1554 40.0266L49.0093 40.3918L48.8632 40.83L48.7172 41.1952L48.498 41.5605L48.2789 41.9257L48.0598 42.2909L47.7676 42.6561L47.5485 42.9482L47.2563 43.2404L46.8911 43.5326L46.599 43.8247L46.2338 44.0438L45.8686 44.336L45.5034 44.5551L45.1382 44.7012L44.773 44.9203L44.4077 45.0664L43.9695 45.2125L43.5313 45.2855L43.1661 45.3586L42.7278 45.4316H42.2896L41.8513 45.5046L41.4861 45.4316H41.0479L40.6096 45.3586L40.1714 45.2855L39.8062 45.2125L39.3679 45.0664L39.0027 44.9203L38.6375 44.7012L38.1993 44.5551L37.8341 44.336L37.5419 44.0438L37.1767 43.8247L36.8115 43.5326L36.5193 43.2404L36.2272 42.9482L36.0081 42.6561L35.7159 42.2909L35.4968 41.9257L35.2777 41.5605L35.0585 41.1952L34.9125 40.83L34.7664 40.3918L34.6203 40.0266L34.5472 39.5884L34.4012 39.1501V38.7849L34.3281 38.3467V37.9084V10.8103V10.3721L34.4012 10.0069V9.56862L34.5472 9.13037L34.6203 8.76516L34.7664 8.32692L34.9125 7.96171L35.0585 7.52346L35.2777 7.15826L35.4968 6.79306L35.7159 6.42785L36.0081 6.13569L36.2272 5.77049L36.5193 5.47833L36.8115 5.18617L37.1767 4.89401L37.5419 4.67488L37.8341 4.45577L38.1993 4.23663L38.6375 4.01752L39.0027 3.87143L39.3679 3.72536L39.8062 3.57927L40.1714 3.4332L40.6096 3.36015L41.0479 3.28711H41.4861H41.8513H42.2896H42.7278L43.1661 3.36015L43.5313 3.4332L43.9695 3.57927L44.4077 3.72536L44.773 3.87143L45.1382 4.01752L45.5034 4.23663L45.8686 4.45577L46.2338 4.67488L46.599 4.89401L46.8911 5.18617L47.2563 5.47833L47.5485 5.77049L47.7676 6.13569L48.0598 6.42785L48.2789 6.79306L48.498 7.15826L48.7172 7.52346L48.8632 7.96171L49.0093 8.32692L49.1554 8.76516L49.2284 9.13037L49.3015 9.56862L49.3745 10.0069L49.4476 10.3721V10.8103Z" fill="#A8D05A"/>
<path d="M21.1101 10.8103V11.3946H27.0994V33.0147L6.13672 9.64166L6.20976 9.27646L6.2828 8.83821L6.42888 8.39996L6.57496 8.03476L6.72104 7.59651L6.94017 7.23131L7.15929 6.8661L7.37841 6.5009L7.59753 6.20874L7.8897 5.84354L8.18186 5.55138L8.47402 5.25922L8.76619 4.96704L9.13139 4.67488L9.49659 4.45577L9.8618 4.23663L10.227 4.01752L10.5922 3.87143L11.0304 3.72536L11.3957 3.57927L11.8339 3.50622L12.2721 3.36015L12.6373 3.28711H13.0756H13.5138H13.9521H14.3903L14.7555 3.36015L15.1938 3.4332L15.632 3.57927L15.9972 3.65231L16.4355 3.7984L16.8007 4.01752L17.1659 4.16361L17.5311 4.38272L17.8963 4.67488L18.2615 4.89401L18.5536 5.18617L18.9188 5.47833L19.211 5.77049L19.4301 6.06265L19.7223 6.42785L19.9414 6.79306L20.1605 7.15826L20.3797 7.52346L20.5257 7.88867L20.6718 8.32692L20.8179 8.69212L20.964 9.13037L21.037 9.56862L21.1101 10.0069V10.3721V10.8103Z" fill="#A8D05A"/>
<path d="M5.98934 37.9085L6.06238 38.3467V38.785L6.13542 39.2232L6.20846 39.5884L6.2815 40.0267L6.42758 40.3919L6.57367 40.8301L6.79279 41.1953L6.93887 41.5605L7.15799 41.9257L7.45016 42.2909L7.66928 42.6561L7.96144 42.9483L8.2536 43.3135L8.54577 43.6057L8.91097 43.8248L9.20313 44.1169L9.56834 44.3361L9.93354 44.5552L10.2987 44.7743L10.737 44.9204L11.1022 45.0665L11.5404 45.2126L11.9056 45.2856L12.3439 45.3586L12.7821 45.4317H13.2204L13.6586 45.5047L14.0238 45.4317H14.4621L14.9003 45.3586L15.3386 45.2856L15.7038 45.1395L16.142 44.9934L16.5072 44.8474L16.9455 44.7013L17.3107 44.4821L17.6759 44.263L18.0411 44.0439L18.3332 43.7517L18.6984 43.4596L18.9906 43.1674L19.2828 42.8753L19.5019 42.5831L19.794 42.2179L20.0132 41.8527L20.2323 41.4875L20.4514 41.1223L20.5975 40.684L20.7436 40.3188L20.8897 39.8806L20.9627 39.5154L21.0357 39.0771L0 15.7041V37.3242H5.98934" fill="#A8D05A"/>
<path d="M28.3398 10.81H31.0423V10.2987L31.1154 9.78745V9.34921L31.2615 8.83793L31.3345 8.32664L31.4806 7.88839L31.6267 7.37712L31.7728 6.93887L31.9919 6.42758L32.211 5.98935L32.4301 5.5511L32.6492 5.11285L32.9414 4.6746L33.2336 4.3094L33.5257 3.87115L33.8909 3.50595L34.2561 3.14074L34.5483 2.77554L34.9865 2.48338L35.3518 2.19122L35.79 1.89906L36.1552 1.60691L36.5934 1.38777L37.0317 1.09561L37.4699 0.876498L37.9812 0.730407L38.4195 0.511294L38.9308 0.365204L39.369 0.292158L39.8803 0.14609L40.3916 0.0730452L40.9028 0H41.4141H41.8524H42.3637H42.875L43.3862 0.0730452L43.8975 0.14609L44.3358 0.292158L44.847 0.365204L45.3583 0.511294L45.7966 0.730407L46.2348 0.876498L46.7461 1.09561L47.1844 1.38777L47.6226 1.60691L47.9878 1.89906L48.426 2.19122L48.7913 2.48338L49.1565 2.77554L49.5217 3.14074L49.8869 3.50595L50.2521 3.87115L50.5442 4.3094L50.8364 4.6746L51.1286 5.11285L51.3477 5.5511L51.5668 5.98935L51.7859 6.42758L52.005 6.93887L52.1511 7.37712L52.2972 7.88839L52.4433 8.32664L52.5163 8.83793L52.5894 9.34921L52.6624 9.78745L52.7355 10.2987V10.81H50.0329V10.3718L49.9599 9.93354L49.8869 9.4953L49.8138 9.05705L49.7408 8.6188L49.5947 8.25359L49.4486 7.81537L49.2295 7.37712L49.0834 7.01192L48.8643 6.64671L48.6452 6.28151L48.353 5.9163L48.0608 5.5511L47.7687 5.25894L47.4765 4.89374L47.1113 4.60156L46.8191 4.38244L46.4539 4.09029L46.0887 3.87115L45.7235 3.65204L45.2853 3.43292L44.9201 3.28683L44.4818 3.14074L44.0436 2.99467L43.6054 2.84858L43.1671 2.77554H42.7289L42.2906 2.70252H41.8524H41.4141L40.9759 2.77554H40.5376L40.1724 2.84858L39.7342 2.99467L39.296 3.14074L38.8577 3.28683L38.4925 3.43292L38.0543 3.65204L37.6891 3.87115L37.3239 4.09029L36.9586 4.38244L36.5934 4.60156L36.3013 4.89374L36.0091 5.25894L35.717 5.5511L35.4248 5.9163L35.1326 6.28151L34.9135 6.64671L34.6944 7.01192L34.4753 7.37712L34.3292 7.81537L34.1831 8.25359L34.037 8.6188L33.964 9.05705L33.8909 9.4953L33.8179 9.93354L33.7449 10.3718V10.81V37.9081V38.3464L33.8179 38.7846L33.8909 39.2229L33.964 39.6611L34.037 40.0994L34.1831 40.5376L34.3292 40.9028L34.4753 41.3411L34.6944 41.7063L34.9135 42.0715L35.1326 42.5097L35.4248 42.8019L35.717 43.1671L36.0091 43.5323L36.3013 43.8244L36.5934 44.1166L36.9586 44.4088L37.3239 44.6279L37.6891 44.847L38.0543 45.0661L38.4925 45.2853L38.8577 45.5044L39.296 45.6505L39.7342 45.7235L40.1724 45.8696L40.5376 45.9426L40.9759 46.0157H41.4141H41.8524H42.2906H42.7289L43.1671 45.9426L43.6054 45.8696L44.0436 45.7235L44.4818 45.6505L44.9201 45.5044L45.2853 45.2853L45.7235 45.0661L46.0887 44.847L46.4539 44.6279L46.8191 44.4088L47.1113 44.1166L47.4765 43.8244L47.7687 43.5323L48.0608 43.1671L48.353 42.8019L48.6452 42.5097L48.8643 42.0715L49.0834 41.7063L49.2295 41.3411L49.4486 40.9028L49.5947 40.5376L49.7408 40.0994L49.8138 39.6611L49.8869 39.2229L49.9599 38.7846L50.0329 38.3464V37.9081H52.7355V38.4194L52.6624 38.9307L52.5894 39.442L52.5163 39.8802L52.4433 40.3915L52.2972 40.9028L52.1511 41.3411L52.005 41.8523L51.7859 42.2906L51.5668 42.7288L51.3477 43.1671L51.1286 43.6053L50.8364 44.0436L50.5442 44.4818L50.2521 44.847L49.8869 45.2122L49.5217 45.5774L49.1565 45.9426L48.7913 46.2348L48.426 46.6L47.9878 46.8922L47.6226 47.1113L47.1844 47.4034L46.7461 47.6226L46.2348 47.8417L45.7966 47.9878L45.3583 48.2069L44.847 48.353L44.3358 48.499L43.8975 48.5721L43.3862 48.6451L42.875 48.7182H42.3637H41.8524H41.4141H40.9028L40.3916 48.6451L39.8803 48.5721L39.369 48.499L38.9308 48.353L38.4195 48.2069L37.9812 47.9878L37.4699 47.8417L37.0317 47.6226L36.5934 47.4034L36.1552 47.1113L35.79 46.8922L35.3518 46.6L34.9865 46.2348L34.5483 45.9426L34.2561 45.5774L33.8909 45.2122L33.5257 44.847L33.2336 44.4818L32.9414 44.0436L32.6492 43.6053L32.4301 43.1671L32.211 42.7288L31.9919 42.2906L31.7728 41.8523L31.6267 41.3411L31.4806 40.9028L31.3345 40.3915L31.2615 39.8802L31.1154 39.442V38.9307L31.0423 38.4194V37.9081H28.3398V10.81Z" fill="#0D6A37"/>
<path d="M0 14.8268L21.6201 38.8572L21.547 39.2955L21.474 39.7337L21.4009 40.172L21.2549 40.6102L21.1088 40.9754L20.8897 41.4137L20.7436 41.7789L20.5244 42.1441L20.2323 42.5093L20.0132 42.8745L19.721 43.2397L19.4288 43.5318L19.1367 43.897L18.7715 44.1892L18.4063 44.4083L18.0411 44.7005L17.6759 44.9196L17.3107 45.1387L16.9454 45.2848L16.5072 45.5039L16.142 45.65L15.7038 45.7961L15.2655 45.8691L14.8273 45.9422L14.389 46.0152H13.9508H13.5125H13.0743H12.636L12.1978 45.9422L11.7596 45.8691L11.3213 45.7231L10.9561 45.577L10.5179 45.4309L10.1527 45.2848L9.71442 45.0657L9.34921 44.8466L8.98401 44.6274L8.61881 44.3353L8.2536 44.1161L7.96144 43.824L7.66928 43.4588L7.37711 43.1666L7.08495 42.8014L6.86583 42.4362L6.57367 42.071L6.35454 41.7058L6.20846 41.3406L5.98934 40.9024L5.84326 40.5372L5.77022 40.0989L5.62414 39.6607L5.5511 39.2224L5.47806 38.7842V38.3459V37.9077H2.70251L2.77555 38.419V38.9303L2.84859 39.4415L2.92163 39.8798L2.99467 40.3911L3.14075 40.9024L3.28683 41.3406L3.43291 41.8519L3.65204 42.2901L3.87116 42.7284L4.09028 43.1666L4.38244 43.6049L4.60157 44.0431L4.89373 44.4814L5.25893 44.8466L5.5511 45.2118L5.9163 45.577L6.2815 45.9422L6.64671 46.2343L7.01191 46.5995L7.45016 46.8917L7.8884 47.1108L8.32664 47.403L8.76489 47.6221L9.20313 47.8412L9.64138 47.9873L10.1527 48.2064L10.5909 48.3525L11.1022 48.4986L11.6135 48.5716L12.0517 48.6447L12.563 48.7177H13.0743H13.5856H14.0969H14.6081L15.0464 48.6447L15.5577 48.5716L16.069 48.4986L16.5072 48.3525L17.0185 48.2064L17.4567 47.9873L17.968 47.8412L18.4063 47.6221L18.8445 47.403L19.2828 47.1108L19.721 46.8917L20.0862 46.5995L20.5244 46.2343L20.8897 45.9422L21.2549 45.577L21.547 45.2118L21.9122 44.8466L22.2044 44.4814L22.4965 44.0431L22.7887 43.6049L23.0078 43.1666L23.3 42.7284L23.5191 42.2901L23.6652 41.8519L23.8113 41.3406L24.0304 40.9024L24.1034 40.3911L24.2495 39.8798L24.3226 39.4415L24.3956 38.9303V38.419V37.9077L0 10.8096V14.8268Z" fill="#0D6A37"/>
<path d="M27.0987 37.9081L2.70312 10.81L2.77617 10.2987V9.78745L2.84921 9.34921L2.92225 8.83793L2.99529 8.32664L3.14137 7.88839L3.28745 7.37712L3.43353 6.93887L3.65265 6.42758L3.87178 5.98935L4.0909 5.5511L4.38306 5.11285L4.60218 4.6746L4.89435 4.3094L5.25955 3.87115L5.55171 3.50595L5.91692 3.14074L6.28212 2.84858L6.64732 2.48338L7.01253 2.19122L7.45077 1.89906L7.88902 1.60691L8.32726 1.38777L8.76551 1.09561L9.20375 0.876498L9.64199 0.730407L10.1533 0.511294L10.5915 0.365204L11.1028 0.292158L11.6141 0.14609L12.0523 0.0730452L12.5636 0H13.0749H13.5862H14.0975H14.6088L15.047 0.0730452L15.5583 0.14609L16.0696 0.292158L16.5078 0.365204L17.0191 0.511294L17.4574 0.730407L17.9686 0.876498L18.4069 1.09561L18.8451 1.38777L19.2834 1.60691L19.7216 1.89906L20.0868 2.19122L20.5251 2.48338L20.8903 2.84858L21.2555 3.14074L21.5476 3.50595L21.9128 3.87115L22.205 4.3094L22.4972 4.6746L22.7893 5.11285L23.0084 5.5511L23.3006 5.98935L23.5197 6.42758L23.6658 6.93887L23.8119 7.37712L24.031 7.88839L24.1041 8.32664L24.2501 8.83793L24.3232 9.34921L24.3962 9.78745V10.2987V10.81H21.6937V10.3718L21.6207 9.93354V9.4953L21.5476 9.05705L21.4016 8.69184L21.2555 8.25359L21.1094 7.81537L20.9633 7.45016L20.7442 7.01192L20.5251 6.64671L20.3059 6.28151L20.0868 5.9163L19.7947 5.5511L19.5025 5.25894L19.2103 4.96676L18.8451 4.6746L18.4799 4.38244L18.1878 4.09029L17.8226 3.87115L17.3843 3.65204L17.0191 3.43292L16.5809 3.28683L16.2157 3.14074L15.7774 2.99467L15.3392 2.92163L14.9009 2.77554H14.4627L14.0975 2.70252H13.6592H13.148H12.7827L12.3445 2.77554L11.9063 2.84858L11.468 2.99467L11.0298 3.06772L10.5915 3.21379L10.2263 3.43292L9.78808 3.57899L9.42287 3.79813L9.05767 4.09029L8.69247 4.3094L8.4003 4.60156L8.0351 4.89374L7.74294 5.1859L7.45077 5.47806L7.15861 5.84326L6.86645 6.20846L6.64732 6.57367L6.4282 6.93887L6.20908 7.30407L6.063 7.74232L5.91692 8.10753L5.77084 8.54578L5.62475 8.984L5.55171 9.42225L5.47867 9.8605L27.0987 33.8909V37.9081Z" fill="#0D6A37"/>
<path d="M195.165 23.8847L195.896 24.0307L196.626 24.1768L197.357 24.0307L198.087 23.8847L198.671 23.5195L199.256 23.1543L199.621 22.5699L199.986 21.9856L200.205 21.3282L200.424 20.6709V20.5978V20.5248H200.497H200.57H216.128H231.686C231.686 20.5248 231.905 20.5248 232.124 20.3787C232.343 20.3057 232.489 20.0865 232.562 20.0135C232.635 19.9405 232.781 19.7944 232.854 19.5752C232.927 19.3561 233.001 19.064 233.001 19.064V15.9963V12.9286H231.832H230.663V14.9737V17.0188H229.056H227.449V14.9737V12.9286H226.354H225.258V14.9737V17.0188H223.651H222.044V14.9737V12.9286H220.949H219.853V14.9737V17.0188H215.69H211.38C211.38 17.0188 211.527 16.7267 211.746 16.3615C211.965 16.0693 212.184 15.7041 212.403 15.558C212.549 15.4119 212.987 15.2659 213.353 15.1198C213.718 14.9737 214.083 14.9006 214.083 14.9006L211.746 13.0016L209.408 11.1025L207.071 13.0016L204.734 14.9006C204.734 14.9006 205.026 14.9737 205.391 15.1198C205.756 15.2659 206.195 15.4119 206.341 15.558C206.487 15.7041 206.779 16.0693 206.998 16.3615C207.217 16.7267 207.363 17.0188 207.363 17.0188H203.93H200.497V15.1198V13.2207V13.0746V12.9286H200.351H200.205L200.059 13.0016L199.913 13.0746C199.913 13.0746 199.621 13.3668 199.329 13.659C198.964 13.9511 198.598 14.3894 198.379 14.5354C198.16 14.6815 197.795 14.9007 197.43 15.0467C197.064 15.2659 196.699 15.4119 196.48 15.558C196.261 15.631 195.969 15.7771 195.677 15.8502C195.385 15.9963 195.092 16.0693 194.946 16.2154C194.8 16.3615 194.508 16.5075 194.289 16.7267C194.07 16.9458 193.851 17.1649 193.705 17.311C193.559 17.4571 193.412 17.7492 193.266 18.0414C193.12 18.3336 193.047 18.6257 192.974 18.8448C192.901 19.064 192.901 19.5022 192.828 19.8674C192.828 20.2326 192.828 20.5248 192.828 20.5248H195.312H197.795H197.868H197.941V20.5978V20.6709L197.795 21.4013L197.649 22.1317L197.138 22.716L196.699 23.3003L196.042 23.6655L195.165 23.8847Z" fill="black"/>
<path d="M161.418 13.2938C161.857 13.5859 162.733 14.2433 163.025 14.6085C163.317 14.9737 164.048 16.4345 164.048 16.4345V16.6536L163.829 16.7997H131.983V13.0746L131.837 12.8555L131.618 12.7825L131.472 12.9286C131.472 12.9286 130.376 14.0972 129.938 14.3894C129.5 14.6815 128.55 15.1928 128.039 15.4119C127.674 15.6311 126.505 16.0693 126.505 16.0693C126.505 16.0693 125.555 16.8727 125.336 17.1649C125.044 17.5301 124.679 18.2605 124.533 18.6988C124.387 19.137 124.387 20.3787 124.387 20.3787H129.353L129.5 20.4517L129.573 20.5978C129.573 20.5978 129.353 21.6934 129.207 22.0587C129.061 22.4239 128.55 23.0082 128.258 23.3003C127.966 23.5195 126.943 24.0307 126.943 24.0307C126.943 24.0307 127.966 24.2499 128.331 24.2499C128.696 24.2499 129.427 24.0307 129.719 23.9577C130.011 23.8116 130.668 23.4464 130.887 23.1543C131.18 22.8621 131.545 22.2778 131.691 21.9856C131.837 21.6934 132.056 20.6709 132.056 20.6709L132.129 20.5248L132.275 20.4517H168.138V18.1875C168.138 18.1875 167.919 16.5075 167.7 15.9963C167.481 15.485 166.896 14.4624 166.604 13.9511C166.239 13.5129 165.436 12.7094 164.997 12.4173C164.559 12.1251 163.537 11.6138 162.952 11.3947C162.441 11.2486 160.688 11.0295 160.688 11.0295H146.007H145.934V10.9564V10.8834L165.655 4.01758H159.958L139.287 11.1756V12.7094H159.665C159.446 12.6364 160.98 13.0016 161.418 13.2938Z" fill="black"/>
<path d="M65.2266 17.7486C65.2266 17.7486 65.3726 18.6982 65.5918 18.9903C65.7378 19.2825 66.2491 19.7938 66.5413 19.9398C66.8335 20.0859 67.783 20.305 67.783 20.305H117.67C117.67 20.305 118.619 20.159 118.912 19.9398C119.204 19.7938 119.642 19.2825 119.788 18.9903C119.934 18.6982 120.153 17.7486 120.153 17.7486V10.7367H117.889V16.7261H115.113V12.6358H112.776V16.7261H109.928V12.6358H107.59V16.7261H104.742V12.6358H102.477V16.7261H97.3645V3.79785H94.8811V16.7991H89.1839V12.7088H86.7736V16.7991H67.856V12.7819H65.2996V17.7486H65.2266Z" fill="black"/>
<path d="M74.6473 38.492C74.6473 38.492 75.4507 38.5651 75.6698 38.7111C75.889 38.8572 76.3272 39.2224 76.4733 39.5146C76.6194 39.7337 76.7654 40.245 76.7654 40.5372C76.7654 40.8293 76.6194 41.3406 76.4733 41.6328C76.3272 41.8519 75.889 42.2171 75.6698 42.3632C75.4507 42.5093 74.6473 42.6553 74.6473 42.6553H66.9049L65.5172 44.7005H78.1532L79.468 43.824L79.1028 44.7005H83.047L88.1598 32.2836L93.3457 44.7005H97.2169L91.0084 29.6541H85.4573L81.0018 40.3911C81.0018 40.3911 80.7827 39.0763 80.6366 38.6381C80.4905 38.2729 79.9062 37.5425 79.541 37.2503C79.1758 36.9582 78.4454 36.5199 78.0071 36.3738C77.5689 36.2278 76.1811 36.1547 76.1811 36.1547H71.5796C71.5796 36.1547 70.7761 36.0086 70.557 35.8626C70.3379 35.7165 69.9727 35.2782 69.8266 35.0591C69.6805 34.84 69.5344 34.3287 69.5344 34.0365C69.5344 33.7444 69.6805 33.2331 69.8266 33.014C69.9727 32.7949 70.3379 32.3566 70.557 32.2105C70.7761 32.0644 71.5796 31.9184 71.5796 31.9184H79.3949L80.9288 29.5811H69.2423C69.2423 29.5811 68.0006 29.8732 67.7084 30.0923C67.3432 30.3115 66.7589 30.8228 66.4667 31.188C66.1745 31.4801 65.7363 32.2836 65.5902 32.6488C65.4441 33.014 65.3711 33.8905 65.3711 34.2557C65.3711 34.6209 65.5902 35.4243 65.7363 35.7895C65.8824 36.1547 66.3937 36.8851 66.6858 37.1773C66.978 37.4694 67.6354 37.9077 68.0006 38.0538C68.3658 38.1999 69.6075 38.419 69.6075 38.419" fill="black"/>
<path d="M183.991 12.709H174.496V14.7541H183.991C183.991 14.7541 184.868 15.1193 185.087 15.3385C185.306 15.5576 185.671 16.4341 185.671 16.4341L185.598 16.6532L185.452 16.7262H173.035V20.2322H188.301V17.0184C188.301 17.0184 188.082 15.7767 187.935 15.4115C187.789 15.0463 187.351 14.3159 187.059 14.0237C186.767 13.7316 186.109 13.2203 185.744 13.0742C185.233 12.9281 183.991 12.709 183.991 12.709Z" fill="black"/>
<path d="M207.434 39.0041C207.434 39.0041 206.777 40.8301 206.411 41.4144C206.046 41.9988 205.17 42.9483 204.585 43.3865C204.074 43.8248 202.248 44.6282 202.248 44.6282H197.135C197.135 44.6282 195.309 43.8248 194.798 43.3865C194.287 43.0213 193.41 41.9988 193.045 41.4144C192.68 40.8301 191.949 39.0041 191.949 39.0041V29.5088H195.601V39.9536C195.601 39.9536 196.259 41.0492 196.551 41.2684C196.843 41.5605 197.646 41.9988 198.012 42.1448C198.377 42.2909 199.253 42.5101 199.618 42.5101C200.057 42.5101 200.933 42.364 201.298 42.1448C201.664 41.9988 202.394 41.5605 202.686 41.2684C202.978 40.9762 203.636 39.9536 203.636 39.9536V29.5088H207.288V39.0041H207.434Z" fill="black"/>
<path d="M184.426 38.4928C184.426 38.4928 185.23 38.5658 185.449 38.7119C185.668 38.858 186.106 39.2232 186.252 39.5154C186.398 39.7345 186.544 40.2458 186.544 40.5379C186.544 40.8301 186.398 41.3414 186.252 41.6336C186.106 41.8527 185.668 42.2179 185.449 42.364C185.23 42.51 184.426 42.6561 184.426 42.6561H176.611L175.223 44.7013H187.859C187.859 44.7013 189.028 43.9709 189.32 43.6787C189.612 43.3865 190.196 42.6561 190.342 42.2179C190.489 41.7796 190.635 40.9031 190.635 40.3919C190.635 39.9536 190.416 39.0771 190.269 38.6389C190.123 38.2006 189.539 37.4702 189.174 37.1781C188.882 36.8859 188.078 36.4477 187.64 36.3016C187.202 36.1555 185.814 36.0825 185.814 36.0825H181.212C181.212 36.0825 180.409 35.9364 180.19 35.7903C179.971 35.6442 179.605 35.206 179.459 34.9868C179.313 34.7677 179.167 34.2564 179.167 33.9643C179.167 33.6721 179.313 33.1608 179.459 32.9417C179.605 32.7226 179.971 32.2843 180.19 32.1383C180.409 31.9922 181.212 31.8461 181.212 31.8461H189.028L190.562 29.5088H178.875C178.875 29.5088 177.633 29.801 177.341 30.0201C176.976 30.2392 176.392 30.7505 176.1 31.1157C175.807 31.4079 175.369 32.2113 175.223 32.5765C175.077 32.9417 175.004 33.8182 175.004 34.1834C175.004 34.5486 175.223 35.352 175.369 35.7173C175.515 36.0825 176.026 36.8129 176.319 37.105C176.611 37.3972 177.268 37.8354 177.633 37.9815C177.999 38.1276 179.24 38.3467 179.24 38.3467H184.426" fill="black"/>
<path d="M129.21 39.2962V35.1329C129.21 35.1329 129.356 34.1834 129.429 33.8912C129.575 33.5991 129.941 33.0878 130.16 32.7956C130.379 32.5765 130.963 32.2113 131.255 32.1383C131.547 31.9922 132.497 31.8461 132.497 31.8461H139.217L141.408 29.5088H129.794C129.794 29.5088 128.48 29.7279 128.114 29.874C127.749 30.0201 127.019 30.5314 126.727 30.8966C126.435 31.1887 125.923 32.3574 125.923 32.3574L125.777 32.5035H125.704L125.558 32.3574C125.558 32.3574 124.974 31.1887 124.682 30.8966C124.389 30.6044 123.659 30.0931 123.294 29.874C122.929 29.7279 121.614 29.5088 121.614 29.5088H107.663V39.9536C107.663 39.9536 106.933 41.0492 106.641 41.2684C106.348 41.5605 105.618 41.9988 105.253 42.1449C104.888 42.2909 104.011 42.5101 103.646 42.5101C103.208 42.5101 102.331 42.364 101.966 42.1449C101.601 41.9988 100.87 41.5605 100.578 41.2684C100.286 40.9762 99.6286 39.9536 99.6286 39.9536V29.5088H95.9766V39.0041C95.9766 39.0041 96.6339 40.8301 96.9991 41.4144C97.3643 41.9988 98.2408 42.9483 98.8251 43.3865C99.3364 43.7517 101.162 44.6282 101.162 44.6282H106.275C106.275 44.6282 108.028 43.8248 108.54 43.3865C109.051 42.9483 110 41.9988 110.366 41.4144C110.731 40.8301 111.461 39.0041 111.461 39.0041V31.9191H119.13C119.13 31.9191 120.08 32.0652 120.372 32.2113C120.664 32.3574 121.249 32.6495 121.468 32.8687C121.687 33.0878 122.052 33.6721 122.125 33.9643C122.271 34.2564 122.417 35.206 122.417 35.206V39.3693C122.417 39.3693 122.271 40.3188 122.125 40.611C121.979 40.9032 121.687 41.4875 121.468 41.7066C121.249 41.9257 120.664 42.2909 120.372 42.364C120.08 42.51 119.13 42.6561 119.13 42.6561H112.63L111.388 44.7013H121.833C121.833 44.7013 123.148 44.4822 123.513 44.3361C123.878 44.19 124.609 43.6787 124.901 43.3135C125.193 43.0213 125.777 41.8527 125.777 41.8527L125.923 41.7796H125.996L126.142 41.8527C126.142 41.8527 126.727 43.0213 126.946 43.3135C127.238 43.6056 127.968 44.117 128.334 44.3361C128.699 44.4822 130.014 44.7013 130.014 44.7013H139.728L141.7 42.6561H132.497C132.497 42.6561 131.547 42.51 131.255 42.364C130.963 42.2179 130.452 41.9257 130.16 41.7066C129.941 41.4875 129.575 40.9032 129.429 40.611C129.356 40.2458 129.21 39.2962 129.21 39.2962Z" fill="black"/>
<path d="M75.8178 11.3942C75.8178 12.0516 75.3065 12.5629 74.6491 12.5629C73.9918 12.5629 73.4805 12.0516 73.4805 11.3942C73.4805 10.7369 73.9918 10.2256 74.6491 10.2256C75.3065 10.2256 75.8178 10.8099 75.8178 11.3942Z" fill="black"/>
<path d="M80.7826 11.3942C80.7826 12.0516 80.2713 12.5629 79.614 12.5629C78.9566 12.5629 78.4453 12.0516 78.4453 11.3942C78.4453 10.7369 78.9566 10.2256 79.614 10.2256C80.2713 10.2256 80.7826 10.8099 80.7826 11.3942Z" fill="black"/>
<path d="M120.154 6.9395C120.154 7.59686 119.642 8.10815 118.985 8.10815C118.328 8.10815 117.816 7.59686 117.816 6.9395C117.816 6.28213 118.328 5.77084 118.985 5.77084C119.569 5.6978 120.154 6.28213 120.154 6.9395Z" fill="black"/>
<path d="M221.169 42.5823L220.146 44.6275H209.117V29.5811H213.354V42.5823H221.169Z" fill="black"/>
<path d="M222.553 44.6282V31.9191H216.418L218.025 29.5088H232.925L231.318 31.9191H226.278V44.6282H222.553Z" fill="black"/>
<path d="M168.795 44.6282L161.491 34.2564V44.6282H157.547V29.5088H162.368L169.891 40.1727V29.5088H173.835V44.6282H168.795Z" fill="black"/>
<path d="M156.378 34.8403C156.232 34.256 155.648 33.0873 155.283 32.503C154.918 31.9917 153.968 31.0422 153.457 30.677C152.945 30.3118 151.777 29.6544 151.192 29.4353C150.608 29.2162 149.293 28.9971 148.636 28.9971C147.979 28.9971 146.737 29.2162 146.153 29.4353C145.495 29.6544 144.327 30.2388 143.815 30.677C143.304 31.0422 142.428 31.9917 142.062 32.503C141.697 33.0143 141.113 34.183 140.894 34.8403C140.748 35.4977 140.602 36.7394 140.602 37.3968C140.602 38.0541 140.894 39.2958 141.113 39.8801C141.332 40.4645 141.989 41.6331 142.355 42.1444C142.793 42.6557 143.742 43.4591 144.254 43.8243C144.765 44.1895 146.591 44.8469 146.591 44.8469H150.535C150.535 44.8469 152.361 44.1165 152.945 43.8243C153.457 43.4591 154.479 42.6557 154.845 42.1444C155.283 41.6331 155.867 40.4645 156.159 39.8801C156.378 39.2958 156.671 37.9811 156.671 37.3968C156.744 36.7394 156.524 35.4247 156.378 34.8403ZM149.001 43.24C146.299 43.24 144.181 40.4645 144.181 37.0316C144.181 33.5986 146.372 30.8231 149.001 30.8231C151.704 30.8231 153.822 33.5986 153.822 37.0316C153.822 40.4645 151.631 43.24 149.001 43.24Z" fill="black"/>
</svg>
