<svg width="46" height="45" viewBox="0 0 46 45" fill="none" xmlns="http://www.w3.org/2000/svg">
<path d="M6.40039 11.8999C9.43796 11.8999 11.9004 9.43747 11.9004 6.3999C11.9004 3.36234 9.43796 0.899902 6.40039 0.899902C3.36282 0.899902 0.900391 3.36234 0.900391 6.3999C0.900391 9.43747 3.36282 11.8999 6.40039 11.8999Z" stroke="#0D6A37" stroke-width="1.8"/>
<path d="M39.4004 11.8999C42.438 11.8999 44.9004 9.43747 44.9004 6.3999C44.9004 3.36234 42.438 0.899902 39.4004 0.899902C36.3628 0.899902 33.9004 3.36234 33.9004 6.3999C33.9004 9.43747 36.3628 11.8999 39.4004 11.8999Z" stroke="#0D6A37" stroke-width="1.8"/>
<path d="M6.40039 43.8999C9.43796 43.8999 11.9004 41.4375 11.9004 38.3999C11.9004 35.3623 9.43796 32.8999 6.40039 32.8999C3.36282 32.8999 0.900391 35.3623 0.900391 38.3999C0.900391 41.4375 3.36282 43.8999 6.40039 43.8999Z" stroke="#0D6A37" stroke-width="1.8"/>
<path d="M39.4004 43.8999C42.438 43.8999 44.9004 41.4375 44.9004 38.3999C44.9004 35.3623 42.438 32.8999 39.4004 32.8999C36.3628 32.8999 33.9004 35.3623 33.9004 38.3999C33.9004 41.4375 36.3628 43.8999 39.4004 43.8999Z" stroke="#0D6A37" stroke-width="1.8"/>
<path d="M11.9004 5.8999H33.9004" stroke="#0D6A37" stroke-width="1.6" stroke-linecap="round"/>
<path d="M5.90039 11.8999V32.8999" stroke="#0D6A37" stroke-width="1.6" stroke-linecap="round"/>
<path d="M38.9004 11.8999V32.8999" stroke="#0D6A37" stroke-width="1.6" stroke-linecap="round"/>
<path d="M11.9004 38.8999H33.9004" stroke="#0D6A37" stroke-width="1.6" stroke-linecap="round"/>
</svg>
