<svg width="40" height="41" viewBox="0 0 40 41" fill="none" xmlns="http://www.w3.org/2000/svg">
<path d="M38.623 0.899902H0.900391V39.7657H38.623V0.899902Z" stroke="#0D6A37" stroke-width="1.8"/>
<path d="M12.9038 18.0465C15.7447 18.0465 18.0478 15.9993 18.0478 13.4741C18.0478 10.9488 15.7447 8.90161 12.9038 8.90161C10.0628 8.90161 7.75977 10.9488 7.75977 13.4741C7.75977 15.9993 10.0628 18.0465 12.9038 18.0465Z" stroke="#0D6A37" stroke-width="1.8"/>
<path d="M27.1916 31.7638C29.7169 31.7638 31.764 29.7166 31.764 27.1913C31.764 24.666 29.7169 22.6189 27.1916 22.6189C24.6663 22.6189 22.6191 24.666 22.6191 27.1913C22.6191 29.7166 24.6663 31.7638 27.1916 31.7638Z" stroke="#0D6A37" stroke-width="1.8"/>
</svg>
