<svg width="31" height="46" viewBox="0 0 31 46" fill="none" xmlns="http://www.w3.org/2000/svg">
<path d="M25.0671 0.899902H5.73372C3.06435 0.899902 0.900391 3.06386 0.900391 5.73324V29.8999C0.900391 32.5693 3.06435 34.7332 5.73372 34.7332H25.0671C27.7364 34.7332 29.9004 32.5693 29.9004 29.8999V5.73324C29.9004 3.06386 27.7364 0.899902 25.0671 0.899902Z" stroke="#0D6A37" stroke-width="1.8"/>
<path d="M0.900391 25.0667H29.9004" stroke="#0D6A37" stroke-width="1.8" stroke-linecap="round"/>
<path d="M10.5671 22.65C11.9017 22.65 12.9837 21.568 12.9837 20.2333C12.9837 18.8986 11.9017 17.8167 10.5671 17.8167C9.23237 17.8167 8.15039 18.8986 8.15039 20.2333C8.15039 21.568 9.23237 22.65 10.5671 22.65Z" fill="#0D6A37"/>
<path d="M20.2331 22.65C21.5678 22.65 22.6497 21.568 22.6497 20.2333C22.6497 18.8986 21.5678 17.8167 20.2331 17.8167C18.8984 17.8167 17.8164 18.8986 17.8164 20.2333C17.8164 21.568 18.8984 22.65 20.2331 22.65Z" fill="#0D6A37"/>
<path d="M5.73372 34.7332L0.900391 44.3998" stroke="#0D6A37" stroke-width="1.8" stroke-linecap="round"/>
<path d="M25.0664 34.7332L29.8997 44.3998" stroke="#0D6A37" stroke-width="1.8" stroke-linecap="round"/>
</svg>
