<svg width="63" height="63" viewBox="0 0 63 63" fill="none" xmlns="http://www.w3.org/2000/svg">
<path d="M18.375 28.875C22.7242 28.875 26.25 25.3492 26.25 21C26.25 16.6508 22.7242 13.125 18.375 13.125C14.0258 13.125 10.5 16.6508 10.5 21C10.5 25.3492 14.0258 28.875 18.375 28.875Z" stroke="white" stroke-width="1.8"/>
<path d="M44.625 28.875C48.9742 28.875 52.5 25.3492 52.5 21C52.5 16.6508 48.9742 13.125 44.625 13.125C40.2758 13.125 36.75 16.6508 36.75 21C36.75 25.3492 40.2758 28.875 44.625 28.875Z" stroke="white" stroke-width="1.8"/>
<path d="M5.25 52.5C7.35 40.6875 14.4375 34.125 18.375 34.125C22.3125 34.125 29.4 40.6875 31.5 52.5" stroke="white" stroke-width="1.8" stroke-linecap="round"/>
<path d="M31.5 52.5C33.6 40.6875 40.6875 34.125 44.625 34.125C48.5625 34.125 55.65 40.6875 57.75 52.5" stroke="white" stroke-width="1.8" stroke-linecap="round"/>
</svg>
