<svg width="65" height="69" viewBox="0 0 65 69" fill="none" xmlns="http://www.w3.org/2000/svg">
<path d="M55.749 1H8.82129C4.50171 1 1 4.50171 1 8.82129V32.2852C1 36.6047 4.50171 40.1064 8.82129 40.1064H55.749C60.0686 40.1064 63.5703 36.6047 63.5703 32.2852V8.82129C63.5703 4.50171 60.0686 1 55.749 1Z" stroke="#0D6A37" stroke-width="2"/>
<path d="M32.2891 40.1062V67.4807" stroke="#0D6A37" stroke-width="2" stroke-linecap="round"/>
<path d="M12.7305 67.4812H51.8369" stroke="#0D6A37" stroke-width="2" stroke-linecap="round"/>
<path d="M32.2922 62.0065C35.7479 62.0065 38.5492 59.2051 38.5492 55.7495C38.5492 52.2938 35.7479 49.4924 32.2922 49.4924C28.8365 49.4924 26.0352 52.2938 26.0352 55.7495C26.0352 59.2051 28.8365 62.0065 32.2922 62.0065Z" fill="#0D6A37"/>
<path d="M16.6484 16.6423H47.9336" stroke="#0D6A37" stroke-width="2" stroke-linecap="round"/>
<path d="M16.6484 28.3743H36.2017" stroke="#0D6A37" stroke-width="2" stroke-linecap="round"/>
</svg>
