<svg width="78" height="65" viewBox="0 0 78 65" fill="none" xmlns="http://www.w3.org/2000/svg">
<path d="M67.7963 13.5784H9.40764C4.8009 13.5784 1.06641 17.3129 1.06641 21.9196V55.2845C1.06641 59.8913 4.8009 63.6258 9.40764 63.6258H67.7963C72.403 63.6258 76.1375 59.8913 76.1375 55.2845V21.9196C76.1375 17.3129 72.403 13.5784 67.7963 13.5784Z" stroke="#0D6A37" stroke-width="2.13333"/>
<path d="M26.0898 13.5785V5.23727C26.0898 2.93392 27.9571 1.06665 30.2605 1.06665H46.9429C49.2464 1.06665 51.1135 2.93392 51.1135 5.23727V13.5785" stroke="#0D6A37" stroke-width="2.13333" stroke-linecap="round" stroke-linejoin="round"/>
<path d="M1.06641 34.4316H76.1375" stroke="#0D6A37" stroke-width="2.13333" stroke-linecap="round"/>
<path d="M26.0925 38.6027C28.3959 38.6027 30.2631 36.7355 30.2631 34.4321C30.2631 32.1287 28.3959 30.2615 26.0925 30.2615C23.7891 30.2615 21.9219 32.1287 21.9219 34.4321C21.9219 36.7355 23.7891 38.6027 26.0925 38.6027Z" fill="#0D6A37"/>
<path d="M51.1198 38.6027C53.4232 38.6027 55.2905 36.7355 55.2905 34.4321C55.2905 32.1287 53.4232 30.2615 51.1198 30.2615C48.8165 30.2615 46.9492 32.1287 46.9492 34.4321C46.9492 36.7355 48.8165 38.6027 51.1198 38.6027Z" fill="#0D6A37"/>
</svg>
