<svg width="54" height="48" viewBox="0 0 54 48" fill="none" xmlns="http://www.w3.org/2000/svg">
<path d="M18.1504 0.899902H23.9004C26.7754 0.899902 29.6504 3.7749 29.6504 6.6499C29.6504 9.5249 32.5254 12.3999 35.4004 12.3999C38.2754 12.3999 41.1504 9.5249 41.1504 6.6499V0.899902H52.6504V12.3999C52.6504 15.2749 49.7754 18.1499 46.9004 18.1499C44.0254 18.1499 41.1504 21.0249 41.1504 23.8999C41.1504 26.7749 44.0254 29.6499 46.9004 29.6499C49.7754 29.6499 52.6504 32.5249 52.6504 35.3999V46.8999H41.1504V41.1499C41.1504 38.2749 38.2754 35.3999 35.4004 35.3999C32.5254 35.3999 29.6504 38.2749 29.6504 41.1499C29.6504 44.0249 26.7754 46.8999 23.9004 46.8999C21.0254 46.8999 18.1504 44.0249 18.1504 41.1499V46.8999H0.900391V35.3999C0.900391 32.5249 3.77539 29.6499 6.65039 29.6499C9.52539 29.6499 12.4004 26.7749 12.4004 23.8999C12.4004 21.0249 9.52539 18.1499 6.65039 18.1499C3.77539 18.1499 0.900391 15.2749 0.900391 12.3999V0.899902H12.4004V6.6499C12.4004 9.5249 15.2754 12.3999 18.1504 12.3999C21.0254 12.3999 23.9004 9.5249 23.9004 6.6499C23.9004 3.7749 21.0254 0.899902 18.1504 0.899902Z" stroke="#0D6A37" stroke-width="1.8" stroke-linejoin="round"/>
</svg>
