<?xml version="1.0" encoding="utf-8"?>
<!-- Generator: Adobe Illustrator 25.2.0, SVG Export Plug-In . SVG Version: 6.00 Build 0)  -->
<svg version="1.1" id="Layer_1" xmlns="http://www.w3.org/2000/svg" xmlns:xlink="http://www.w3.org/1999/xlink" x="0px" y="0px"
	 viewBox="0 0 64 64" style="enable-background:new 0 0 64 64;" xml:space="preserve">
<style type="text/css">
	.st0{fill:#231F20;}
</style>
<path class="st0" d="M32,61.5c-0.1,0-0.2,0-0.3-0.1C28.1,60.1,4.3,44,0.7,26.6c-2.3-11,1.1-18.9,9.7-22.7C21.6-1,29.5,7.9,32,11.2
	C34.5,7.9,42.4-1,53.6,3.9c8.6,3.8,12,11.6,9.7,22.7c-3.6,17.4-27.4,33.5-31,34.8C32.2,61.5,32.1,61.5,32,61.5z M17.6,5.4
	c-1.7,0-3.7,0.4-5.7,1.3C4.5,10,1.7,16.6,3.7,26.4c3.2,15.4,24.4,30,28.3,32c3.9-1.9,25.1-16.6,28.3-32c2-9.8-0.8-16.5-8.3-19.7
	C40.5,1.6,32.9,14,32.8,14.1c-0.2,0.3-0.5,0.5-0.8,0.5l0,0c-0.3,0-0.7-0.2-0.8-0.5C30.9,13.7,25.8,5.4,17.6,5.4z"/>
</svg>
