<?xml version="1.0" encoding="utf-8"?>
<!-- Generator: Adobe Illustrator 25.2.0, SVG Export Plug-In . SVG Version: 6.00 Build 0)  -->
<svg version="1.1" id="Layer_2_1_" xmlns="http://www.w3.org/2000/svg" xmlns:xlink="http://www.w3.org/1999/xlink" x="0px" y="0px"
	 viewBox="0 0 29 29" style="enable-background:new 0 0 29 29;" xml:space="preserve">
<path d="M11.5,23C5.2,23,0,17.8,0,11.5S5.2,0,11.5,0S23,5.2,23,11.5S17.8,23,11.5,23z M11.5,1.6C6,1.6,1.6,6,1.6,11.5
	s4.4,9.9,9.9,9.9s9.9-4.4,9.9-9.9S17,1.6,11.5,1.6z"/>
<path d="M27.4,28.4c-0.2,0-0.5-0.1-0.6-0.2l-7.9-8.1c-0.4-0.4-0.4-0.8,0-1.2s0.9-0.2,1.3,0l7.9,8.1c0.4,0.4,0.4,0.8,0,1.2
	C27.9,28.3,27.7,28.4,27.4,28.4z"/>
</svg>
