<svg width="769" height="699" viewBox="0 0 769 699" fill="none" xmlns="http://www.w3.org/2000/svg">
<path d="M648.015 277.553L610.623 276.907L622.056 265.854L659.448 266.5L648.015 277.553Z" fill="#8DC540" fill-opacity="0.12"/>
<path d="M627.896 296.998L590.508 296.351L601.941 285.298L639.329 285.944L627.896 296.998Z" fill="#8DC540" fill-opacity="0.12"/>
<path d="M624.283 10.8716L588.229 10.2514L581.252 3.02881L617.306 3.64898L624.283 10.8716Z" fill="#8DC540" fill-opacity="0.12"/>
<path d="M643.721 31.0043L607.667 30.3842L596.619 18.9414L632.677 19.5653L643.721 31.0043Z" fill="#8DC540" fill-opacity="0.12"/>
<path d="M663.16 51.1337L627.103 50.5098L616.055 39.0708L652.112 39.6947L663.16 51.1337Z" fill="#8DC540" fill-opacity="0.12"/>
<path d="M668.138 258.102L630.742 257.459L732.222 159.371L635.493 59.1992L671.555 59.8232L682.603 71.2659L768.937 160.672H768.933L679.571 247.052L668.138 258.102Z" fill="#8DC540" fill-opacity="0.12"/>
<path d="M607.775 316.446L570.387 315.799L581.82 304.746L619.212 305.393L607.775 316.446Z" fill="#8DC540" fill-opacity="0.12"/>
<path d="M611.883 257.133L570.942 256.426L571.002 252.898L460.641 250.996L460.712 246.806L571.074 248.708L571.135 245.18L597.263 245.63L605.741 237.432L590.861 237.175L590.921 233.65L480.556 231.745L480.627 227.555L590.993 229.461L591.053 225.932L617.174 226.382L617.178 226.379L625.868 217.988L610.98 217.73L611.04 214.202L500.675 212.296L500.746 208.107L611.112 210.012L611.176 206.484L637.301 206.934L645.987 198.539L631.103 198.282L631.163 194.754L520.794 192.848L520.865 188.658L631.235 190.564L631.295 187.036L657.42 187.486L666.106 179.091L651.218 178.834L651.282 175.306L540.913 173.4L540.988 169.214L651.354 171.116L651.414 167.588L677.543 168.038L686.625 159.254L677.849 150.159L651.72 149.709L651.781 146.181L541.415 144.275L541.487 140.085L651.853 141.991L651.917 138.463L666.801 138.72L658.41 130.03L632.286 129.576L632.346 126.048L521.977 124.146L522.048 119.956L632.418 121.858L632.478 118.334L647.366 118.587L638.972 109.898L612.847 109.448L612.907 105.919L502.538 104.017L502.61 99.8275L612.979 101.73L613.04 98.2014L627.928 98.4586L619.533 89.7687H619.529L593.408 89.3187L593.469 85.7906L483.103 83.8885L483.175 79.6986L593.54 81.6007L593.601 78.0726L608.485 78.3297L600.291 69.8441L574.166 69.3941L574.226 65.866L463.861 63.9601L463.933 59.774L574.298 61.6761L574.359 58.1479L616.634 58.874L713.363 159.046L611.883 257.133Z" fill="#8DC540" fill-opacity="0.12"/>
<path d="M608.243 50.184L554.731 49.2613L554.791 45.7332L444.422 43.8311L444.494 39.6412L554.863 41.5471L554.923 38.0151L597.195 38.745L608.243 50.184Z" fill="#8DC540" fill-opacity="0.12"/>
<path d="M551.524 315.474L510.586 314.767L510.647 311.243L400.277 309.337L400.349 305.147L510.719 307.053L510.779 303.521L562.957 304.421L551.524 315.474Z" fill="#8DC540" fill-opacity="0.12"/>
<path d="M515.854 9.00371L515.914 5.47937L405.549 3.5735L405.609 0L562.389 2.70376L569.37 9.9264L515.854 9.00371Z" fill="#8DC540" fill-opacity="0.12"/>
<path d="M588.807 30.0593L535.288 29.1366L535.352 25.6047L424.982 23.7026L425.054 19.5128L535.424 21.4149L535.484 17.8867L577.759 18.6165L588.807 30.0593Z" fill="#8DC540" fill-opacity="0.12"/>
<path d="M591.762 276.582L550.824 275.878L550.885 272.346L440.516 270.441L440.587 266.251L550.957 268.157L551.017 264.628L603.195 265.528L591.762 276.582Z" fill="#8DC540" fill-opacity="0.12"/>
<path d="M571.645 296.026L530.704 295.319L530.764 291.795L420.398 289.889L420.47 285.699L530.836 287.605L530.896 284.073L583.078 284.973L571.645 296.026Z" fill="#8DC540" fill-opacity="0.12"/>
<path d="M387.167 392.216L413.292 392.666L413.352 389.138L523.718 391.04L523.79 386.85L413.424 384.948L413.485 381.42L372.472 380.712L273.094 476.766C281.33 477.375 289.565 477.984 297.801 478.592L306.888 469.808L333.012 470.258L333.073 466.73L443.442 468.632L443.514 464.442L333.145 462.54L333.205 459.012L318.321 458.755L327.007 450.36L353.131 450.81L353.192 447.282L463.561 449.184L463.633 444.994L353.264 443.092L353.324 439.564L338.44 439.307L347.126 430.912L373.25 431.362L373.311 427.833L483.677 429.736L483.748 425.546L373.383 423.644L373.443 420.116L358.559 419.858L367.245 411.467L393.37 411.917L393.43 408.389L503.796 410.291L503.867 406.101L393.502 404.199L393.562 400.671L378.678 400.414L381.808 397.389L387.16 392.216H387.167Z" fill="#8DC540" fill-opacity="0.12"/>
<path d="M382.251 372.337L381.162 372.318L382.27 371.248L382.251 372.337Z" fill="#8DC540" fill-opacity="0.12"/>
<path d="M473.65 334.325L421.4 333.425L432.834 322.372L473.843 323.079L473.782 326.607L584.152 328.509L584.08 332.699L473.711 330.797L473.65 334.325Z" fill="#8DC540" fill-opacity="0.12"/>
<path d="M433.411 373.217L382.25 372.336L382.269 371.247L392.595 361.264L433.604 361.971L433.544 365.503L543.913 367.405L543.841 371.595L433.472 369.693L433.411 373.217Z" fill="#8DC540" fill-opacity="0.12"/>
<path d="M453.529 353.773L401.275 352.873L412.709 341.82L453.725 342.527L453.661 346.055L564.031 347.957L563.959 352.147L453.589 350.245L453.529 353.773Z" fill="#8DC540" fill-opacity="0.12"/>
<path d="M402.539 333.099L365.219 332.457L376.656 321.403L413.972 322.046L402.539 333.099Z" fill="#8DC540" fill-opacity="0.12"/>
<path d="M362.297 371.992L324.98 371.349L336.414 360.296L373.734 360.939L362.297 371.992Z" fill="#8DC540" fill-opacity="0.12"/>
<path d="M382.414 352.548L345.098 351.901L356.531 340.852L393.847 341.494L382.414 352.548Z" fill="#8DC540" fill-opacity="0.12"/>
<path d="M279.664 525.864L331.914 526.768L320.48 537.818L279.471 537.11L279.531 533.582L169.162 531.68L169.234 527.49L279.603 529.396L279.664 525.864Z" fill="#8DC540" fill-opacity="0.12"/>
<path d="M319.902 486.972L371.067 487.853L371.048 488.946L360.718 498.925L319.709 498.218L319.77 494.69L209.4 492.784L209.476 488.594L319.842 490.5L319.902 486.972Z" fill="#8DC540" fill-opacity="0.12"/>
<path d="M299.785 506.416L352.038 507.32L340.605 518.369L299.592 517.662L299.653 514.138L189.283 512.232L189.355 508.042L299.724 509.948L299.785 506.416Z" fill="#8DC540" fill-opacity="0.12"/>
<path d="M350.779 527.093L388.096 527.736L376.662 538.785L339.346 538.142L350.779 527.093Z" fill="#8DC540" fill-opacity="0.12"/>
<path d="M391.017 488.197L428.334 488.84L416.9 499.897L379.584 499.25L391.017 488.197Z" fill="#8DC540" fill-opacity="0.12"/>
<path d="M370.898 507.646L408.215 508.288L396.781 519.342L359.465 518.695L370.898 507.646Z" fill="#8DC540" fill-opacity="0.12"/>
<path d="M254.235 476.444L353.61 380.391L316.29 379.748L215.49 477.178C228.405 476.936 241.32 476.69 254.235 476.444Z" fill="#8DC540" fill-opacity="0.12"/>
<path d="M159.882 612.623L186.007 613.073L186.067 609.545L296.433 611.447L296.505 607.257L186.139 605.355L186.2 601.827L145.187 601.12L45.8086 697.174C54.0444 697.782 62.2803 698.391 70.5161 699L79.6024 690.216L105.727 690.666L105.788 687.138L216.157 689.04L216.229 684.85L105.86 682.948L105.92 679.42L91.0358 679.162L99.7214 670.767L125.846 671.218L125.907 667.689L236.276 669.591L236.348 665.402L125.979 663.499L126.039 659.971L111.155 659.714L119.84 651.319L145.965 651.769L146.026 648.241L256.391 650.143L256.463 645.953L146.098 644.051L146.158 640.523L131.274 640.266L139.959 631.875L166.084 632.325L166.145 628.797L276.51 630.699L276.582 626.509L166.217 624.607L166.277 621.079L151.393 620.822L154.522 617.797L159.874 612.623H159.882Z" fill="#8DC540" fill-opacity="0.12"/>
<path d="M246.363 554.733L194.113 553.833L205.547 542.779L246.556 543.486L246.495 547.015L356.865 548.917L356.793 553.107L246.424 551.204L246.363 554.733Z" fill="#8DC540" fill-opacity="0.12"/>
<path d="M206.126 593.625L154.961 592.744L154.98 591.655L165.31 581.672L206.319 582.379L206.258 585.911L316.624 587.813L316.552 592.003L206.186 590.101L206.126 593.625Z" fill="#8DC540" fill-opacity="0.12"/>
<path d="M226.244 574.18L173.99 573.28L185.424 562.227L226.437 562.934L226.376 566.462L336.745 568.364L336.674 572.554L226.304 570.652L226.244 574.18Z" fill="#8DC540" fill-opacity="0.12"/>
<path d="M175.248 553.507L137.932 552.861L149.365 541.811L186.681 542.454L175.248 553.507Z" fill="#8DC540" fill-opacity="0.12"/>
<path d="M135.012 592.4L97.6953 591.757L109.129 580.704L146.445 581.346L135.012 592.4Z" fill="#8DC540" fill-opacity="0.12"/>
<path d="M155.129 572.955L117.812 572.309L129.246 561.259L166.562 561.902L155.129 572.955Z" fill="#8DC540" fill-opacity="0.12"/>
<path d="M26.9521 696.849L126.327 600.795L89.0063 600.152L-11.793 697.582C1.12207 697.34 14.0371 697.095 26.9521 696.849Z" fill="#8DC540" fill-opacity="0.12"/>
</svg>
