<svg width="20" height="17" viewBox="0 0 20 17" fill="none" xmlns="http://www.w3.org/2000/svg">
<path opacity="0.8" d="M10.408 0.13958C10.2897 0.0491242 10.144 0 9.994 0C9.844 0 9.6983 0.0491242 9.58 0.13958L0 7.46608L0.828667 8.49394L2 7.59816V15.6923C2.0007 16.0389 2.14141 16.3711 2.3913 16.6162C2.6412 16.8613 2.97993 16.9993 3.33333 17H16.6667C17.0201 16.9993 17.3588 16.8613 17.6087 16.6162C17.8586 16.3711 17.9993 16.0389 18 15.6923V7.60404L19.1713 8.49983L20 7.47196L10.408 0.13958ZM11.3333 15.6923H8.66667V10.4614H11.3333V15.6923ZM12.6667 15.6923V10.4614C12.6667 10.1146 12.5262 9.78195 12.2761 9.53671C12.0261 9.29146 11.687 9.15369 11.3333 9.15369H8.66667C8.31304 9.15369 7.97391 9.29146 7.72386 9.53671C7.47381 9.78195 7.33333 10.1146 7.33333 10.4614V15.6923H3.33333V6.57879L10 1.48522L16.6667 6.58533V15.6923H12.6667Z" fill="#3C3C3C"/>
</svg>
