<svg width="79" height="79" viewBox="0 0 79 79" fill="none" xmlns="http://www.w3.org/2000/svg">
<path d="M10.4837 20.0666C15.7765 20.0666 20.0671 15.776 20.0671 10.4832C20.0671 5.19051 15.7765 0.899902 10.4837 0.899902C5.191 0.899902 0.900391 5.19051 0.900391 10.4832C0.900391 15.776 5.191 20.0666 10.4837 20.0666Z" stroke="#0D6A37" stroke-width="1.8"/>
<path d="M67.9837 20.0666C73.2765 20.0666 77.5671 15.776 77.5671 10.4832C77.5671 5.19051 73.2765 0.899902 67.9837 0.899902C62.691 0.899902 58.4004 5.19051 58.4004 10.4832C58.4004 15.776 62.691 20.0666 67.9837 20.0666Z" stroke="#0D6A37" stroke-width="1.8"/>
<path d="M10.4837 77.5666C15.7765 77.5666 20.0671 73.276 20.0671 67.9832C20.0671 62.6905 15.7765 58.3999 10.4837 58.3999C5.191 58.3999 0.900391 62.6905 0.900391 67.9832C0.900391 73.276 5.191 77.5666 10.4837 77.5666Z" stroke="#0D6A37" stroke-width="1.8"/>
<path d="M67.9837 77.5666C73.2765 77.5666 77.5671 73.276 77.5671 67.9832C77.5671 62.6905 73.2765 58.3999 67.9837 58.3999C62.691 58.3999 58.4004 62.6905 58.4004 67.9832C58.4004 73.276 62.691 77.5666 67.9837 77.5666Z" stroke="#0D6A37" stroke-width="1.8"/>
<path d="M20.0684 10.4834H58.4017" stroke="#0D6A37" stroke-width="1.6" stroke-linecap="round"/>
<path d="M10.4844 20.0667V58.4" stroke="#0D6A37" stroke-width="1.6" stroke-linecap="round"/>
<path d="M67.9844 20.0667V58.4" stroke="#0D6A37" stroke-width="1.6" stroke-linecap="round"/>
<path d="M20.0684 67.9834H58.4017" stroke="#0D6A37" stroke-width="1.6" stroke-linecap="round"/>
</svg>
