<svg width="103" height="92" viewBox="0 0 103 92" fill="none" xmlns="http://www.w3.org/2000/svg">
<path d="M51.25 11.9722C54.0556 11.9722 59.6667 6.36111 62.4722 0.75C68.0833 0.75 73.6944 3.55556 76.5 6.36111C82.1111 9.16667 84.9167 14.7778 84.9167 20.3889C90.5278 23.1944 96.1389 26 101.75 28.8056C101.75 34.4167 101.75 40.0278 101.75 45.6389C101.75 51.25 101.75 56.8611 101.75 62.4722C96.1389 65.2778 90.5278 68.0833 84.9167 70.8889C84.9167 76.5 82.1111 82.1111 76.5 84.9167C73.6944 87.7222 68.0833 90.5278 62.4722 90.5278C59.6667 84.9167 54.0556 79.3056 51.25 79.3056C48.4444 79.3056 42.8333 84.9167 40.0278 90.5278C34.4167 90.5278 28.8056 87.7222 26 84.9167C20.3889 82.1111 17.5833 76.5 17.5833 70.8889C11.9722 68.0833 6.36111 65.2778 0.75 62.4722C0.75 56.8611 0.75 51.25 0.75 45.6389C0.75 40.0278 0.75 34.4167 0.75 28.8056C6.36111 26 11.9722 23.1944 17.5833 20.3889C17.5833 14.7778 20.3889 9.16667 26 6.36111C28.8056 3.55556 34.4167 0.75 40.0278 0.75C42.8333 6.36111 48.4444 11.9722 51.25 11.9722Z" stroke="#0D6A37" stroke-width="1.5" stroke-linecap="round" stroke-linejoin="round"/>
<path d="M51.2493 62.4723C60.5461 62.4723 68.0827 54.9358 68.0827 45.639C68.0827 36.3422 60.5461 28.8057 51.2493 28.8057C41.9526 28.8057 34.416 36.3422 34.416 45.639C34.416 54.9358 41.9526 62.4723 51.2493 62.4723Z" stroke="#0D6A37" stroke-width="1.5"/>
</svg>
