<svg width="19" height="13" viewBox="0 0 19 13" fill="none" xmlns="http://www.w3.org/2000/svg">
<path fill-rule="evenodd" clip-rule="evenodd" d="M0.539386 0.741656L0.647263 0.620295C1.04263 0.206855 1.63164 0 2.41375 0H15.8175C16.5546 0 17.1209 0.179885 17.5166 0.539386L17.5301 0.552871C17.611 0.62488 17.6921 0.710102 17.7728 0.80908C17.7728 0.818249 17.7774 0.827149 17.7863 0.836049L17.7997 0.849534C18.0967 1.2182 18.2447 1.73952 18.2447 2.41375V10.0461C18.2358 11.6642 17.4268 12.4733 15.8175 12.4733H2.41375C0.804495 12.4644 0 11.6553 0 10.0461V2.41375C0 1.68558 0.179885 1.12813 0.539386 0.741656ZM16.2625 1.3215C16.1276 1.28563 15.9793 1.27187 15.8178 1.28104H2.41375C2.31478 1.27214 2.22038 1.27646 2.13058 1.29453L9.07517 8.33352L16.2625 1.3215ZM1.28104 2.26542C1.27214 2.31046 1.27214 2.35982 1.28104 2.41375V10.0461C1.28104 10.8104 1.65861 11.1923 2.41375 11.1923H15.8175C16.5815 11.1923 16.9637 10.8104 16.9637 10.0461V2.42724L9.52017 9.69547C9.38532 9.82142 9.23268 9.88426 9.06196 9.88426C8.88207 9.87536 8.72916 9.81225 8.60348 9.69547L1.28104 2.26542Z" fill="white"/>
<path fill-rule="evenodd" clip-rule="evenodd" d="M0.539062 0.742455C0.557132 0.715486 0.579516 0.688517 0.606485 0.661548C0.615654 0.643478 0.628869 0.629994 0.646938 0.621094L0.539062 0.742455Z" fill="white"/>
</svg>
