<svg width="15" height="19" viewBox="0 0 15 19" fill="none" xmlns="http://www.w3.org/2000/svg">
<path d="M7.277 19C7.068 19 6.878 18.905 6.745 18.753C6.061 17.974 0 11.077 0 7.277C0 3.268 3.268 0 7.277 0C11.286 0 14.554 3.268 14.554 7.277C14.554 11.058 8.493 17.974 7.809 18.753C7.676 18.905 7.486 19 7.277 19ZM7.277 1.444C4.066 1.444 1.444 4.066 1.444 7.277C1.444 9.785 5.263 14.782 7.277 17.176C9.291 14.801 13.11 9.785 13.11 7.277C13.11 4.066 10.488 1.444 7.277 1.444Z" fill="white"/>
<path d="M7.27691 11.0199C5.26291 11.0199 3.62891 9.38588 3.62891 7.37188C3.62891 5.35788 5.26291 3.72388 7.27691 3.72388C9.29091 3.72388 10.9249 5.35788 10.9249 7.37188C10.9249 9.38588 9.29091 11.0199 7.27691 11.0199ZM7.27691 5.16788C6.06091 5.16788 5.07291 6.15588 5.07291 7.37188C5.07291 8.58788 6.06091 9.57588 7.27691 9.57588C8.49291 9.57588 9.48091 8.58788 9.48091 7.37188C9.48091 6.15588 8.49291 5.16788 7.27691 5.16788Z" fill="white"/>
</svg>
