<svg width="19" height="19" viewBox="0 0 19 19" fill="none" xmlns="http://www.w3.org/2000/svg">
<g clip-path="url(#clip0_49_3525)">
<path d="M10.1797 5.08379C11.1093 5.24336 11.9591 5.6831 12.6364 6.35849C13.3099 7.03203 13.7515 7.88183 13.9111 8.81328C13.9723 9.18066 14.2877 9.44599 14.6607 9.44599C14.7089 9.44599 14.7516 9.44043 14.7813 9.43486C14.7831 9.43486 14.785 9.43486 14.7868 9.43301C14.9891 9.39961 15.1654 9.29013 15.2823 9.12129C15.3991 8.95429 15.4437 8.7539 15.4084 8.55537C15.1969 7.31221 14.6106 6.18037 13.7107 5.28047C12.8071 4.38057 11.6734 3.79424 10.4321 3.58457H10.4302C10.0164 3.51592 9.62493 3.79609 9.55628 4.20801C9.49134 4.62363 9.76966 5.01514 10.1797 5.08379Z" fill="white"/>
<path d="M14.855 11.4524C14.4394 11.0201 13.9365 10.7919 13.4003 10.7919C12.8696 10.7919 12.3631 11.0164 11.9382 11.4432L10.8824 12.4989C10.8565 12.4859 10.8305 12.4729 10.8064 12.46L10.7525 12.434C10.6394 12.3765 10.5095 12.3115 10.4019 12.2447C9.31827 11.5563 8.3293 10.6546 7.37559 9.48564C6.96739 8.97168 6.68165 8.53564 6.47198 8.10146C6.73731 7.85098 6.98409 7.60049 7.21602 7.36299C7.26797 7.31104 7.31993 7.25723 7.37374 7.20342C7.42569 7.14961 7.4795 7.0958 7.53331 7.04199C7.97491 6.60039 8.2087 6.08828 8.20684 5.56133C8.20684 5.03623 7.97305 4.52598 7.53331 4.08809L6.50723 3.06201C6.44786 3.00264 6.38848 2.94326 6.33096 2.88389C6.27344 2.82451 6.21407 2.76514 6.15655 2.70762L6.07491 2.62412C5.87266 2.41816 5.66299 2.20479 5.45147 2.00996C5.03956 1.5999 4.54043 1.38281 4.01163 1.38281C3.48467 1.38281 2.98184 1.5999 2.55323 2.00996C2.55137 2.01182 2.54952 2.01182 2.54952 2.01367L1.26368 3.29766C0.738579 3.82275 0.439849 4.46289 0.374907 5.19951V5.20137C0.306255 6.07344 0.46397 6.99375 0.872173 8.09775C1.49004 9.76768 2.41778 11.3151 3.78897 12.9665C5.4626 14.9611 7.47208 16.5346 9.75987 17.6423H9.76172C10.6431 18.0635 11.8269 18.557 13.1628 18.6442C13.1647 18.6442 13.1665 18.6442 13.1684 18.6442H13.1776C13.2537 18.6479 13.3335 18.6517 13.417 18.6517C14.354 18.6517 15.1444 18.3121 15.7642 17.6423L15.7734 17.633C15.7809 17.6256 15.7864 17.62 15.792 17.6126C15.9775 17.3899 16.1909 17.184 16.4303 16.9539C16.5954 16.7962 16.7643 16.6348 16.9275 16.4604C17.3487 16.0206 17.5714 15.5085 17.5695 14.9797C17.5677 14.449 17.3413 13.9425 16.9146 13.5157L14.855 11.4524ZM14.6509 16.6236C14.3206 16.9762 13.9421 17.1339 13.4263 17.1339C13.378 17.1339 13.3242 17.1302 13.2686 17.1265C12.1998 17.0578 11.1886 16.6348 10.4278 16.2729C8.32745 15.2617 6.48682 13.8219 4.95606 11.9924C3.70362 10.4839 2.85938 9.07744 2.30088 7.5708C1.9669 6.67461 1.84073 5.98066 1.89268 5.32568C1.92608 4.94346 2.06895 4.63916 2.3417 4.37012L3.61827 3.09355C3.75186 2.96553 3.88917 2.89688 4.01719 2.89688C4.1378 2.89688 4.26583 2.96367 4.40127 3.09541C4.40313 3.09727 4.40499 3.09912 4.40684 3.10098C4.62764 3.30879 4.84288 3.52773 5.0711 3.75781L5.07852 3.76523C5.18799 3.87842 5.31417 4.0083 5.44219 4.13262L6.46641 5.15684C6.76514 5.45557 6.76514 5.66523 6.46641 5.96396C6.35879 6.07158 6.24932 6.18105 6.1417 6.29238L6.06563 6.37031C5.77803 6.66162 5.50713 6.93623 5.21211 7.19785C5.2084 7.20156 5.20284 7.20527 5.19913 7.21084L5.18057 7.22939C4.867 7.54297 4.78165 7.91777 4.92823 8.34082C4.93194 8.35195 4.93565 8.36123 4.93936 8.37051C4.94122 8.37607 4.94307 8.38164 4.94678 8.38721C5.22139 9.04961 5.60733 9.67861 6.20108 10.4301C6.20108 10.4319 6.20294 10.4319 6.20294 10.4338C7.25684 11.7308 8.36827 12.7438 9.60215 13.5269C9.76358 13.6289 9.93057 13.7143 10.0864 13.7922C10.2015 13.8497 10.3314 13.9165 10.439 13.9814C10.4464 13.987 10.4538 13.9907 10.4612 13.9944L10.4668 13.9981C10.4779 14.0037 10.4891 14.0111 10.5021 14.0167C10.6635 14.0983 10.8231 14.1373 10.9882 14.1373C11.2702 14.1373 11.53 14.0204 11.7397 13.7996L13.0236 12.5156C13.1164 12.4229 13.2611 12.3115 13.4133 12.3115C13.5543 12.3115 13.6916 12.421 13.7807 12.5138C13.7825 12.5156 13.7825 12.5156 13.7844 12.5175L15.8569 14.59C16.061 14.7941 16.2002 15.0354 15.8402 15.4139L15.8384 15.4157C15.7252 15.5382 15.6046 15.6551 15.4766 15.7794C15.4487 15.8054 15.4209 15.8332 15.3931 15.861C15.1333 16.1041 14.8847 16.3453 14.6509 16.6236Z" fill="white"/>
<path d="M18.6264 8.40518C18.285 6.3957 17.335 4.5625 15.8784 3.10596C14.4163 1.64756 12.5831 0.697558 10.5718 0.358007C10.158 0.289354 9.7665 0.56953 9.69785 0.981444C9.6292 1.39521 9.90938 1.78672 10.3194 1.85537C12.0209 2.14482 13.5702 2.9501 14.8022 4.18027C16.0343 5.4123 16.8377 6.96162 17.1272 8.66123C17.1884 9.02861 17.5038 9.29395 17.8768 9.29395C17.8786 9.29395 17.8805 9.29395 17.8823 9.29395C17.9287 9.29395 17.9677 9.28838 17.9974 9.28281C17.9992 9.28281 18.0011 9.28281 18.0029 9.28096C18.2052 9.24756 18.3814 9.13809 18.4983 8.96924C18.6171 8.8041 18.6616 8.60371 18.6264 8.40518Z" fill="white"/>
</g>
<defs>
<clipPath id="clip0_49_3525">
<rect width="19" height="19" fill="white"/>
</clipPath>
</defs>
</svg>
