<svg width="55" height="42" viewBox="0 0 55 42" fill="none" xmlns="http://www.w3.org/2000/svg">
<path d="M14.1252 16.75C18.4745 16.75 22.0002 13.2242 22.0002 8.875C22.0002 4.52576 18.4745 1 14.1252 1C9.776 1 6.25024 4.52576 6.25024 8.875C6.25024 13.2242 9.776 16.75 14.1252 16.75Z" stroke="#0D6A37" stroke-width="2"/>
<path d="M40.3752 16.75C44.7245 16.75 48.2502 13.2242 48.2502 8.875C48.2502 4.52576 44.7245 1 40.3752 1C36.026 1 32.5002 4.52576 32.5002 8.875C32.5002 13.2242 36.026 16.75 40.3752 16.75Z" stroke="#0D6A37" stroke-width="2"/>
<path d="M1.00024 40.375C3.10024 28.5625 10.1877 22 14.1252 22C18.0627 22 25.1502 28.5625 27.2502 40.375" stroke="#0D6A37" stroke-width="2" stroke-linecap="round"/>
<path d="M27.2502 40.375C29.3502 28.5625 36.4377 22 40.3752 22C44.3127 22 51.4002 28.5625 53.5002 40.375" stroke="#0D6A37" stroke-width="2" stroke-linecap="round"/>
</svg>
