<svg width="18" height="12" viewBox="0 0 18 12" fill="none" xmlns="http://www.w3.org/2000/svg">
<path fill-rule="evenodd" clip-rule="evenodd" d="M9 0C4.90909 0 1.41545 2.488 0 6C1.41545 9.512 4.90909 12 9 12C13.0909 12 16.5845 9.512 18 6C16.5845 2.488 13.0909 0 9 0ZM8.99716 10C6.73898 10 4.90625 8.208 4.90625 6C4.90625 3.792 6.73898 2 8.99716 2C11.2553 2 13.0881 3.792 13.0881 6C13.0881 8.208 11.2553 10 8.99716 10ZM9.00142 3.59961C7.64324 3.59961 6.54688 4.67161 6.54688 5.99961C6.54688 7.32761 7.64324 8.39961 9.00142 8.39961C10.3596 8.39961 11.456 7.32761 11.456 5.99961C11.456 4.67161 10.3596 3.59961 9.00142 3.59961Z" fill="#84818A"/>
</svg>
