<svg width="28" height="26" viewBox="0 0 28 26" fill="none" xmlns="http://www.w3.org/2000/svg">
<path d="M7.4 4.84V5.84C7.75567 5.84 8.08457 5.65109 8.26378 5.34387L7.4 4.84ZM9.64 1V0C9.28433 0 8.95543 0.188911 8.77622 0.496129L9.64 1ZM17.96 1L18.8238 0.496129C18.6446 0.188911 18.3157 0 17.96 0V1ZM20.2 4.84L19.3362 5.34387C19.5154 5.65109 19.8443 5.84 20.2 5.84V4.84ZM1 21.16H2V8.04H1H0V21.16H1ZM4.2 4.84V5.84H7.4V4.84V3.84H4.2V4.84ZM7.4 4.84L8.26378 5.34387L10.5038 1.50387L9.64 1L8.77622 0.496129L6.53622 4.33613L7.4 4.84ZM9.64 1V2H17.96V1V0H9.64V1ZM17.96 1L17.0962 1.50387L19.3362 5.34387L20.2 4.84L21.0638 4.33613L18.8238 0.496129L17.96 1ZM20.2 4.84V5.84H23.4V4.84V3.84H20.2V4.84ZM26.6 8.04H25.6V21.16H26.6H27.6V8.04H26.6ZM26.6 21.16H25.6C25.6 22.375 24.615 23.36 23.4 23.36V24.36V25.36C25.7196 25.36 27.6 23.4796 27.6 21.16H26.6ZM23.4 4.84V5.84C24.615 5.84 25.6 6.82497 25.6 8.04H26.6H27.6C27.6 5.7204 25.7196 3.84 23.4 3.84V4.84ZM1 8.04H2C2 6.82497 2.98497 5.84 4.2 5.84V4.84V3.84C1.8804 3.84 0 5.7204 0 8.04H1ZM4.2 24.36V23.36C2.98497 23.36 2 22.375 2 21.16H1H0C0 23.4796 1.8804 25.36 4.2 25.36V24.36ZM18.6 13.8H17.6C17.6 15.8987 15.8987 17.6 13.8 17.6V18.6V19.6C17.0033 19.6 19.6 17.0033 19.6 13.8H18.6ZM13.8 18.6V17.6C11.7013 17.6 10 15.8987 10 13.8H9H8C8 17.0033 10.5967 19.6 13.8 19.6V18.6ZM9 13.8H10C10 11.7013 11.7013 10 13.8 10V9V8C10.5967 8 8 10.5967 8 13.8H9ZM13.8 9V10C15.8987 10 17.6 11.7013 17.6 13.8H18.6H19.6C19.6 10.5967 17.0033 8 13.8 8V9ZM23.4 24.36V23.36H4.2V24.36V25.36H23.4V24.36Z" fill="black"/>
</svg>
