<svg width="14" height="13" viewBox="0 0 14 13" fill="none" xmlns="http://www.w3.org/2000/svg">
<path d="M2.88895 1.4452C2.88876 1.8283 2.73639 2.19563 2.46536 2.46638C2.19434 2.73714 1.82685 2.88914 1.44375 2.88895C1.06065 2.88876 0.693323 2.73639 0.422566 2.46536C0.15181 2.19434 -0.000191369 1.82685 1.80821e-07 1.44375C0.00019173 1.06065 0.152561 0.693323 0.423588 0.422566C0.694615 0.15181 1.0621 -0.000191369 1.4452 1.8082e-07C1.8283 0.00019173 2.19563 0.152561 2.46638 0.423588C2.73714 0.694615 2.88914 1.0621 2.88895 1.4452ZM2.93229 3.95858H0.0433344V13.001H2.93229V3.95858ZM7.49683 3.95858H4.62232V13.001H7.46794V8.2559C7.46794 5.61251 10.913 5.36695 10.913 8.2559V13.001H13.7658V7.27366C13.7658 2.81745 8.66685 2.98356 7.46794 5.17194L7.49683 3.95858Z" fill="#136B37"/>
</svg>
