<svg width="11" height="11" viewBox="0 0 11 11" fill="none" xmlns="http://www.w3.org/2000/svg">
<path d="M2.3085 1.22277C2.30835 1.5469 2.18659 1.8577 1.97002 2.08678C1.75345 2.31586 1.4598 2.44447 1.15367 2.44431C0.847547 2.44415 0.55402 2.31523 0.337664 2.08592C0.121308 1.8566 -0.000152919 1.54568 1.4449e-07 1.22154C0.000153208 0.897408 0.121908 0.586613 0.33848 0.357529C0.555052 0.128445 0.848701 -0.000161915 1.15483 1.5299e-07C1.46095 0.000162221 1.75448 0.12908 1.97084 0.358393C2.18719 0.587706 2.30865 0.89863 2.3085 1.22277ZM2.34313 3.34931H0.0346276V11H2.34313V3.34931ZM5.99056 3.34931H3.6936V11H5.96747V6.98522C5.96747 4.74868 8.72036 4.54092 8.72036 6.98522V11H11V6.15416C11 2.38381 6.9255 2.52436 5.96747 4.37592L5.99056 3.34931Z" fill="black"/>
</svg>
