<svg width="13" height="13" viewBox="0 0 13 13" fill="none" xmlns="http://www.w3.org/2000/svg">
<path d="M9.971 2.249C9.81673 2.249 9.66593 2.29475 9.53765 2.38045C9.40938 2.46616 9.30941 2.58798 9.25037 2.73051C9.19134 2.87303 9.17589 3.02987 9.20599 3.18117C9.23608 3.33248 9.31037 3.47146 9.41946 3.58054C9.52854 3.68963 9.66752 3.76392 9.81883 3.79401C9.97013 3.82411 10.127 3.80866 10.2695 3.74963C10.412 3.69059 10.5338 3.59062 10.6195 3.46234C10.7053 3.33407 10.751 3.18327 10.751 3.029C10.751 2.82213 10.6688 2.62373 10.5225 2.47746C10.3763 2.33118 10.1779 2.249 9.971 2.249ZM12.961 3.822C12.9484 3.28269 12.8474 2.74911 12.662 2.2425C12.4967 1.80904 12.2395 1.41653 11.908 1.092C11.5861 0.758827 11.1927 0.503215 10.7575 0.3445C10.2522 0.153505 9.71805 0.0501865 9.178 0.039C8.489 -3.63216e-08 8.268 0 6.5 0C4.732 0 4.511 -3.63216e-08 3.822 0.039C3.28195 0.0501865 2.74777 0.153505 2.2425 0.3445C1.80809 0.504822 1.41501 0.760214 1.092 1.092C0.758827 1.41387 0.503215 1.80729 0.3445 2.2425C0.153505 2.74777 0.0501865 3.28195 0.039 3.822C-3.63216e-08 4.511 0 4.732 0 6.5C0 8.268 -3.63216e-08 8.489 0.039 9.178C0.0501865 9.71805 0.153505 10.2522 0.3445 10.7575C0.503215 11.1927 0.758827 11.5861 1.092 11.908C1.41501 12.2398 1.80809 12.4952 2.2425 12.6555C2.74777 12.8465 3.28195 12.9498 3.822 12.961C4.511 13 4.732 13 6.5 13C8.268 13 8.489 13 9.178 12.961C9.71805 12.9498 10.2522 12.8465 10.7575 12.6555C11.1927 12.4968 11.5861 12.2412 11.908 11.908C12.241 11.5847 12.4984 11.1918 12.662 10.7575C12.8474 10.2509 12.9484 9.71731 12.961 9.178C12.961 8.489 13 8.268 13 6.5C13 4.732 13 4.511 12.961 3.822ZM11.791 9.1C11.7863 9.5126 11.7115 9.92141 11.57 10.309C11.4662 10.5919 11.2995 10.8475 11.0825 11.0565C10.8717 11.2713 10.6166 11.4377 10.335 11.544C9.94741 11.6855 9.5386 11.7603 9.126 11.765C8.476 11.7975 8.2355 11.804 6.526 11.804C4.8165 11.804 4.576 11.804 3.926 11.765C3.49758 11.773 3.07099 11.7071 2.665 11.57C2.39576 11.4582 2.15238 11.2923 1.95 11.0825C1.73426 10.8737 1.56965 10.6179 1.469 10.335C1.31031 9.94185 1.22229 9.52376 1.209 9.1C1.209 8.45 1.17 8.2095 1.17 6.5C1.17 4.7905 1.17 4.55 1.209 3.9C1.21191 3.47819 1.28892 3.06016 1.4365 2.665C1.55093 2.39064 1.72657 2.14608 1.95 1.95C2.14748 1.72651 2.39154 1.54901 2.665 1.43C3.06121 1.28703 3.4788 1.2123 3.9 1.209C4.55 1.209 4.7905 1.17 6.5 1.17C8.2095 1.17 8.45 1.17 9.1 1.209C9.5126 1.21373 9.92141 1.28846 10.309 1.43C10.6044 1.53962 10.8695 1.71785 11.0825 1.95C11.2955 2.14967 11.4619 2.39378 11.57 2.665C11.7145 3.06081 11.7892 3.47866 11.791 3.9C11.8235 4.55 11.83 4.7905 11.83 6.5C11.83 8.2095 11.8235 8.45 11.791 9.1ZM6.5 3.1655C5.84078 3.16678 5.19673 3.36344 4.64923 3.73062C4.10173 4.0978 3.67535 4.61903 3.42396 5.22844C3.17258 5.83785 3.10747 6.5081 3.23687 7.1545C3.36626 7.8009 3.68435 8.39445 4.15095 8.86014C4.61755 9.32582 5.21171 9.64276 5.85836 9.7709C6.50501 9.89903 7.17513 9.83262 7.78405 9.58005C8.39298 9.32748 8.91337 8.90009 9.27948 8.35187C9.6456 7.80366 9.841 7.15922 9.841 6.5C9.84186 6.06132 9.75598 5.62679 9.58831 5.22142C9.42063 4.81605 9.17446 4.44783 8.86397 4.13793C8.55347 3.82804 8.18477 3.58259 7.77907 3.4157C7.37337 3.24882 6.93868 3.16379 6.5 3.1655ZM6.5 8.6645C6.0719 8.6645 5.65342 8.53755 5.29747 8.29972C4.94152 8.06188 4.66409 7.72383 4.50026 7.32832C4.33644 6.93281 4.29357 6.4976 4.37709 6.07773C4.46061 5.65786 4.66676 5.27218 4.96947 4.96947C5.27218 4.66676 5.65786 4.46061 6.07773 4.37709C6.4976 4.29357 6.93281 4.33644 7.32832 4.50026C7.72383 4.66409 8.06188 4.94152 8.29972 5.29747C8.53755 5.65342 8.6645 6.0719 8.6645 6.5C8.6645 6.78425 8.60851 7.06571 8.49974 7.32832C8.39096 7.59093 8.23152 7.82954 8.03053 8.03053C7.82954 8.23152 7.59093 8.39096 7.32832 8.49974C7.06571 8.60851 6.78425 8.6645 6.5 8.6645Z" fill="black"/>
</svg>
