<svg width="660" height="940" viewBox="0 0 660 940" fill="none" xmlns="http://www.w3.org/2000/svg">
<path d="M497.532 372.913L447.293 372.044L462.655 357.193L512.894 358.062L497.532 372.913Z" fill="#F5F9EE"/>
<path d="M470.501 399.038L420.267 398.169L435.629 383.318L485.862 384.187L470.501 399.038Z" fill="#F5F9EE"/>
<path d="M465.646 14.607L417.205 13.7737L407.83 4.06958L456.272 4.90282L465.646 14.607Z" fill="#F5F9EE"/>
<path d="M491.764 41.6564L443.322 40.8232L428.479 25.449L476.925 26.2873L491.764 41.6564Z" fill="#F5F9EE"/>
<path d="M517.881 68.7013L469.434 67.863L454.591 52.4939L503.037 53.3322L517.881 68.7013Z" fill="#F5F9EE"/>
<path d="M524.569 346.778L474.325 345.915L610.67 214.126L480.708 79.5386L529.16 80.3769L544.003 95.7511L660 215.874H659.995L539.931 331.932L524.569 346.778Z" fill="#F5F9EE"/>
<path d="M443.464 425.168L393.23 424.3L408.592 409.449L458.831 410.318L443.464 425.168Z" fill="#F5F9EE"/>
<path d="M448.984 345.477L393.977 344.527L394.058 339.787L245.779 337.231L245.876 331.602L394.155 334.158L394.236 329.417L429.342 330.022L440.732 319.007L420.739 318.661L420.82 313.926L272.536 311.366L272.633 305.736L420.917 308.297L420.998 303.557L456.094 304.161L456.099 304.156L467.774 292.882L447.77 292.536L447.852 287.796L299.568 285.236L299.664 279.606L447.948 282.167L448.034 277.426L483.135 278.031L494.805 266.752L474.807 266.406L474.888 261.666L326.599 259.105L326.695 253.476L474.985 256.037L475.066 251.296L510.167 251.901L521.836 240.622L501.833 240.276L501.919 235.536L353.63 232.975L353.732 227.351L502.016 229.907L502.097 225.166L537.203 225.771L549.406 213.969L537.614 201.749L502.509 201.145L502.59 196.405L354.306 193.844L354.402 188.215L502.686 190.775L502.773 186.035L522.771 186.38L511.497 174.705L476.396 174.095L476.478 169.355L328.188 166.799L328.285 161.17L476.574 163.726L476.655 158.99L496.658 159.331L485.38 147.655L450.279 147.051L450.36 142.31L302.071 139.755L302.168 134.125L450.457 136.681L450.538 131.941L470.541 132.286L459.262 120.611H459.257L424.162 120.006L424.243 115.266L275.959 112.71L276.055 107.081L424.34 109.636L424.421 104.896L444.419 105.242L433.409 93.8406L398.309 93.236L398.39 88.4957L250.106 85.935L250.202 80.3107L398.486 82.8662L398.568 78.126L455.367 79.1015L585.329 213.689L448.984 345.477Z" fill="#F5F9EE"/>
<path d="M444.094 67.4256L372.197 66.186L372.278 61.4457L223.989 58.89L224.085 53.2607L372.374 55.8213L372.456 51.0759L429.25 52.0565L444.094 67.4256Z" fill="#F5F9EE"/>
<path d="M367.89 423.862L312.888 422.912L312.969 418.177L164.68 415.616L164.776 409.987L313.066 412.548L313.147 407.802L383.252 409.011L367.89 423.862Z" fill="#F5F9EE"/>
<path d="M319.962 12.0971L320.043 7.36193L171.759 4.80125L171.84 0L382.485 3.6327L391.865 13.3368L319.962 12.0971Z" fill="#F5F9EE"/>
<path d="M417.982 40.3868L346.074 39.1471L346.16 34.4017L197.871 31.8461L197.968 26.2167L346.257 28.7723L346.338 24.032L403.138 25.0126L417.982 40.3868Z" fill="#F5F9EE"/>
<path d="M421.953 371.607L366.951 370.662L367.032 365.917L218.743 363.356L218.839 357.727L367.128 360.288L367.21 355.547L437.315 356.757L421.953 371.607Z" fill="#F5F9EE"/>
<path d="M394.922 397.732L339.914 396.782L339.996 392.047L191.712 389.486L191.808 383.857L340.092 386.418L340.173 381.672L410.283 382.882L394.922 397.732Z" fill="#F5F9EE"/>
<path d="M147.064 526.971L182.165 527.575L182.246 522.835L330.53 525.391L330.626 519.761L182.342 517.206L182.424 512.465L127.32 511.515L-6.20203 640.57C4.86342 641.388 15.9289 642.206 26.9943 643.024L39.2024 631.221L74.3031 631.826L74.3843 627.086L222.674 629.641L222.77 624.012L74.4808 621.456L74.562 616.716L54.564 616.371L66.2337 605.091L101.334 605.696L101.416 600.956L249.705 603.511L249.801 597.882L101.512 595.326L101.593 590.586L81.5954 590.241L93.2651 578.961L128.366 579.566L128.447 574.826L276.731 577.381L276.828 571.752L128.544 569.196L128.625 564.456L108.627 564.111L120.296 552.836L155.397 553.441L155.478 548.701L303.763 551.256L303.859 545.627L155.575 543.071L155.656 538.331L135.658 537.986L139.863 533.921L147.054 526.971H147.064Z" fill="#F5F9EE"/>
<path d="M140.457 500.261L138.994 500.235L140.482 498.797L140.457 500.261Z" fill="#F5F9EE"/>
<path d="M263.258 449.19L193.057 447.981L208.419 433.13L263.517 434.08L263.436 438.82L411.725 441.376L411.629 447.005L263.34 444.45L263.258 449.19Z" fill="#F5F9EE"/>
<path d="M209.196 501.444L140.457 500.261L140.482 498.797L154.356 485.384L209.455 486.334L209.374 491.08L357.663 493.635L357.566 499.265L209.277 496.709L209.196 501.444Z" fill="#F5F9EE"/>
<path d="M236.227 475.32L166.021 474.111L181.382 459.26L236.491 460.21L236.405 464.95L384.694 467.506L384.597 473.135L236.308 470.58L236.227 475.32Z" fill="#F5F9EE"/>
<path d="M167.717 447.543L117.574 446.679L132.941 431.829L183.078 432.692L167.717 447.543Z" fill="#F5F9EE"/>
<path d="M113.649 499.799L63.5116 498.935L78.8732 484.084L129.016 484.948L113.649 499.799Z" fill="#F5F9EE"/>
<path d="M140.68 473.673L90.5428 472.804L105.904 457.958L156.042 458.822L140.68 473.673Z" fill="#F5F9EE"/>
<path d="M2.62878 706.539L72.8301 707.753L57.4685 722.599L2.36978 721.649L2.45105 716.909L-145.838 714.353L-145.742 708.724L2.54755 711.284L2.62878 706.539Z" fill="#F5F9EE"/>
<path d="M56.6915 654.283L125.435 655.467L125.41 656.935L111.531 670.343L56.4325 669.393L56.5137 664.653L-91.7754 662.092L-91.6739 656.463L56.6102 659.024L56.6915 654.283Z" fill="#F5F9EE"/>
<path d="M29.6603 680.408L99.8667 681.622L84.5051 696.468L29.4013 695.518L29.4825 690.783L-118.807 688.222L-118.71 682.593L29.5791 685.154L29.6603 680.408Z" fill="#F5F9EE"/>
<path d="M98.1756 708.189L148.313 709.053L132.951 723.899L82.814 723.035L98.1756 708.189Z" fill="#F5F9EE"/>
<path d="M152.238 655.93L202.376 656.793L187.014 671.649L136.877 670.781L152.238 655.93Z" fill="#F5F9EE"/>
<path d="M125.207 682.059L175.345 682.923L159.983 697.774L109.846 696.905L125.207 682.059Z" fill="#F5F9EE"/>
<path d="M-31.5374 640.138L101.979 511.083L51.8369 510.219L-83.5942 641.123C-66.242 640.798 -48.8897 640.468 -31.5374 640.138Z" fill="#F5F9EE"/>
<path d="M-158.31 823.103L-123.209 823.708L-123.128 818.968L25.1559 821.523L25.2524 815.894L-123.032 813.338L-122.95 808.598L-178.054 807.648L-311.576 936.703C-300.51 937.521 -289.445 938.339 -278.38 939.157L-266.172 927.354L-231.071 927.959L-230.99 923.219L-82.7004 925.774L-82.6039 920.145L-230.893 917.589L-230.812 912.849L-250.81 912.503L-239.14 901.224L-204.039 901.829L-203.958 897.089L-55.6691 899.644L-55.5726 894.015L-203.862 891.459L-203.78 886.719L-223.779 886.373L-212.109 875.094L-177.008 875.699L-176.927 870.959L-28.6428 873.514L-28.5463 867.885L-176.83 865.329L-176.749 860.589L-196.747 860.243L-185.077 848.969L-149.977 849.574L-149.895 844.834L-1.61136 847.389L-1.51489 841.76L-149.799 839.204L-149.718 834.464L-169.716 834.118L-165.511 830.054L-158.32 823.103H-158.31Z" fill="#F5F9EE"/>
<path d="M-42.1155 745.324L-112.317 744.115L-96.9553 729.264L-41.8566 730.214L-41.9378 734.955L106.351 737.51L106.255 743.14L-42.0343 740.584L-42.1155 745.324Z" fill="#F5F9EE"/>
<path d="M-96.1785 797.578L-164.922 796.394L-164.897 794.931L-151.018 781.518L-95.9195 782.468L-96.0007 787.214L52.2834 789.769L52.1869 795.399L-96.0972 792.843L-96.1785 797.578Z" fill="#F5F9EE"/>
<path d="M-69.1468 771.454L-139.353 770.245L-123.992 755.394L-68.8879 756.344L-68.9691 761.084L79.3201 763.64L79.2236 769.269L-69.0656 766.714L-69.1468 771.454Z" fill="#F5F9EE"/>
</svg>
