<svg width="92" height="128" viewBox="0 0 92 128" fill="none" xmlns="http://www.w3.org/2000/svg">
<path d="M53.25 117.837H38.25C35.4886 117.837 33.25 120.058 33.25 122.798C33.25 125.537 35.4886 127.758 38.25 127.758H53.25C56.0114 127.758 58.25 125.537 58.25 122.798C58.25 120.058 56.0114 117.837 53.25 117.837Z" fill="#A8D05A"/>
<path d="M45.75 0.75C20.75 0.75 0.75 20.5913 0.75 45.3929C0.75 62.754 10.75 75.1548 20.75 85.0754C25.75 90.0357 28.25 97.4762 28.25 104.917V114.837H63.25V104.917C63.25 97.4762 65.75 90.0357 70.75 85.0754C80.75 75.1548 90.75 62.754 90.75 45.3929C90.75 20.5913 70.75 0.75 45.75 0.75Z" fill="#A8D05A" stroke="white" stroke-width="1.5" stroke-linecap="round" stroke-linejoin="round"/>
<path d="M24.75 64.75H66.75M31.75 55.25H59.75M38.75 45.75H52.75" stroke="white" stroke-width="1.5" stroke-linecap="round"/>
</svg>
