<svg width="233" height="49" viewBox="0 0 233 49" fill="none" xmlns="http://www.w3.org/2000/svg">
<path d="M49.4485 10.8101V11.3944H55.4379V37.3239H49.4485V37.9082V38.3464L49.3755 38.7847L49.3025 39.1499L49.2294 39.5881L49.1564 40.0263L49.0103 40.3916L48.8642 40.8298L48.7181 41.195L48.499 41.5602L48.2799 41.9254L48.0608 42.2906L47.7686 42.6558L47.5495 42.948L47.2573 43.2402L46.8921 43.5323L46.5999 43.8245L46.2347 44.0436L45.8695 44.3358L45.5043 44.5549L45.1391 44.701L44.7739 44.9201L44.4087 45.0662L43.9705 45.2122L43.5322 45.2853L43.167 45.3583L42.7288 45.4314H42.2905L41.8523 45.5044L41.4871 45.4314H41.0488L40.6106 45.3583L40.1724 45.2853L39.8072 45.2122L39.3689 45.0662L39.0037 44.9201L38.6385 44.701L38.2003 44.5549L37.8351 44.3358L37.5429 44.0436L37.1777 43.8245L36.8125 43.5323L36.5203 43.2402L36.2282 42.948L36.009 42.6558L35.7169 42.2906L35.4978 41.9254L35.2786 41.5602L35.0595 41.195L34.9134 40.8298L34.7673 40.3916L34.6213 40.0263L34.5482 39.5881L34.4021 39.1499V38.7847L34.3291 38.3464V37.9082V10.8101V10.3718L34.4021 10.0066V9.56837L34.5482 9.13012L34.6213 8.76492L34.7673 8.32667L34.9134 7.96147L35.0595 7.52322L35.2786 7.15802L35.4978 6.79281L35.7169 6.42761L36.009 6.13545L36.2282 5.77025L36.5203 5.47809L36.8125 5.18593L37.1777 4.89377L37.5429 4.67463L37.8351 4.45552L38.2003 4.23639L38.6385 4.01727L39.0037 3.87118L39.3689 3.72511L39.8072 3.57902L40.1724 3.43296L40.6106 3.35991L41.0488 3.28687H41.4871H41.8523H42.2905H42.7288L43.167 3.35991L43.5322 3.43296L43.9705 3.57902L44.4087 3.72511L44.7739 3.87118L45.1391 4.01727L45.5043 4.23639L45.8695 4.45552L46.2347 4.67463L46.5999 4.89377L46.8921 5.18593L47.2573 5.47809L47.5495 5.77025L47.7686 6.13545L48.0608 6.42761L48.2799 6.79281L48.499 7.15802L48.7181 7.52322L48.8642 7.96147L49.0103 8.32667L49.1564 8.76492L49.2294 9.13012L49.3025 9.56837L49.3755 10.0066L49.4485 10.3718V10.8101Z" fill="#A8D05A"/>
<path d="M21.1086 10.8101V11.3944H27.0979V33.0145L6.13525 9.64142L6.20829 9.27622L6.28134 8.83797L6.42742 8.39972L6.5735 8.03451L6.71958 7.59626L6.9387 7.23106L7.15782 6.86586L7.37695 6.50065L7.59607 6.2085L7.88823 5.84329L8.18039 5.55113L8.47256 5.25897L8.76472 4.96679L9.12992 4.67463L9.49513 4.45552L9.86033 4.23639L10.2255 4.01727L10.5907 3.87118L11.029 3.72511L11.3942 3.57902L11.8324 3.50598L12.2707 3.35991L12.6359 3.28687H13.0741H13.5124H13.9506H14.3889L14.7541 3.35991L15.1923 3.43296L15.6305 3.57902L15.9958 3.65207L16.434 3.79816L16.7992 4.01727L17.1644 4.16336L17.5296 4.38248L17.8948 4.67463L18.26 4.89377L18.5522 5.18593L18.9174 5.47809L19.2095 5.77025L19.4287 6.0624L19.7208 6.42761L19.94 6.79281L20.1591 7.15802L20.3782 7.52322L20.5243 7.88842L20.6704 8.32667L20.8164 8.69188L20.9625 9.13013L21.0356 9.56837L21.1086 10.0066V10.3718V10.8101Z" fill="#A8D05A"/>
<path d="M5.98934 37.9082L6.06238 38.3465V38.7847L6.13542 39.223L6.20846 39.5882L6.2815 40.0264L6.42758 40.3916L6.57367 40.8299L6.79279 41.1951L6.93887 41.5603L7.15799 41.9255L7.45016 42.2907L7.66928 42.6559L7.96144 42.948L8.2536 43.3132L8.54577 43.6054L8.91097 43.8245L9.20313 44.1167L9.56834 44.3358L9.93354 44.555L10.2987 44.7741L10.737 44.9202L11.1022 45.0662L11.5404 45.2123L11.9056 45.2854L12.3439 45.3584L12.7821 45.4314H13.2204L13.6586 45.5045L14.0238 45.4314H14.4621L14.9003 45.3584L15.3386 45.2854L15.7038 45.1393L16.142 44.9932L16.5072 44.8471L16.9455 44.701L17.3107 44.4819L17.6759 44.2628L18.0411 44.0437L18.3332 43.7515L18.6984 43.4593L18.9906 43.1672L19.2828 42.875L19.5019 42.5828L19.794 42.2176L20.0132 41.8524L20.2323 41.4872L20.4514 41.122L20.5975 40.6838L20.7436 40.3186L20.8897 39.8803L20.9627 39.5151L21.0357 39.0769L0 15.7039V37.3239H5.98934" fill="#A8D05A"/>
<path d="M28.3398 10.81H31.0423V10.2987L31.1154 9.78745V9.34921L31.2615 8.83793L31.3345 8.32664L31.4806 7.88839L31.6267 7.37712L31.7728 6.93887L31.9919 6.42758L32.211 5.98935L32.4301 5.5511L32.6492 5.11285L32.9414 4.6746L33.2336 4.3094L33.5257 3.87115L33.8909 3.50595L34.2561 3.14074L34.5483 2.77554L34.9865 2.48338L35.3518 2.19122L35.79 1.89906L36.1552 1.60691L36.5934 1.38777L37.0317 1.09561L37.4699 0.876498L37.9812 0.730407L38.4195 0.511294L38.9308 0.365204L39.369 0.292158L39.8803 0.14609L40.3916 0.0730452L40.9028 0H41.4141H41.8524H42.3637H42.875L43.3862 0.0730452L43.8975 0.14609L44.3358 0.292158L44.847 0.365204L45.3583 0.511294L45.7966 0.730407L46.2348 0.876498L46.7461 1.09561L47.1844 1.38777L47.6226 1.60691L47.9878 1.89906L48.426 2.19122L48.7913 2.48338L49.1565 2.77554L49.5217 3.14074L49.8869 3.50595L50.2521 3.87115L50.5442 4.3094L50.8364 4.6746L51.1286 5.11285L51.3477 5.5511L51.5668 5.98935L51.7859 6.42758L52.005 6.93887L52.1511 7.37712L52.2972 7.88839L52.4433 8.32664L52.5163 8.83793L52.5894 9.34921L52.6624 9.78745L52.7355 10.2987V10.81H50.0329V10.3718L49.9599 9.93354L49.8869 9.4953L49.8138 9.05705L49.7408 8.6188L49.5947 8.25359L49.4486 7.81537L49.2295 7.37712L49.0834 7.01192L48.8643 6.64671L48.6452 6.28151L48.353 5.9163L48.0608 5.5511L47.7687 5.25894L47.4765 4.89374L47.1113 4.60156L46.8191 4.38244L46.4539 4.09029L46.0887 3.87115L45.7235 3.65204L45.2853 3.43292L44.9201 3.28683L44.4818 3.14074L44.0436 2.99467L43.6054 2.84858L43.1671 2.77554H42.7289L42.2906 2.70252H41.8524H41.4141L40.9759 2.77554H40.5376L40.1724 2.84858L39.7342 2.99467L39.296 3.14074L38.8577 3.28683L38.4925 3.43292L38.0543 3.65204L37.6891 3.87115L37.3239 4.09029L36.9586 4.38244L36.5934 4.60156L36.3013 4.89374L36.0091 5.25894L35.717 5.5511L35.4248 5.9163L35.1326 6.28151L34.9135 6.64671L34.6944 7.01192L34.4753 7.37712L34.3292 7.81537L34.1831 8.25359L34.037 8.6188L33.964 9.05705L33.8909 9.4953L33.8179 9.93354L33.7449 10.3718V10.81V37.9081V38.3464L33.8179 38.7846L33.8909 39.2229L33.964 39.6611L34.037 40.0994L34.1831 40.5376L34.3292 40.9028L34.4753 41.3411L34.6944 41.7063L34.9135 42.0715L35.1326 42.5097L35.4248 42.8019L35.717 43.1671L36.0091 43.5323L36.3013 43.8244L36.5934 44.1166L36.9586 44.4088L37.3239 44.6279L37.6891 44.847L38.0543 45.0661L38.4925 45.2853L38.8577 45.5044L39.296 45.6505L39.7342 45.7235L40.1724 45.8696L40.5376 45.9426L40.9759 46.0157H41.4141H41.8524H42.2906H42.7289L43.1671 45.9426L43.6054 45.8696L44.0436 45.7235L44.4818 45.6505L44.9201 45.5044L45.2853 45.2853L45.7235 45.0661L46.0887 44.847L46.4539 44.6279L46.8191 44.4088L47.1113 44.1166L47.4765 43.8244L47.7687 43.5323L48.0608 43.1671L48.353 42.8019L48.6452 42.5097L48.8643 42.0715L49.0834 41.7063L49.2295 41.3411L49.4486 40.9028L49.5947 40.5376L49.7408 40.0994L49.8138 39.6611L49.8869 39.2229L49.9599 38.7846L50.0329 38.3464V37.9081H52.7355V38.4194L52.6624 38.9307L52.5894 39.442L52.5163 39.8802L52.4433 40.3915L52.2972 40.9028L52.1511 41.3411L52.005 41.8523L51.7859 42.2906L51.5668 42.7288L51.3477 43.1671L51.1286 43.6053L50.8364 44.0436L50.5442 44.4818L50.2521 44.847L49.8869 45.2122L49.5217 45.5774L49.1565 45.9426L48.7913 46.2348L48.426 46.6L47.9878 46.8922L47.6226 47.1113L47.1844 47.4034L46.7461 47.6226L46.2348 47.8417L45.7966 47.9878L45.3583 48.2069L44.847 48.353L44.3358 48.499L43.8975 48.5721L43.3862 48.6451L42.875 48.7182H42.3637H41.8524H41.4141H40.9028L40.3916 48.6451L39.8803 48.5721L39.369 48.499L38.9308 48.353L38.4195 48.2069L37.9812 47.9878L37.4699 47.8417L37.0317 47.6226L36.5934 47.4034L36.1552 47.1113L35.79 46.8922L35.3518 46.6L34.9865 46.2348L34.5483 45.9426L34.2561 45.5774L33.8909 45.2122L33.5257 44.847L33.2336 44.4818L32.9414 44.0436L32.6492 43.6053L32.4301 43.1671L32.211 42.7288L31.9919 42.2906L31.7728 41.8523L31.6267 41.3411L31.4806 40.9028L31.3345 40.3915L31.2615 39.8802L31.1154 39.442V38.9307L31.0423 38.4194V37.9081H28.3398V10.81Z" fill="white"/>
<path d="M0 14.8271L21.6201 38.8575L21.547 39.2957L21.474 39.7339L21.4009 40.1722L21.2549 40.6104L21.1088 40.9757L20.8897 41.4139L20.7436 41.7791L20.5244 42.1443L20.2323 42.5095L20.0132 42.8747L19.721 43.2399L19.4288 43.5321L19.1367 43.8973L18.7715 44.1894L18.4063 44.4086L18.0411 44.7007L17.6759 44.9198L17.3107 45.139L16.9454 45.285L16.5072 45.5042L16.142 45.6503L15.7038 45.7963L15.2655 45.8694L14.8273 45.9424L14.389 46.0155H13.9508H13.5125H13.0743H12.636L12.1978 45.9424L11.7596 45.8694L11.3213 45.7233L10.9561 45.5772L10.5179 45.4311L10.1527 45.285L9.71442 45.0659L9.34921 44.8468L8.98401 44.6277L8.61881 44.3355L8.2536 44.1164L7.96144 43.8242L7.66928 43.459L7.37711 43.1669L7.08495 42.8017L6.86583 42.4365L6.57367 42.0713L6.35454 41.7061L6.20846 41.3409L5.98934 40.9026L5.84326 40.5374L5.77022 40.0992L5.62414 39.6609L5.5511 39.2227L5.47806 38.7844V38.3462V37.9079H2.70251L2.77555 38.4192V38.9305L2.84859 39.4418L2.92163 39.88L2.99467 40.3913L3.14075 40.9026L3.28683 41.3409L3.43291 41.8521L3.65204 42.2904L3.87116 42.7286L4.09028 43.1669L4.38244 43.6051L4.60157 44.0434L4.89373 44.4816L5.25893 44.8468L5.5511 45.212L5.9163 45.5772L6.2815 45.9424L6.64671 46.2346L7.01191 46.5998L7.45016 46.892L7.8884 47.1111L8.32664 47.4032L8.76489 47.6224L9.20313 47.8415L9.64138 47.9876L10.1527 48.2067L10.5909 48.3528L11.1022 48.4988L11.6135 48.5719L12.0517 48.6449L12.563 48.718H13.0743H13.5856H14.0969H14.6081L15.0464 48.6449L15.5577 48.5719L16.069 48.4988L16.5072 48.3528L17.0185 48.2067L17.4567 47.9876L17.968 47.8415L18.4063 47.6224L18.8445 47.4032L19.2828 47.1111L19.721 46.892L20.0862 46.5998L20.5244 46.2346L20.8897 45.9424L21.2549 45.5772L21.547 45.212L21.9122 44.8468L22.2044 44.4816L22.4965 44.0434L22.7887 43.6051L23.0078 43.1669L23.3 42.7286L23.5191 42.2904L23.6652 41.8521L23.8113 41.3409L24.0304 40.9026L24.1034 40.3913L24.2495 39.88L24.3226 39.4418L24.3956 38.9305V38.4192V37.9079L0 10.8098V14.8271Z" fill="white"/>
<path d="M27.0982 37.9081L2.70264 10.81L2.77568 10.2987V9.78745L2.84872 9.34921L2.92176 8.83793L2.9948 8.32664L3.14088 7.88839L3.28696 7.37712L3.43304 6.93887L3.65217 6.42758L3.87129 5.98935L4.09041 5.5511L4.38257 5.11285L4.6017 4.6746L4.89386 4.3094L5.25906 3.87115L5.55123 3.50595L5.91643 3.14074L6.28163 2.84858L6.64684 2.48338L7.01204 2.19122L7.45028 1.89906L7.88853 1.60691L8.32677 1.38777L8.76502 1.09561L9.20326 0.876498L9.64151 0.730407L10.1528 0.511294L10.591 0.365204L11.1023 0.292158L11.6136 0.14609L12.0519 0.0730452L12.5631 0H13.0744H13.5857H14.097H14.6083L15.0465 0.0730452L15.5578 0.14609L16.0691 0.292158L16.5073 0.365204L17.0186 0.511294L17.4569 0.730407L17.9682 0.876498L18.4064 1.09561L18.8446 1.38777L19.2829 1.60691L19.7211 1.89906L20.0863 2.19122L20.5246 2.48338L20.8898 2.84858L21.255 3.14074L21.5471 3.50595L21.9123 3.87115L22.2045 4.3094L22.4967 4.6746L22.7888 5.11285L23.008 5.5511L23.3001 5.98935L23.5192 6.42758L23.6653 6.93887L23.8114 7.37712L24.0305 7.88839L24.1036 8.32664L24.2497 8.83793L24.3227 9.34921L24.3957 9.78745V10.2987V10.81H21.6932V10.3718L21.6202 9.93354V9.4953L21.5471 9.05705L21.4011 8.69184L21.255 8.25359L21.1089 7.81537L20.9628 7.45016L20.7437 7.01192L20.5246 6.64671L20.3055 6.28151L20.0863 5.9163L19.7942 5.5511L19.502 5.25894L19.2098 4.96676L18.8446 4.6746L18.4794 4.38244L18.1873 4.09029L17.8221 3.87115L17.3838 3.65204L17.0186 3.43292L16.5804 3.28683L16.2152 3.14074L15.7769 2.99467L15.3387 2.92163L14.9004 2.77554H14.4622L14.097 2.70252H13.6587H13.1475H12.7823L12.344 2.77554L11.9058 2.84858L11.4675 2.99467L11.0293 3.06772L10.591 3.21379L10.2258 3.43292L9.78759 3.57899L9.42238 3.79813L9.05718 4.09029L8.69198 4.3094L8.39981 4.60156L8.03461 4.89374L7.74245 5.1859L7.45028 5.47806L7.15812 5.84326L6.86596 6.20846L6.64684 6.57367L6.42771 6.93887L6.20859 7.30407L6.06251 7.74232L5.91643 8.10753L5.77035 8.54578L5.62427 8.984L5.55123 9.42225L5.47818 9.8605L27.0982 33.8909V37.9081Z" fill="white"/>
<path d="M195.164 23.8844L195.895 24.0305L196.625 24.1766L197.356 24.0305L198.086 23.8844L198.67 23.5192L199.255 23.154L199.62 22.5697L199.985 21.9854L200.204 21.328L200.423 20.6706V20.5976V20.5245H200.496H200.569H216.127H231.685C231.685 20.5245 231.904 20.5245 232.123 20.3785C232.342 20.3054 232.488 20.0863 232.561 20.0133C232.634 19.9402 232.78 19.7941 232.853 19.575C232.927 19.3559 233 19.0637 233 19.0637V15.996V12.9283H231.831H230.662V14.9734V17.0186H229.055H227.448V14.9734V12.9283H226.353H225.257V14.9734V17.0186H223.65H222.043V14.9734V12.9283H220.948H219.852V14.9734V17.0186H215.689H211.379C211.379 17.0186 211.526 16.7264 211.745 16.3612C211.964 16.0691 212.183 15.7038 212.402 15.5578C212.548 15.4117 212.986 15.2656 213.352 15.1195C213.717 14.9735 214.082 14.9004 214.082 14.9004L211.745 13.0013L209.407 11.1023L207.07 13.0013L204.733 14.9004C204.733 14.9004 205.025 14.9735 205.39 15.1195C205.755 15.2656 206.194 15.4117 206.34 15.5578C206.486 15.7038 206.778 16.0691 206.997 16.3612C207.216 16.7264 207.362 17.0186 207.362 17.0186H203.929H200.496V15.1195V13.2205V13.0744V12.9283H200.35H200.204L200.058 13.0013L199.912 13.0744C199.912 13.0744 199.62 13.3666 199.328 13.6587C198.963 13.9509 198.597 14.3891 198.378 14.5352C198.159 14.6813 197.794 14.9004 197.429 15.0465C197.064 15.2656 196.698 15.4117 196.479 15.5578C196.26 15.6308 195.968 15.7769 195.676 15.8499C195.384 15.996 195.091 16.0691 194.945 16.2151C194.799 16.3612 194.507 16.5073 194.288 16.7264C194.069 16.9455 193.85 17.1647 193.704 17.3108C193.558 17.4568 193.411 17.749 193.265 18.0412C193.119 18.3333 193.046 18.6255 192.973 18.8446C192.9 19.0637 192.9 19.502 192.827 19.8672C192.827 20.2324 192.827 20.5245 192.827 20.5245H195.311H197.794H197.867H197.94V20.5976V20.6706L197.794 21.401L197.648 22.1314L197.137 22.7158L196.698 23.3001L196.041 23.6653L195.164 23.8844Z" fill="white"/>
<path d="M161.42 13.2935C161.859 13.5857 162.735 14.243 163.027 14.6082C163.319 14.9734 164.05 16.4343 164.05 16.4343V16.6534L163.831 16.7995H131.985V13.0744L131.839 12.8553L131.62 12.7822L131.474 12.9283C131.474 12.9283 130.378 14.097 129.94 14.3891C129.502 14.6813 128.552 15.1926 128.041 15.4117C127.676 15.6308 126.507 16.0691 126.507 16.0691C126.507 16.0691 125.557 16.8725 125.338 17.1647C125.046 17.5299 124.681 18.2603 124.535 18.6985C124.389 19.1368 124.389 20.3785 124.389 20.3785H129.355L129.502 20.4515L129.575 20.5976C129.575 20.5976 129.355 21.6932 129.209 22.0584C129.063 22.4236 128.552 23.0079 128.26 23.3001C127.968 23.5192 126.945 24.0305 126.945 24.0305C126.945 24.0305 127.968 24.2496 128.333 24.2496C128.698 24.2496 129.428 24.0305 129.721 23.9574C130.013 23.8114 130.67 23.4462 130.889 23.154C131.181 22.8619 131.547 22.2775 131.693 21.9854C131.839 21.6932 132.058 20.6706 132.058 20.6706L132.131 20.5245L132.277 20.4515H168.14V18.1872C168.14 18.1872 167.921 16.5073 167.702 15.996C167.483 15.4847 166.898 14.4622 166.606 13.9509C166.241 13.5126 165.438 12.7092 164.999 12.417C164.561 12.1249 163.539 11.6136 162.954 11.3945C162.443 11.2484 160.69 11.0292 160.69 11.0292H146.009H145.936V10.9562V10.8832L165.657 4.01733H159.96L139.289 11.1753V12.7092H159.667C159.448 12.6361 160.982 13.0014 161.42 13.2935Z" fill="white"/>
<path d="M65.2256 17.7491C65.2256 17.7491 65.3717 18.6986 65.5908 18.9908C65.7369 19.283 66.2482 19.7942 66.5403 19.9403C66.8325 20.0864 67.782 20.3055 67.782 20.3055H117.669C117.669 20.3055 118.618 20.1594 118.911 19.9403C119.203 19.7942 119.641 19.283 119.787 18.9908C119.933 18.6986 120.152 17.7491 120.152 17.7491V10.7372H117.888V16.7265H115.112V12.6363H112.775V16.7265H109.927V12.6363H107.589V16.7265H104.741V12.6363H102.476V16.7265H97.3635V3.79834H94.8801V16.7996H89.1829V12.7093H86.7726V16.7996H67.8551V12.7823H65.2986V17.7491H65.2256Z" fill="white"/>
<path d="M74.6478 38.4925C74.6478 38.4925 75.4512 38.5656 75.6703 38.7116C75.8894 38.8577 76.3277 39.2229 76.4738 39.5151C76.6199 39.7342 76.7659 40.2455 76.7659 40.5377C76.7659 40.8298 76.6199 41.3411 76.4738 41.6333C76.3277 41.8524 75.8894 42.2176 75.6703 42.3637C75.4512 42.5098 74.6478 42.6558 74.6478 42.6558H66.9054L65.5177 44.701H78.1537L79.4684 43.8245L79.1032 44.701H83.0474L88.1603 32.2841L93.3462 44.701H97.2173L91.0089 29.6546H85.4578L81.0023 40.3916C81.0023 40.3916 80.7832 39.0768 80.6371 38.6386C80.491 38.2734 79.9067 37.543 79.5415 37.2508C79.1763 36.9587 78.4459 36.5204 78.0076 36.3743C77.5694 36.2282 76.1816 36.1552 76.1816 36.1552H71.58C71.58 36.1552 70.7766 36.0091 70.5575 35.8631C70.3384 35.717 69.9731 35.2787 69.8271 35.0596C69.681 34.8405 69.5349 34.3292 69.5349 34.037C69.5349 33.7449 69.681 33.2336 69.8271 33.0145C69.9731 32.7953 70.3384 32.3571 70.5575 32.211C70.7766 32.0649 71.58 31.9189 71.58 31.9189H79.3954L80.9293 29.5815H69.2427C69.2427 29.5815 68.0011 29.8737 67.7089 30.0928C67.3437 30.312 66.7594 30.8232 66.4672 31.1884C66.175 31.4806 65.7368 32.2841 65.5907 32.6493C65.4446 33.0145 65.3716 33.8909 65.3716 34.2561C65.3716 34.6213 65.5907 35.4248 65.7368 35.79C65.8829 36.1552 66.3942 36.8856 66.6863 37.1778C66.9785 37.4699 67.6358 37.9082 68.001 38.0543C68.3663 38.2004 69.6079 38.4195 69.6079 38.4195" fill="white"/>
<path d="M183.99 12.7091H174.495V14.7543H183.99C183.99 14.7543 184.866 15.1195 185.085 15.3386C185.305 15.5577 185.67 16.4342 185.67 16.4342L185.597 16.6533L185.451 16.7263H173.034V20.2323H188.299V17.0185C188.299 17.0185 188.08 15.7768 187.934 15.4116C187.788 15.0464 187.35 14.316 187.058 14.0239C186.765 13.7317 186.108 13.2204 185.743 13.0743C185.231 12.9282 183.99 12.7091 183.99 12.7091Z" fill="white"/>
<path d="M207.436 39.0036C207.436 39.0036 206.778 40.8296 206.413 41.414C206.048 41.9983 205.172 42.9478 204.587 43.386C204.076 43.8243 202.25 44.6277 202.25 44.6277H197.137C197.137 44.6277 195.311 43.8243 194.8 43.386C194.288 43.0208 193.412 41.9983 193.047 41.414C192.682 40.8296 191.951 39.0036 191.951 39.0036V29.5083H195.603V39.9531C195.603 39.9531 196.261 41.0487 196.553 41.2679C196.845 41.56 197.648 41.9983 198.014 42.1444C198.379 42.2904 199.255 42.5096 199.62 42.5096C200.059 42.5096 200.935 42.3635 201.3 42.1444C201.666 41.9983 202.396 41.56 202.688 41.2679C202.98 40.9757 203.638 39.9531 203.638 39.9531V29.5083H207.29V39.0036H207.436Z" fill="white"/>
<path d="M184.428 38.4923C184.428 38.4923 185.231 38.5654 185.45 38.7114C185.669 38.8575 186.108 39.2227 186.254 39.5149C186.4 39.734 186.546 40.2453 186.546 40.5375C186.546 40.8296 186.4 41.3409 186.254 41.6331C186.108 41.8522 185.669 42.2174 185.45 42.3635C185.231 42.5096 184.428 42.6556 184.428 42.6556H176.612L175.224 44.7008H187.861C187.861 44.7008 189.029 43.9704 189.321 43.6782C189.614 43.386 190.198 42.6556 190.344 42.2174C190.49 41.7791 190.636 40.9027 190.636 40.3914C190.636 39.9531 190.417 39.0766 190.271 38.6384C190.125 38.2001 189.54 37.4697 189.175 37.1776C188.883 36.8854 188.08 36.4472 187.641 36.3011C187.203 36.155 185.815 36.082 185.815 36.082H181.214C181.214 36.082 180.41 35.9359 180.191 35.7898C179.972 35.6437 179.607 35.2055 179.461 34.9864C179.315 34.7672 179.169 34.256 179.169 33.9638C179.169 33.6716 179.315 33.1603 179.461 32.9412C179.607 32.7221 179.972 32.2839 180.191 32.1378C180.41 31.9917 181.214 31.8456 181.214 31.8456H189.029L190.563 29.5083H178.877C178.877 29.5083 177.635 29.8005 177.343 30.0196C176.977 30.2387 176.393 30.75 176.101 31.1152C175.809 31.4074 175.371 32.2108 175.224 32.576C175.078 32.9412 175.005 33.8177 175.005 34.1829C175.005 34.5481 175.224 35.3516 175.371 35.7168C175.517 36.082 176.028 36.8124 176.32 37.1045C176.612 37.3967 177.27 37.8349 177.635 37.981C178 38.1271 179.242 38.3462 179.242 38.3462H184.428" fill="white"/>
<path d="M129.209 39.2958V35.1324C129.209 35.1324 129.355 34.1829 129.428 33.8907C129.574 33.5986 129.94 33.0873 130.159 32.7951C130.378 32.576 130.962 32.2108 131.254 32.1378C131.546 31.9917 132.496 31.8456 132.496 31.8456H139.216L141.407 29.5083H129.793C129.793 29.5083 128.479 29.7274 128.114 29.8735C127.748 30.0196 127.018 30.5309 126.726 30.8961C126.434 31.1882 125.922 32.3569 125.922 32.3569L125.776 32.503H125.703L125.557 32.3569C125.557 32.3569 124.973 31.1882 124.681 30.8961C124.388 30.6039 123.658 30.0926 123.293 29.8735C122.928 29.7274 121.613 29.5083 121.613 29.5083H107.662V39.9531C107.662 39.9531 106.932 41.0487 106.64 41.2679C106.347 41.56 105.617 41.9983 105.252 42.1444C104.887 42.2904 104.01 42.5096 103.645 42.5096C103.207 42.5096 102.33 42.3635 101.965 42.1444C101.6 41.9983 100.869 41.56 100.577 41.2679C100.285 40.9757 99.6276 39.9531 99.6276 39.9531V29.5083H95.9756V39.0036C95.9756 39.0036 96.6329 40.8296 96.9982 41.414C97.3634 41.9983 98.2398 42.9478 98.8242 43.386C99.3355 43.7512 101.161 44.6277 101.161 44.6277H106.274C106.274 44.6277 108.027 43.8243 108.539 43.386C109.05 42.9478 109.999 41.9983 110.365 41.414C110.73 40.8296 111.46 39.0036 111.46 39.0036V31.9187H119.129C119.129 31.9187 120.079 32.0647 120.371 32.2108C120.663 32.3569 121.248 32.6491 121.467 32.8682C121.686 33.0873 122.051 33.6716 122.124 33.9638C122.27 34.256 122.416 35.2055 122.416 35.2055V39.3688C122.416 39.3688 122.27 40.3183 122.124 40.6105C121.978 40.9027 121.686 41.487 121.467 41.7061C121.248 41.9252 120.663 42.2904 120.371 42.3635C120.079 42.5096 119.129 42.6556 119.129 42.6556H112.629L111.387 44.7008H121.832C121.832 44.7008 123.147 44.4817 123.512 44.3356C123.877 44.1895 124.608 43.6782 124.9 43.313C125.192 43.0208 125.776 41.8522 125.776 41.8522L125.922 41.7792H125.995L126.141 41.8522C126.141 41.8522 126.726 43.0208 126.945 43.313C127.237 43.6052 127.967 44.1165 128.333 44.3356C128.698 44.4817 130.013 44.7008 130.013 44.7008H139.727L141.699 42.6556H132.496C132.496 42.6556 131.546 42.5096 131.254 42.3635C130.962 42.2174 130.451 41.9252 130.159 41.7061C129.94 41.487 129.574 40.9027 129.428 40.6105C129.355 40.2453 129.209 39.2958 129.209 39.2958Z" fill="white"/>
<path d="M75.8163 11.3944C75.8163 12.0517 75.305 12.563 74.6477 12.563C73.9903 12.563 73.479 12.0517 73.479 11.3944C73.479 10.737 73.9903 10.2257 74.6477 10.2257C75.305 10.2257 75.8163 10.81 75.8163 11.3944Z" fill="white"/>
<path d="M80.7831 11.3944C80.7831 12.0517 80.2718 12.563 79.6145 12.563C78.9571 12.563 78.4458 12.0517 78.4458 11.3944C78.4458 10.737 78.9571 10.2257 79.6145 10.2257C80.2718 10.2257 80.7831 10.81 80.7831 11.3944Z" fill="white"/>
<path d="M120.152 6.93901C120.152 7.59637 119.64 8.10766 118.983 8.10766C118.326 8.10766 117.814 7.59637 117.814 6.93901C117.814 6.28164 118.326 5.77035 118.983 5.77035C119.567 5.69731 120.152 6.28164 120.152 6.93901Z" fill="white"/>
<path d="M221.167 42.5828L220.144 44.6279H209.115V29.5815H213.352V42.5828H221.167Z" fill="white"/>
<path d="M222.555 44.6277V31.9187H216.42L218.027 29.5083H232.927L231.32 31.9187H226.28V44.6277H222.555Z" fill="white"/>
<path d="M168.797 44.6277L161.493 34.2559V44.6277H157.549V29.5083H162.37L169.893 40.1723V29.5083H173.837V44.6277H168.797Z" fill="white"/>
<path d="M156.38 34.8406C156.234 34.2562 155.65 33.0876 155.285 32.5033C154.919 31.992 153.97 31.0424 153.459 30.6772C152.947 30.312 151.779 29.6547 151.194 29.4355C150.61 29.2164 149.295 28.9973 148.638 28.9973C147.981 28.9973 146.739 29.2164 146.155 29.4355C145.497 29.6547 144.329 30.239 143.817 30.6772C143.306 31.0424 142.43 31.992 142.064 32.5033C141.699 33.0145 141.115 34.1832 140.896 34.8406C140.75 35.4979 140.604 36.7396 140.604 37.397C140.604 38.0544 140.896 39.2961 141.115 39.8804C141.334 40.4647 141.991 41.6334 142.356 42.1446C142.795 42.6559 143.744 43.4594 144.256 43.8246C144.767 44.1898 146.593 44.8471 146.593 44.8471H150.537C150.537 44.8471 152.363 44.1167 152.947 43.8246C153.459 43.4594 154.481 42.6559 154.846 42.1446C155.285 41.6334 155.869 40.4647 156.161 39.8804C156.38 39.2961 156.672 37.9813 156.672 37.397C156.746 36.7396 156.526 35.4249 156.38 34.8406ZM149.003 43.2403C146.301 43.2403 144.183 40.4647 144.183 37.0318C144.183 33.5989 146.374 30.8233 149.003 30.8233C151.706 30.8233 153.824 33.5989 153.824 37.0318C153.824 40.4647 151.633 43.2403 149.003 43.2403Z" fill="white"/>
</svg>
