<svg width="354" height="317" viewBox="0 0 354 317" fill="none" xmlns="http://www.w3.org/2000/svg">
<path d="M299.227 125.872L282.27 125.579L287.455 120.566L304.412 120.859L299.227 125.872Z" fill="#DBFFA9" fill-opacity="0.25"/>
<path d="M290.104 134.69L273.148 134.397L278.334 129.384L295.289 129.677L290.104 134.69Z" fill="#DBFFA9" fill-opacity="0.25"/>
<path d="M288.462 4.93041L272.111 4.64916L268.947 1.37366L285.298 1.65491L288.462 4.93041Z" fill="#DBFFA9" fill-opacity="0.25"/>
<path d="M297.283 14.0607L280.932 13.7794L275.922 8.59009L292.274 8.87305L297.283 14.0607Z" fill="#DBFFA9" fill-opacity="0.25"/>
<path d="M306.093 23.1891L289.741 22.9061L284.73 17.7185L301.083 18.0015L306.093 23.1891Z" fill="#DBFFA9" fill-opacity="0.25"/>
<path d="M308.354 117.05L291.395 116.759L337.416 72.2755L293.549 26.8472L309.903 27.1301L314.914 32.3195L354.067 72.8654H354.065L313.539 112.039L308.354 117.05Z" fill="#DBFFA9" fill-opacity="0.25"/>
<path d="M280.977 143.51L264.021 143.217L269.207 138.204L286.164 138.497L280.977 143.51Z" fill="#DBFFA9" fill-opacity="0.25"/>
<path d="M282.839 116.611L264.272 116.291L264.3 114.691L214.25 113.828L214.283 111.928L264.332 112.79L264.36 111.19L276.209 111.395L280.054 107.677L273.305 107.56L273.333 105.962L223.282 105.097L223.314 103.197L273.365 104.061L273.393 102.461L285.239 102.666L285.241 102.664L289.181 98.8584L282.43 98.7418L282.457 97.1418L232.406 96.2775L232.438 94.3773L282.49 95.2416L282.519 93.6416L294.366 93.8457L298.305 90.0386L291.555 89.922L291.583 88.3219L241.53 87.4576L241.562 85.5575L291.615 86.4218L291.643 84.8218L303.491 85.0258L307.429 81.2187L300.678 81.1021L300.707 79.5021L250.654 78.6378L250.688 76.7393L300.739 77.602L300.767 76.0019L312.616 76.206L316.735 72.2222L312.755 68.0978L300.906 67.8938L300.933 66.2938L250.882 65.4294L250.914 63.5293L300.966 64.3936L300.995 62.7936L307.745 62.9102L303.94 58.9693L292.092 58.7635L292.119 57.1635L242.066 56.3009L242.099 54.4008L292.152 55.2634L292.179 53.6651L298.931 53.78L295.124 49.8391L283.276 49.635L283.304 48.035L233.251 47.1724L233.283 45.2722L283.336 46.1348L283.364 44.5348L290.115 44.6514L286.308 40.7105H286.307L274.461 40.5065L274.488 38.9064L224.437 38.0438L224.469 36.1437L274.521 37.0063L274.548 35.4063L281.298 35.5229L277.582 31.6746L265.734 31.4705L265.762 29.8705L215.71 29.0062L215.743 27.1078L265.794 27.9704L265.822 26.3704L284.994 26.6996L328.861 72.1279L282.839 116.611Z" fill="#DBFFA9" fill-opacity="0.25"/>
<path d="M281.19 22.7586L256.922 22.3402L256.95 20.7402L206.896 19.8775L206.929 17.9774L256.982 18.8417L257.01 17.24L276.18 17.571L281.19 22.7586Z" fill="#DBFFA9" fill-opacity="0.25"/>
<path d="M255.468 143.069L236.903 142.748L236.93 141.15L186.877 140.286L186.91 138.386L236.963 139.25L236.99 137.648L260.653 138.056L255.468 143.069Z" fill="#DBFFA9" fill-opacity="0.25"/>
<path d="M239.29 4.08323L239.317 2.48492L189.266 1.6206L189.293 0L260.393 1.22617L263.559 4.50167L239.29 4.08323Z" fill="#DBFFA9" fill-opacity="0.25"/>
<path d="M272.375 13.6319L248.104 13.2135L248.133 11.6117L198.08 10.7491L198.113 8.84899L248.166 9.7116L248.193 8.11157L267.365 8.44255L272.375 13.6319Z" fill="#DBFFA9" fill-opacity="0.25"/>
<path d="M273.714 125.431L255.149 125.112L255.176 123.51L205.123 122.646L205.156 120.746L255.209 121.61L255.236 120.01L278.899 120.418L273.714 125.431Z" fill="#DBFFA9" fill-opacity="0.25"/>
<path d="M264.593 134.249L246.026 133.929L246.053 132.33L196.002 131.466L196.035 129.566L246.086 130.43L246.113 128.828L269.778 129.237L264.593 134.249Z" fill="#DBFFA9" fill-opacity="0.25"/>
<path d="M180.93 177.872L192.778 178.076L192.805 176.476L242.857 177.338L242.889 175.438L192.838 174.576L192.865 172.976L174.266 172.655L129.197 216.216C132.932 216.492 136.667 216.768 140.402 217.044L144.523 213.06L156.371 213.264L156.398 211.664L206.451 212.527L206.484 210.627L156.431 209.764L156.458 208.164L149.708 208.048L153.647 204.24L165.495 204.445L165.522 202.845L215.575 203.707L215.608 201.807L165.555 200.944L165.582 199.344L158.832 199.228L162.771 195.421L174.619 195.625L174.646 194.025L224.698 194.887L224.73 192.987L174.679 192.125L174.706 190.525L167.956 190.408L171.895 186.603L183.743 186.807L183.77 185.207L233.822 186.069L233.854 184.169L183.803 183.306L183.83 181.706L177.08 181.59L178.5 180.218L180.927 177.872H180.93Z" fill="#DBFFA9" fill-opacity="0.25"/>
<path d="M178.703 168.856L178.209 168.848L178.711 168.362L178.703 168.856Z" fill="#DBFFA9" fill-opacity="0.25"/>
<path d="M220.151 151.618L196.455 151.21L201.64 146.197L220.238 146.518L220.211 148.118L270.264 148.98L270.231 150.88L220.178 150.018L220.151 151.618Z" fill="#DBFFA9" fill-opacity="0.25"/>
<path d="M201.903 169.256L178.701 168.856L178.71 168.362L183.393 163.835L201.99 164.156L201.963 165.757L252.016 166.62L251.984 168.52L201.93 167.658L201.903 169.256Z" fill="#DBFFA9" fill-opacity="0.25"/>
<path d="M211.027 160.438L187.33 160.03L192.515 155.017L211.116 155.338L211.087 156.938L261.14 157.8L261.108 159.7L211.055 158.838L211.027 160.438Z" fill="#DBFFA9" fill-opacity="0.25"/>
<path d="M187.903 151.062L170.979 150.771L176.165 145.758L193.089 146.05L187.903 151.062Z" fill="#DBFFA9" fill-opacity="0.25"/>
<path d="M169.654 168.7L152.73 168.409L157.916 163.396L174.84 163.688L169.654 168.7Z" fill="#DBFFA9" fill-opacity="0.25"/>
<path d="M178.777 159.882L161.854 159.589L167.039 154.578L183.962 154.869L178.777 159.882Z" fill="#DBFFA9" fill-opacity="0.25"/>
<path d="M132.177 238.482L155.873 238.892L150.688 243.903L132.09 243.582L132.118 241.982L82.0645 241.12L82.097 239.22L132.15 240.084L132.177 238.482Z" fill="#DBFFA9" fill-opacity="0.25"/>
<path d="M150.426 220.844L173.629 221.244L173.621 221.739L168.936 226.265L150.338 225.944L150.366 224.344L100.312 223.48L100.347 221.58L150.398 222.444L150.426 220.844Z" fill="#DBFFA9" fill-opacity="0.25"/>
<path d="M141.301 229.662L164.998 230.072L159.813 235.083L141.213 234.763L141.241 233.164L91.1875 232.3L91.2201 230.4L141.273 231.264L141.301 229.662Z" fill="#DBFFA9" fill-opacity="0.25"/>
<path d="M164.427 239.04L181.35 239.331L176.165 244.342L159.242 244.051L164.427 239.04Z" fill="#DBFFA9" fill-opacity="0.25"/>
<path d="M182.677 221.4L199.6 221.691L194.415 226.706L177.492 226.413L182.677 221.4Z" fill="#DBFFA9" fill-opacity="0.25"/>
<path d="M173.552 230.22L190.475 230.511L185.29 235.524L168.367 235.231L173.552 230.22Z" fill="#DBFFA9" fill-opacity="0.25"/>
<path d="M120.647 216.07L165.714 172.509L148.789 172.218L103.076 216.403C108.933 216.293 114.79 216.182 120.647 216.07Z" fill="#DBFFA9" fill-opacity="0.25"/>
<path d="M77.8559 277.828L89.7037 278.032L89.7311 276.432L139.782 277.294L139.815 275.394L89.7637 274.532L89.7911 272.932L71.1915 272.611L26.123 316.172C29.858 316.448 33.593 316.724 37.328 317L41.4487 313.016L53.2965 313.22L53.3239 311.62L103.377 312.483L103.41 310.583L53.3565 309.72L53.3839 308.12L46.6338 308.003L50.5728 304.196L62.4206 304.4L62.448 302.8L112.501 303.663L112.534 301.763L62.4805 300.9L62.508 299.3L55.7579 299.184L59.6969 295.376L71.5446 295.581L71.5721 293.981L121.623 294.843L121.656 292.943L71.6046 292.08L71.6321 290.48L64.882 290.364L68.8209 286.558L80.6687 286.762L80.6961 285.162L130.747 286.025L130.78 284.125L80.7287 283.262L80.7561 281.662L74.0061 281.546L75.4253 280.174L77.8525 277.828H77.8559Z" fill="#DBFFA9" fill-opacity="0.25"/>
<path d="M117.076 251.574L93.3809 251.166L98.566 246.153L117.164 246.474L117.136 248.074L167.189 248.936L167.157 250.837L117.104 249.974L117.076 251.574Z" fill="#DBFFA9" fill-opacity="0.25"/>
<path d="M98.8305 269.212L75.627 268.812L75.6355 268.318L80.3201 263.791L98.918 264.112L98.8905 265.713L148.942 266.576L148.909 268.476L98.858 267.614L98.8305 269.212Z" fill="#DBFFA9" fill-opacity="0.25"/>
<path d="M107.953 260.394L84.2559 259.986L89.441 254.973L108.041 255.294L108.013 256.894L158.066 257.756L158.034 259.656L107.981 258.794L107.953 260.394Z" fill="#DBFFA9" fill-opacity="0.25"/>
<path d="M84.8255 251.018L67.9023 250.725L73.0875 245.714L90.0106 246.006L84.8255 251.018Z" fill="#DBFFA9" fill-opacity="0.25"/>
<path d="M66.5775 268.656L49.6543 268.365L54.8394 263.352L71.7626 263.644L66.5775 268.656Z" fill="#DBFFA9" fill-opacity="0.25"/>
<path d="M75.7025 259.838L58.7793 259.545L63.9644 254.534L80.8876 254.825L75.7025 259.838Z" fill="#DBFFA9" fill-opacity="0.25"/>
<path d="M17.5711 316.024L62.6379 272.463L45.713 272.172L0 316.357C5.85703 316.247 11.7141 316.136 17.5711 316.024Z" fill="#DBFFA9" fill-opacity="0.25"/>
</svg>
