<svg width="341" height="305" viewBox="0 0 341 305" fill="none" xmlns="http://www.w3.org/2000/svg">
<path d="M287.901 121.107L271.585 120.825L276.574 116.002L292.889 116.284L287.901 121.107Z" fill="#DBFFA9" fill-opacity="0.05"/>
<path d="M279.123 129.591L262.81 129.309L267.798 124.486L284.112 124.768L279.123 129.591Z" fill="#DBFFA9" fill-opacity="0.05"/>
<path d="M277.544 4.74377L261.812 4.47316L258.768 1.32166L274.499 1.59226L277.544 4.74377Z" fill="#DBFFA9" fill-opacity="0.05"/>
<path d="M286.028 13.5284L270.296 13.2578L265.476 8.26489L281.209 8.53714L286.028 13.5284Z" fill="#DBFFA9" fill-opacity="0.05"/>
<path d="M294.508 22.3115L278.775 22.0392L273.954 17.048L289.687 17.3202L294.508 22.3115Z" fill="#DBFFA9" fill-opacity="0.05"/>
<path d="M296.681 112.619L280.364 112.339L324.644 69.5394L282.437 25.8308L298.172 26.1031L302.993 31.096L340.664 70.107H340.662L301.67 107.798L296.681 112.619Z" fill="#DBFFA9" fill-opacity="0.05"/>
<path d="M270.341 138.077L254.027 137.795L259.016 132.972L275.332 133.254L270.341 138.077Z" fill="#DBFFA9" fill-opacity="0.05"/>
<path d="M272.133 112.197L254.269 111.888L254.296 110.349L206.141 109.519L206.172 107.691L254.327 108.521L254.353 106.981L265.754 107.178L269.453 103.6L262.961 103.488L262.987 101.95L214.83 101.119L214.862 99.2906L263.018 100.122L263.045 98.5828L274.442 98.7791L274.444 98.7775L278.235 95.1161L271.739 95.0039L271.766 93.4644L223.609 92.6328L223.64 90.8046L271.797 91.6362L271.825 90.0968L283.224 90.2931L287.014 86.6301L280.52 86.5179L280.546 84.9785L232.388 84.1469L232.419 82.3187L280.577 83.1503L280.604 81.6108L292.003 81.8072L295.793 78.1441L289.297 78.0319L289.325 76.4925L241.166 75.6609L241.199 73.8343L289.356 74.6643L289.382 73.1248L300.783 73.3212L304.746 69.4882L300.917 65.52L289.516 65.3236L289.542 63.7842L241.386 62.9526L241.417 61.1244L289.574 61.956L289.602 60.4165L296.096 60.5287L292.435 56.737L281.036 56.539L281.062 54.9995L232.904 54.1696L232.935 52.3414L281.093 53.1713L281.12 51.6335L287.616 51.7441L283.953 47.9524L272.554 47.756L272.58 46.2166L224.422 45.3866L224.453 43.5584L272.612 44.3884L272.638 42.8489L279.134 42.9611L275.471 39.1694H275.47L264.072 38.9731L264.098 37.4336L215.942 36.6036L215.973 34.7754L264.13 35.6054L264.156 34.0659L270.651 34.1781L267.075 30.4755L255.676 30.2792L255.702 28.7397L207.546 27.9081L207.577 26.0816L255.734 26.9115L255.76 25.3721L274.206 25.6889L316.413 69.3975L272.133 112.197Z" fill="#DBFFA9" fill-opacity="0.05"/>
<path d="M270.545 21.8971L247.195 21.4945L247.222 19.9551L199.063 19.1251L199.095 17.2969L247.253 18.1285L247.279 16.5874L265.724 16.9059L270.545 21.8971Z" fill="#DBFFA9" fill-opacity="0.05"/>
<path d="M245.797 137.653L227.935 137.345L227.961 135.807L179.803 134.975L179.834 133.147L227.992 133.979L228.019 132.438L250.786 132.83L245.797 137.653Z" fill="#DBFFA9" fill-opacity="0.05"/>
<path d="M230.232 3.92866L230.258 2.39085L182.102 1.55925L182.128 0L250.537 1.17975L253.583 4.33126L230.232 3.92866Z" fill="#DBFFA9" fill-opacity="0.05"/>
<path d="M262.065 13.1159L238.712 12.7133L238.74 11.1722L190.582 10.3423L190.613 8.51407L238.772 9.34402L238.798 7.80457L257.244 8.12301L262.065 13.1159Z" fill="#DBFFA9" fill-opacity="0.05"/>
<path d="M263.354 120.683L245.491 120.376L245.518 118.835L197.359 118.003L197.391 116.175L245.549 117.007L245.575 115.467L268.343 115.86L263.354 120.683Z" fill="#DBFFA9" fill-opacity="0.05"/>
<path d="M254.576 129.167L236.712 128.859L236.739 127.321L188.582 126.489L188.613 124.661L236.77 125.493L236.796 123.952L259.565 124.344L254.576 129.167Z" fill="#DBFFA9" fill-opacity="0.05"/>
<path d="M174.082 171.138L185.481 171.335L185.508 169.795L233.664 170.625L233.696 168.797L185.539 167.967L185.566 166.428L167.67 166.119L124.308 208.031C127.901 208.297 131.495 208.562 135.088 208.828L139.053 204.995L150.452 205.191L150.479 203.652L198.637 204.482L198.668 202.654L150.51 201.824L150.537 200.284L144.042 200.172L147.832 196.509L159.231 196.705L159.257 195.166L207.416 195.996L207.447 194.168L159.289 193.338L159.315 191.798L152.821 191.686L156.61 188.023L168.01 188.219L168.036 186.68L216.193 187.51L216.224 185.682L168.067 184.852L168.094 183.312L161.599 183.2L165.389 179.539L176.788 179.735L176.815 178.196L224.971 179.025L225.003 177.197L176.846 176.367L176.873 174.828L170.378 174.716L171.744 173.396L174.079 171.138H174.082Z" fill="#DBFFA9" fill-opacity="0.05"/>
<path d="M171.938 162.464L171.463 162.456L171.946 161.989L171.938 162.464Z" fill="#DBFFA9" fill-opacity="0.05"/>
<path d="M211.819 145.879L189.021 145.486L194.009 140.663L211.903 140.972L211.877 142.511L260.035 143.341L260.004 145.169L211.845 144.339L211.819 145.879Z" fill="#DBFFA9" fill-opacity="0.05"/>
<path d="M194.263 162.849L171.939 162.464L171.948 161.989L176.453 157.633L194.347 157.942L194.321 159.483L242.479 160.313L242.448 162.141L194.289 161.311L194.263 162.849Z" fill="#DBFFA9" fill-opacity="0.05"/>
<path d="M203.039 154.364L180.239 153.972L185.228 149.149L203.125 149.457L203.097 150.997L251.255 151.827L251.224 153.655L203.066 152.825L203.039 154.364Z" fill="#DBFFA9" fill-opacity="0.05"/>
<path d="M180.79 145.344L164.506 145.064L169.496 140.241L185.779 140.521L180.79 145.344Z" fill="#DBFFA9" fill-opacity="0.05"/>
<path d="M163.234 162.314L146.951 162.034L151.94 157.211L168.224 157.491L163.234 162.314Z" fill="#DBFFA9" fill-opacity="0.05"/>
<path d="M172.011 153.83L155.729 153.548L160.717 148.726L177 149.007L172.011 153.83Z" fill="#DBFFA9" fill-opacity="0.05"/>
<path d="M127.177 229.454L149.975 229.849L144.987 234.67L127.093 234.361L127.119 232.822L78.9609 231.992L78.9923 230.164L127.151 230.995L127.177 229.454Z" fill="#DBFFA9" fill-opacity="0.05"/>
<path d="M144.734 212.484L167.059 212.869L167.051 213.345L162.543 217.7L144.649 217.391L144.676 215.852L96.5176 215.02L96.5506 213.192L144.707 214.024L144.734 212.484Z" fill="#DBFFA9" fill-opacity="0.05"/>
<path d="M135.954 220.968L158.754 221.363L153.766 226.184L135.87 225.875L135.897 224.338L87.7383 223.506L87.7696 221.678L135.928 222.509L135.954 220.968Z" fill="#DBFFA9" fill-opacity="0.05"/>
<path d="M158.205 229.991L174.487 230.271L169.498 235.092L153.216 234.812L158.205 229.991Z" fill="#DBFFA9" fill-opacity="0.05"/>
<path d="M175.763 213.019L192.046 213.299L187.057 218.124L170.774 217.842L175.763 213.019Z" fill="#DBFFA9" fill-opacity="0.05"/>
<path d="M166.984 221.505L183.266 221.785L178.278 226.608L161.995 226.326L166.984 221.505Z" fill="#DBFFA9" fill-opacity="0.05"/>
<path d="M116.079 207.891L159.44 165.979L143.155 165.698L99.1729 208.211C104.808 208.105 110.443 207.998 116.079 207.891Z" fill="#DBFFA9" fill-opacity="0.05"/>
<path d="M74.9083 267.311L86.3076 267.507L86.3339 265.967L134.491 266.797L134.522 264.969L86.3653 264.139L86.3917 262.6L68.4962 262.291L25.1338 304.203C28.7274 304.469 32.321 304.734 35.9146 305L39.8793 301.167L51.2786 301.363L51.3049 299.824L99.4632 300.654L99.4946 298.826L51.3363 297.996L51.3627 296.456L44.8681 296.344L48.658 292.681L60.0573 292.877L60.0836 291.338L108.242 292.168L108.273 290.34L60.115 289.51L60.1414 287.97L53.6468 287.858L57.4367 284.195L68.8359 284.391L68.8623 282.852L117.019 283.682L117.05 281.854L68.8937 281.024L68.92 279.484L62.4255 279.372L66.2154 275.711L77.6146 275.907L77.641 274.368L125.798 275.198L125.829 273.369L77.6724 272.539L77.6987 271L71.2042 270.888L72.5697 269.568L74.905 267.311H74.9083Z" fill="#DBFFA9" fill-opacity="0.05"/>
<path d="M112.645 242.051L89.8467 241.658L94.8355 236.835L112.729 237.144L112.703 238.683L160.861 239.513L160.83 241.341L112.672 240.511L112.645 242.051Z" fill="#DBFFA9" fill-opacity="0.05"/>
<path d="M95.0879 259.021L72.7627 258.636L72.7709 258.161L77.2782 253.805L95.172 254.114L95.1456 255.655L143.302 256.485L143.271 258.313L95.1143 257.483L95.0879 259.021Z" fill="#DBFFA9" fill-opacity="0.05"/>
<path d="M103.868 250.537L81.0674 250.144L86.0562 245.321L103.952 245.629L103.925 247.169L152.084 247.999L152.052 249.827L103.894 248.997L103.868 250.537Z" fill="#DBFFA9" fill-opacity="0.05"/>
<path d="M81.6146 241.516L65.332 241.234L70.3209 236.413L86.6034 236.693L81.6146 241.516Z" fill="#DBFFA9" fill-opacity="0.05"/>
<path d="M64.0579 258.486L47.7754 258.206L52.7642 253.383L69.0468 253.663L64.0579 258.486Z" fill="#DBFFA9" fill-opacity="0.05"/>
<path d="M72.8372 250.002L56.5547 249.72L61.5435 244.898L77.8261 245.179L72.8372 250.002Z" fill="#DBFFA9" fill-opacity="0.05"/>
<path d="M16.906 304.061L60.2667 262.149L43.9825 261.869L0 304.381C5.63532 304.276 11.2706 304.168 16.906 304.061Z" fill="#DBFFA9" fill-opacity="0.05"/>
</svg>
