<svg width="785" height="685" viewBox="0 0 785 685" fill="none" xmlns="http://www.w3.org/2000/svg">
<path d="M663.364 269.049L625.771 268.399L637.266 257.286L674.859 257.936L663.364 269.049Z" fill="#8DC540" fill-opacity="0.2"/>
<path d="M643.137 288.598L605.547 287.948L617.042 276.835L654.632 277.485L643.137 288.598Z" fill="#8DC540" fill-opacity="0.2"/>
<path d="M639.503 0.930415L603.255 0.306904L596.24 -6.95465L632.489 -6.33114L639.503 0.930415Z" fill="#8DC540" fill-opacity="0.2"/>
<path d="M659.047 21.1714L622.799 20.5479L611.691 9.04346L647.943 9.67076L659.047 21.1714Z" fill="#8DC540" fill-opacity="0.2"/>
<path d="M678.59 41.4089L642.338 40.7816L631.23 29.2809L667.483 29.9082L678.59 41.4089Z" fill="#8DC540" fill-opacity="0.2"/>
<path d="M683.594 249.492L645.997 248.846L748.024 150.229L650.774 49.5181L687.03 50.1454L698.137 61.6498L784.937 151.537H784.933L695.089 238.383L683.594 249.492Z" fill="#8DC540" fill-opacity="0.2"/>
<path d="M622.905 308.151L585.315 307.501L596.81 296.388L634.404 297.038L622.905 308.151Z" fill="#8DC540" fill-opacity="0.2"/>
<path d="M627.036 248.519L585.874 247.808L585.935 244.261L474.979 242.348L475.051 238.136L586.007 240.048L586.068 236.501L612.337 236.954L620.861 228.711L605.9 228.453L605.961 224.909L495.001 222.993L495.073 218.781L606.033 220.697L606.094 217.15L632.356 217.602L632.36 217.598L641.096 209.162L626.128 208.903L626.188 205.356L515.228 203.44L515.3 199.228L626.261 201.144L626.325 197.597L652.591 198.049L661.323 189.609L646.359 189.35L646.42 185.803L535.456 183.887L535.528 179.675L646.492 181.591L646.553 178.044L672.818 178.496L681.551 170.056L666.583 169.798L666.647 166.25L555.683 164.334L555.759 160.126L666.719 162.038L666.78 158.491L693.05 158.943L702.181 150.112L693.357 140.968L667.088 140.516L667.149 136.968L556.188 135.052L556.261 130.84L667.221 132.756L667.286 129.209L682.25 129.467L673.814 120.731L647.548 120.274L647.609 116.727L536.645 114.815L536.717 110.603L647.681 112.515L647.742 108.972L662.71 109.226L654.27 100.49L628.005 100.037L628.066 96.4901L517.102 94.5777L517.174 90.3653L628.138 92.2776L628.199 88.7305L643.167 88.989L634.727 80.2523H634.723L608.461 79.7999L608.522 76.2528L497.562 74.3404L497.634 70.128L608.594 72.0403L608.655 68.4932L623.62 68.7517L615.381 60.2203L589.116 59.7679L589.176 56.2208L478.216 54.3046L478.288 50.096L589.249 52.0083L589.309 48.4612L631.812 49.1911L729.062 149.902L627.036 248.519Z" fill="#8DC540" fill-opacity="0.2"/>
<path d="M623.377 40.4545L569.576 39.5268L569.637 35.9797L458.673 34.0674L458.745 29.8549L569.709 31.771L569.77 28.2201L612.269 28.9539L623.377 40.4545Z" fill="#8DC540" fill-opacity="0.2"/>
<path d="M566.353 307.174L525.195 306.463L525.256 302.92L414.292 301.004L414.364 296.791L525.328 298.707L525.389 295.156L577.848 296.061L566.353 307.174Z" fill="#8DC540" fill-opacity="0.2"/>
<path d="M603.836 20.2209L550.028 19.2933L550.093 15.7423L439.129 13.83L439.201 9.61753L550.165 11.5299L550.226 7.98273L592.729 8.71648L603.836 20.2209Z" fill="#8DC540" fill-opacity="0.2"/>
<path d="M606.807 268.072L565.649 267.365L565.71 263.814L454.746 261.898L454.818 257.685L565.782 259.601L565.843 256.054L618.302 256.959L606.807 268.072Z" fill="#8DC540" fill-opacity="0.2"/>
<path d="M586.582 287.621L545.42 286.91L545.481 283.367L434.521 281.451L434.593 277.238L545.553 279.154L545.614 275.603L598.077 276.508L586.582 287.621Z" fill="#8DC540" fill-opacity="0.2"/>
<path d="M401.11 384.329L427.376 384.781L427.436 381.234L538.397 383.147L538.469 378.934L427.509 377.022L427.569 373.475L386.335 372.764L286.422 469.335C294.702 469.947 302.982 470.559 311.263 471.171L320.398 462.339L346.663 462.792L346.724 459.245L457.688 461.157L457.76 456.944L346.796 455.032L346.857 451.485L331.893 451.226L340.625 442.786L366.891 443.239L366.952 439.692L477.916 441.604L477.988 437.391L367.024 435.479L367.085 431.932L352.12 431.674L360.853 423.233L387.118 423.686L387.179 420.139L498.139 422.051L498.211 417.839L387.251 415.926L387.312 412.379L372.348 412.121L381.08 403.684L407.346 404.137L407.407 400.59L518.367 402.502L518.439 398.289L407.479 396.377L407.54 392.83L392.575 392.571L395.721 389.53L401.102 384.329H401.11Z" fill="#8DC540" fill-opacity="0.2"/>
<path d="M396.166 364.343L395.071 364.324L396.185 363.248L396.166 364.343Z" fill="#8DC540" fill-opacity="0.2"/>
<path d="M488.059 326.126L435.527 325.221L447.022 314.109L488.252 314.819L488.192 318.367L599.156 320.279L599.083 324.491L488.119 322.579L488.059 326.126Z" fill="#8DC540" fill-opacity="0.2"/>
<path d="M447.603 365.228L396.166 364.343L396.185 363.248L406.567 353.211L447.797 353.922L447.736 357.473L558.7 359.385L558.628 363.597L447.664 361.685L447.603 365.228Z" fill="#8DC540" fill-opacity="0.2"/>
<path d="M467.83 345.679L415.295 344.774L426.79 333.662L468.028 334.373L467.963 337.92L578.927 339.832L578.855 344.044L467.891 342.132L467.83 345.679Z" fill="#8DC540" fill-opacity="0.2"/>
<path d="M416.564 324.894L379.043 324.248L390.542 313.135L428.059 313.782L416.564 324.894Z" fill="#8DC540" fill-opacity="0.2"/>
<path d="M376.105 363.997L338.588 363.35L350.083 352.237L387.604 352.884L376.105 363.997Z" fill="#8DC540" fill-opacity="0.2"/>
<path d="M396.333 344.447L358.815 343.797L370.31 332.688L407.828 333.334L396.333 344.447Z" fill="#8DC540" fill-opacity="0.2"/>
<path d="M293.03 518.698L345.561 519.606L334.066 530.715L292.836 530.004L292.897 526.457L181.933 524.545L182.005 520.333L292.969 522.249L293.03 518.698Z" fill="#8DC540" fill-opacity="0.2"/>
<path d="M333.485 479.596L384.925 480.482L384.906 481.58L374.521 491.613L333.291 490.903L333.352 487.355L222.388 485.439L222.464 481.227L333.424 483.143L333.485 479.596Z" fill="#8DC540" fill-opacity="0.2"/>
<path d="M313.257 499.145L365.792 500.054L354.297 511.163L313.063 510.452L313.124 506.908L202.16 504.992L202.232 500.78L313.196 502.696L313.257 499.145Z" fill="#8DC540" fill-opacity="0.2"/>
<path d="M364.527 519.933L402.045 520.58L390.55 531.689L353.032 531.042L364.527 519.933Z" fill="#8DC540" fill-opacity="0.2"/>
<path d="M404.981 480.828L442.499 481.474L431.004 492.59L393.486 491.94L404.981 480.828Z" fill="#8DC540" fill-opacity="0.2"/>
<path d="M384.755 500.381L422.272 501.027L410.777 512.14L373.26 511.49L384.755 500.381Z" fill="#8DC540" fill-opacity="0.2"/>
<path d="M267.464 469.012L367.373 372.441L329.852 371.794L228.51 469.749C241.494 469.506 254.479 469.259 267.464 469.012Z" fill="#8DC540" fill-opacity="0.2"/>
<path d="M172.6 605.924L198.866 606.377L198.927 602.829L309.887 604.742L309.959 600.529L198.999 598.617L199.06 595.07L157.826 594.359L57.9121 690.93C66.1923 691.542 74.4725 692.154 82.7528 692.766L91.888 683.935L118.154 684.387L118.214 680.84L229.178 682.752L229.251 678.54L118.287 676.627L118.347 673.08L103.383 672.822L112.115 664.382L138.381 664.834L138.442 661.287L249.406 663.199L249.478 658.987L138.514 657.074L138.575 653.527L123.61 653.269L132.343 644.829L158.609 645.281L158.669 641.734L269.63 643.646L269.702 639.434L158.742 637.521L158.802 633.974L143.838 633.716L152.57 625.279L178.836 625.732L178.897 622.185L289.857 624.097L289.929 619.885L178.969 617.972L179.03 614.425L164.065 614.167L167.212 611.125L172.593 605.924H172.6Z" fill="#8DC540" fill-opacity="0.2"/>
<path d="M259.548 547.721L207.017 546.817L218.512 535.704L259.742 536.415L259.681 539.962L370.645 541.874L370.573 546.087L259.609 544.174L259.548 547.721Z" fill="#8DC540" fill-opacity="0.2"/>
<path d="M219.093 586.824L167.652 585.938L167.671 584.843L178.057 574.806L219.287 575.517L219.226 579.068L330.186 580.98L330.114 585.193L219.154 583.28L219.093 586.824Z" fill="#8DC540" fill-opacity="0.2"/>
<path d="M239.32 567.274L186.785 566.37L198.28 555.257L239.514 555.968L239.453 559.515L350.417 561.427L350.345 565.64L239.381 563.727L239.32 567.274Z" fill="#8DC540" fill-opacity="0.2"/>
<path d="M188.051 546.49L150.533 545.839L162.028 534.73L199.546 535.377L188.051 546.49Z" fill="#8DC540" fill-opacity="0.2"/>
<path d="M147.597 585.592L110.079 584.945L121.574 573.833L159.092 574.479L147.597 585.592Z" fill="#8DC540" fill-opacity="0.2"/>
<path d="M167.823 566.042L130.306 565.392L141.801 554.283L179.318 554.93L167.823 566.042Z" fill="#8DC540" fill-opacity="0.2"/>
<path d="M38.9539 690.603L138.864 594.032L101.342 593.386L0 691.341C12.9846 691.097 25.9693 690.85 38.9539 690.603Z" fill="#8DC540" fill-opacity="0.2"/>
</svg>
