<svg width="81" height="81" viewBox="0 0 81 81" fill="none" xmlns="http://www.w3.org/2000/svg">
<path d="M40.375 79.75C62.1212 79.75 79.75 62.1212 79.75 40.375C79.75 18.6288 62.1212 1 40.375 1C18.6288 1 1 18.6288 1 40.375C1 62.1212 18.6288 79.75 40.375 79.75Z" stroke="#0D6A37" stroke-width="2"/>
<path d="M40.375 62.25C52.4562 62.25 62.25 52.4562 62.25 40.375C62.25 28.2938 52.4562 18.5 40.375 18.5C28.2938 18.5 18.5 28.2938 18.5 40.375C18.5 52.4562 28.2938 62.25 40.375 62.25Z" stroke="#0D6A37" stroke-width="2"/>
<path d="M40.375 32.292C44.8393 32.292 48.458 35.9107 48.458 40.375C48.458 44.8393 44.8393 48.458 40.375 48.458C35.9107 48.458 32.292 44.8393 32.292 40.375C32.292 35.9107 35.9107 32.292 40.375 32.292Z" fill="#0D6A37" stroke="#0D6A37" stroke-width="1.33333"/>
<path d="M53.5 27.25L75.375 5.375" stroke="#0D6A37" stroke-width="2" stroke-linecap="round" stroke-linejoin="round"/>
<path d="M64.4375 5.375H75.375V16.3125" stroke="#0D6A37" stroke-width="2" stroke-linecap="round" stroke-linejoin="round"/>
</svg>
