<svg width="52" height="45" viewBox="0 0 52 45" fill="none" xmlns="http://www.w3.org/2000/svg">
<path d="M5.92918 1H32.2182C34.9404 1 37.1473 3.20686 37.1473 5.92918V43.7196M5.92918 1C3.20686 1 1 3.20686 1 5.92918V43.7196M5.92918 1C8.6515 1 10.8584 3.20686 10.8584 5.92918V43.7196" stroke="#0D6A37" stroke-width="2" stroke-linecap="round" stroke-linejoin="round"/>
<path d="M1 43.7195H37.1473" stroke="#0D6A37" stroke-width="2" stroke-linecap="round"/>
<path d="M42.0732 18.7451C44.614 18.7451 46.6738 16.6853 46.6738 14.1445C46.6738 11.6037 44.614 9.54395 42.0732 9.54395C39.5324 9.54395 37.4727 11.6037 37.4727 14.1445C37.4727 16.6853 39.5324 18.7451 42.0732 18.7451Z" stroke="#0D6A37" stroke-width="2"/>
<path d="M42.0757 6.58641V2.64307M42.0757 25.6459V21.7026M35.832 7.90086L33.2031 5.27196M50.9482 23.017L48.3193 20.3881M35.832 20.3881L33.2031 23.017M50.9482 5.27196L48.3193 7.90086" stroke="#0D6A37" stroke-width="1.73333" stroke-linecap="round"/>
</svg>
